<?xml version="1.0" encoding="utf-8"?>
<svg width="800px" height="800px" viewBox="0 0 24 24" fill="none" xmlns="http://www.w3.org/2000/svg">
<circle cx="12" cy="8" r="3.5" fill="#000000"/>
<path d="M12 12.5C9.8 12.5 7.7 13.1 6.1 14.3C4.5 15.5 3.5 17.1 3.5 18.8V20C3.5 20.6 3.9 21 4.5 21H19.5C20.1 21 20.5 20.6 20.5 20V18.8C20.5 17.1 19.5 15.5 17.9 14.3C16.3 13.1 14.2 12.5 12 12.5Z" fill="#000000"/>
<path d="M7.5 8C7.5 7 7.8 6.1 8.3 5.3C8.1 5.3 7.8 5.2 7.5 5.2C5.8 5.2 4.5 6.5 4.5 8.2C4.5 9.9 5.8 11.2 7.5 11.2C7.8 11.2 8.1 11.1 8.3 11.1C7.8 10.3 7.5 9.2 7.5 8Z" fill="#000000" opacity="0.3"/>
<path d="M16.5 5.2C16.2 5.2 15.9 5.3 15.7 5.3C16.2 6.1 16.5 7 16.5 8C16.5 9.2 16.2 10.3 15.7 11.1C15.9 11.1 16.2 11.2 16.5 11.2C18.2 11.2 19.5 9.9 19.5 8.2C19.5 6.5 18.2 5.2 16.5 5.2Z" fill="#000000" opacity="0.3"/>
</svg>