<?xml version="1.0" encoding="utf-8"?>
<svg width="800px" height="800px" viewBox="0 0 24 24" fill="none" xmlns="http://www.w3.org/2000/svg">
<path d="M2 12C2 12 4 8 6 12C8 16 10 4 12 12C14 20 16 8 18 12C20 16 22 12 22 12" stroke="#000000" stroke-width="1.5" stroke-linecap="round" stroke-linejoin="round" opacity="0.3"/>
<path d="M3 12C3 12 5 10 7 12C9 14 11 10 13 12C15 14 17 10 19 12C21 14 22 12 22 12" stroke="#000000" stroke-width="2" stroke-linecap="round" stroke-linejoin="round"/>
<circle cx="7" cy="12" r="1.5" fill="#000000"/>
<circle cx="13" cy="12" r="1.5" fill="#000000"/>
<circle cx="19" cy="12" r="1.5" fill="#000000"/>
<path d="M7 6V8" stroke="#000000" stroke-width="2" stroke-linecap="round"/>
<path d="M13 16V18" stroke="#000000" stroke-width="2" stroke-linecap="round"/>
<path d="M19 6V8" stroke="#000000" stroke-width="2" stroke-linecap="round"/>
</svg>