<?xml version="1.0" encoding="utf-8"?>

<!-- Uploaded to: SVG Repo, www.svgrepo.com, Generator: SVG Repo Mixer Tools -->
<svg version="1.1" id="Icons" xmlns="http://www.w3.org/2000/svg" xmlns:xlink="http://www.w3.org/1999/xlink" 
	 viewBox="0 0 32 32" xml:space="preserve">
<style type="text/css">
	.st0{fill:none;stroke:#000000;stroke-width:2;stroke-linecap:round;stroke-linejoin:round;stroke-miterlimit:10;}
</style>
<path class="st0" d="M28,19L28,19c-7.9,2-16.1,2-24,0l0,0v-3l0,0c7.9,2,16.1,2,24,0l0,0V19z"/>
<path class="st0" d="M28,10L28,10c-7.9,2-16.1,2-24,0l0,0V1l0,0c7.9,2,16.1,2,24,0l0,0V10z"/>
<line class="st0" x1="4" y1="19" x2="27" y2="31"/>
<line class="st0" x1="28" y1="19" x2="5" y2="31"/>
<line class="st0" x1="6" y1="11" x2="6" y2="16"/>
<line class="st0" x1="26" y1="11" x2="26" y2="16"/>
</svg>