<?xml version="1.0" ?>
<!-- Uploaded to: SVG Repo, www.svgrepo.com, Generator: SVG Repo Mixer Tools -->
<svg width="800px" height="800px" viewBox="-0.13 0 7.4083335 7.4083335" id="svg8" version="1.1" xmlns="http://www.w3.org/2000/svg" xmlns:cc="http://creativecommons.org/ns#" xmlns:dc="http://purl.org/dc/elements/1.1/" xmlns:rdf="http://www.w3.org/1999/02/22-rdf-syntax-ns#" xmlns:svg="http://www.w3.org/2000/svg">
<defs id="defs2"/>
<g id="layer1" transform="translate(-21.958864,-289.06249)">
<path d="M 92.996094,2 C 92.446879,2.0021956 92.002196,2.4468784 92,2.9960938 v 5.0058593 c 0,1.3346348 2.001953,1.3346348 2.001953,0 V 4 H 107.99609 V 28 H 94.001953 v -2.998047 c 0,-1.334635 -2.001953,-1.334635 -2.001953,0 v 4.001953 C 92.0022,29.553121 92.446879,29.997804 92.996094,30 h 16.005856 c 0.54922,-0.0022 0.9939,-0.446876 0.9961,-0.996094 V 2.9960938 C 109.99585,2.446876 109.55117,2.0021923 109.00195,2 Z m -9.101563,8.001953 c -0.51154,0.05126 -0.900892,0.481993 -0.90039,0.996094 v 11 c -0.0021,0.555317 0.448589,1.006023 1.003906,1.003906 h 13 c 0.552263,-0.0022 0.9982,-0.451642 0.996094,-1.003906 v -1.380859 l 4.554689,2.273437 c 0.66418,0.332003 1.44578,-0.150038 1.44726,-0.892578 v -11 c -0.002,-0.560796 -0.46477,-1.010279 -1.02539,-0.996094 l -4.976559,2.376953 v -1.380859 c -0.0022,-0.549216 -0.446878,-0.993898 -0.996094,-0.996094 z m 1.09961,2 h 11 v 9 h -11 z m 17.001949,0.613281 v 7.765625 L 97.994141,18.382812 V 14.619141 Z M 86.998047,13 c -0.552277,1.8e-5 -0.999982,0.447723 -1,1 1.8e-5,0.552277 0.447723,0.999982 1,1 0.552277,-1.8e-5 0.999982,-0.447723 1,-1 -1.8e-5,-0.552277 -0.447723,-0.999982 -1,-1 z" id="icon-3" style="color:#000000;font-style:normal;font-variant:normal;font-weight:normal;font-stretch:normal;font-size:medium;line-height:normal;font-family:sans-serif;font-variant-ligatures:normal;font-variant-position:normal;font-variant-caps:normal;font-variant-numeric:normal;font-variant-alternates:normal;font-feature-settings:normal;text-indent:0;text-align:start;text-decoration:none;text-decoration-line:none;text-decoration-style:solid;text-decoration-color:#000000;letter-spacing:normal;word-spacing:normal;text-transform:none;writing-mode:lr-tb;direction:ltr;text-orientation:mixed;dominant-baseline:auto;baseline-shift:baseline;text-anchor:start;white-space:normal;shape-padding:0;clip-rule:nonzero;display:inline;overflow:visible;visibility:visible;opacity:1;isolation:auto;mix-blend-mode:normal;color-interpolation:sRGB;color-interpolation-filters:linearRGB;solid-color:#000000;solid-opacity:1;vector-effect:none;fill:#000000;fill-opacity:1;fill-rule:nonzero;stroke:none;stroke-width:2;stroke-linecap:round;stroke-linejoin:round;stroke-miterlimit:4;stroke-dasharray:none;stroke-dashoffset:0;stroke-opacity:1;color-rendering:auto;image-rendering:auto;shape-rendering:auto;text-rendering:auto;enable-background:accumulate" transform="matrix(0.26458333,0,0,0.26458333,0,288.53332)"/>
</g>
</svg>