<?xml version="1.0" encoding="utf-8"?>
<svg width="800px" height="800px" viewBox="0 0 24 24" fill="none" xmlns="http://www.w3.org/2000/svg">
<path d="M12 3V21" stroke="#000000" stroke-width="2" stroke-linecap="round" stroke-linejoin="round"/>
<path d="M3 12H21" stroke="#000000" stroke-width="2" stroke-linecap="round" stroke-linejoin="round"/>
<path d="M12 7C14.21 7 16 5.21 16 3C16 5.21 17.79 7 20 7C17.79 7 16 8.79 16 11C16 8.79 14.21 7 12 7Z" stroke="#000000" stroke-width="2" stroke-linecap="round" stroke-linejoin="round"/>
<path d="M12 17C9.79 17 8 18.79 8 21C8 18.79 6.21 17 4 17C6.21 17 8 15.21 8 13C8 15.21 9.79 17 12 17Z" stroke="#000000" stroke-width="2" stroke-linecap="round" stroke-linejoin="round"/>
</svg>