<?xml version="1.0" encoding="utf-8"?>
<svg width="800px" height="800px" viewBox="0 0 24 24" fill="none" xmlns="http://www.w3.org/2000/svg">
<path d="M12 2C8.13 2 5 5.13 5 9C5 11.38 6.19 13.47 8 14.74V17C8 19.21 9.79 21 12 21S16 19.21 16 17V14.74C17.81 13.47 19 11.38 19 9C19 5.13 15.87 2 12 2Z" stroke="#000000" stroke-width="2" stroke-linecap="round" stroke-linejoin="round"/>
<path d="M10 8.5C10 7.67 10.67 7 11.5 7S13 7.67 13 8.5" stroke="#000000" stroke-width="2" stroke-linecap="round" stroke-linejoin="round"/>
<path d="M14.5 8.5C14.5 7.67 15.17 7 16 7" stroke="#000000" stroke-width="2" stroke-linecap="round" stroke-linejoin="round"/>
<path d="M12 11V13" stroke="#000000" stroke-width="2" stroke-linecap="round" stroke-linejoin="round"/>
</svg>