<?xml version="1.0" encoding="utf-8"?>
<!-- Generator: Adobe Illustrator 21.1.0, SVG Export Plug-In . SVG Version: 6.00 Build 0)  -->
<svg version="1.1" id="Layer_1" xmlns="http://www.w3.org/2000/svg" xmlns:xlink="http://www.w3.org/1999/xlink" x="0px" y="0px"
	 viewBox="0 0 348 105" style="enable-background:new 0 0 348 105;" xml:space="preserve">
<style type="text/css">
	.st0{fill:#FBB11A;}
	.st1{fill:#EA3E33;}
	.st2{fill:#5DB4E5;}
	.st3{fill:#96C456;}
</style>
<g>
	<path class="st0" d="M87.3,96.9V44L67.6,96.9H55.7L36,44v52.9H9.3v-88h36.8l15.4,42.2L76.9,8.9H114v88H87.3z"/>
</g>
<g>
	<path class="st1" d="M121.6,96.9V75.8l33.5-43.7h-33.5V8.9h68.7v21l-33.6,43.8h34.6v23.2H121.6z"/>
</g>
<g>
	<path class="st2" d="M195.8,65.1c0-18.5,14.1-33.4,34.7-33.4c18.7,0,33.1,13.5,33.1,35.9v4.9h-43.3c1.3,4.1,5.9,8.1,13.7,8.1
		c3.6,0,11.5-1.7,14.6-4.5l9.8,14.6c-6.3,5.4-17.7,7.9-27.2,7.9C211.3,98.6,195.8,86.1,195.8,65.1z M230.5,49.8
		c-7.3,0-9.6,4.7-10.4,7.7h21C240.4,54.6,238.1,49.8,230.5,49.8z"/>
</g>
<g>
	<path class="st3" d="M314.7,96.9v-6.7c-5.4,6.1-11.5,8.3-17.9,8.3c-15.4,0-28.1-11.6-28.1-33.5c0-21.1,12.4-33.4,28.1-33.4
		c6.5,0,12.9,2.2,17.9,8.3v-31h23.8v88L314.7,96.9L314.7,96.9z M314.7,73.2V56.8c-2.2-2.8-6.7-4.2-9.9-4.2
		c-6.5,0-11.9,4.5-11.9,12.4s5.4,12.5,11.9,12.5C307.9,77.5,312.4,75.9,314.7,73.2z"/>
</g>
</svg>
