<?xml version="1.0" encoding="iso-8859-1"?>
<!-- Uploaded to: SVG Repo, www.svgrepo.com, Generator: SVG Repo Mixer Tools -->
<svg fill="#000000" height="800px" width="800px" version="1.1" id="Layer_1" xmlns="http://www.w3.org/2000/svg" xmlns:xlink="http://www.w3.org/1999/xlink" 
	 viewBox="0 0 508 508" xml:space="preserve">
<g>
	<g>
		<path d="M432.4,73.3H163.9c-15.6,0-28.8,9-39.7,24H66.8C22.9,97.3,0,176.1,0,254s22.9,156.7,66.8,156.7h57.5
			c10.8,15.1,24.1,24,39.7,24h268.4c49.7,0,75.6-90.9,75.6-180.7S482,73.3,432.4,73.3z M109.3,382.5H66.8
			c-13.1,0-38.6-45.4-38.6-128.5s25.5-128.5,38.6-128.5h42.5c-13.8,34.4-21,81.6-21,128.5S95.4,348.1,109.3,382.5z M163.9,406.5
			c-19.3,0-47.4-59.4-47.4-152.5s28.1-152.5,47.4-152.5h92.5c-21.8,33.8-33.1,93.4-33.1,152.5s11.3,118.7,33.1,152.5H163.9z
			 M298.9,406.4v0.1c-19.3,0-47.4-59.4-47.4-152.5s28.1-152.5,47.4-152.5h90.9c-6.9,10.7-12.7,23.9-17.5,38.8h-69.6
			c-7.8,0-14.1,6.3-14.1,14.1c0,7.8,6.3,14.1,14.1,14.1H365c-1.9,9.1-3.5,18.5-4.7,28.2h-29.4c-7.8,0-14.1,6.3-14.1,14.1
			c0,7.8,6.3,14.1,14.1,14.1h26.7c-0.6,9.6-0.9,19.3-0.9,29c0,59.1,11.3,118.7,33.1,152.5H298.9z M432.4,406.5
			c-19.3,0-47.4-59.4-47.4-152.5s28.1-152.5,47.4-152.5s47.4,59.4,47.4,152.5S451.7,406.5,432.4,406.5z"/>
	</g>
</g>
<g>
	<g>
		<path d="M204,120.9h-28.2c-7.8,0-14.1,6.3-14.1,14.1s6.3,14.1,14.1,14.1H204c7.8,0,14.1-6.3,14.1-14.1S211.8,120.9,204,120.9z"/>
	</g>
</g>
<g>
	<g>
		<path d="M189.6,180.4h-28.2c-7.8,0-14.1,6.3-14.1,14.1s6.3,14.1,14.1,14.1h28.2c7.8,0,14.1-6.3,14.1-14.1S197.4,180.4,189.6,180.4
			z"/>
	</g>
</g>
<g>
	<g>
		<path d="M185.6,239.9h-28.2c-7.8,0-14.1,6.3-14.1,14.1c0,7.8,6.3,14.1,14.1,14.1h28.2c7.8,0,14.1-6.3,14.1-14.1
			C199.7,246.2,193.4,239.9,185.6,239.9z"/>
	</g>
</g>
<g>
	<g>
		<path d="M189.6,299.4h-28.2c-7.8,0-14.1,6.3-14.1,14.1c0,7.8,6.3,14.1,14.1,14.1h28.2c7.8,0,14.1-6.3,14.1-14.1
			S197.4,299.4,189.6,299.4z"/>
	</g>
</g>
<g>
	<g>
		<path d="M204,358.8h-28.2c-7.8,0-14.1,6.3-14.1,14.1S168,387,175.8,387H204c7.8,0,14.1-6.3,14.1-14.1
			C218.2,365.2,211.8,358.8,204,358.8z"/>
	</g>
</g>
</svg>