<?xml version="1.0" encoding="utf-8"?>
<!-- Generator: Adobe Illustrator 21.1.0, SVG Export Plug-In . SVG Version: 6.00 Build 0)  -->
<svg version="1.1" id="Layer_1" xmlns="http://www.w3.org/2000/svg" xmlns:xlink="http://www.w3.org/1999/xlink" x="0px" y="0px"
	 viewBox="0 0 580 90.7" style="enable-background:new 0 0 580 90.7;" xml:space="preserve">
<style type="text/css">
	.st0{fill:#FBB11C;}
	.st1{fill:#EA3F34;}
	.st2{fill:#5CB5E6;}
	.st3{fill:#97C556;}
</style>
<g>
	<g>
		<path d="M352.1,52.8v36.3h-3.8V1h34c8.1,0,13.9,2.6,17.9,7.5c4,5,5.9,11.1,5.9,18.4c0,7.3-2,13.4-6,18.4c-4,5-10.1,7.4-18.4,7.4
			H352.1z M352.1,4.9V49h29.5c14.2,0,20.6-9.3,20.6-22c0-6.3-1.7-11.5-5-15.7c-3.2-4.2-8.2-6.4-15-6.4H352.1z"/>
		<path d="M426.5,52.8v36.3h-3.8V1h32.2c8.1,0,13.9,2.6,17.9,7.5c4,5,5.9,11.1,5.9,18.4c0,7.3-2,13.4-6,18.4c-4,5-10.1,7.4-18.4,7.4
			h-3.5l25.7,36.3h-4.6l-25.8-36.3H426.5z M426.5,4.9V49h27.7c14.2,0,20.6-9.3,20.6-22c0-6.3-1.7-11.5-5-15.7
			c-3.2-4.2-8.2-6.4-15-6.4H426.5z"/>
		<path d="M567.1,13.2C575.6,22,580,32.6,580,45.3c0,12.5-4.3,23.1-12.9,32c-8.6,8.8-19,13.2-31.4,13.2c-12.4,0-22.9-4.3-31.4-13.2
			c-8.6-8.8-12.8-19.4-12.8-32c0-12.5,4.2-23.1,12.8-32c8.6-8.8,19-13.3,31.4-13.3C548,0,558.5,4.3,567.1,13.2z M507,74.5
			c7.8,8.1,17.4,12,28.6,12c11.4,0,21-4,28.8-12c7.8-8.1,11.8-17.9,11.8-29.3c0-11.5-4-21.2-11.8-29.3C556.6,7.9,547,3.8,535.6,3.8
			c-11.2,0-20.8,4.1-28.6,12.1c-7.8,8.1-11.8,17.8-11.8,29.3C495.2,56.6,499.2,66.5,507,74.5z"/>
	</g>
	<g>
		<g>
			<path class="st0" d="M77.9,89V36.1L58.2,89H46.3L26.7,36.1V89H0V1h36.8l15.4,42.2L67.7,1h36.8v88H77.9z"/>
		</g>
		<g>
			<path class="st1" d="M112.2,89V67.9l33.5-43.7h-33.5V1h68.7v21l-33.6,43.8h34.6V89H112.2z"/>
		</g>
		<g>
			<path class="st2" d="M186.3,57.2c0-18.5,14.1-33.4,34.7-33.4c18.7,0,33.1,13.5,33.1,35.9v4.9h-43.3c1.3,4.1,5.9,8.1,13.7,8.1
				c3.6,0,11.5-1.7,14.6-4.5l9.8,14.6c-6.3,5.4-17.7,7.9-27.2,7.9C201.9,90.7,186.3,78.2,186.3,57.2z M221,41.9
				c-7.3,0-9.6,4.7-10.4,7.7h21C230.9,46.8,228.6,41.9,221,41.9z"/>
		</g>
		<g>
			<path class="st3" d="M305.2,89v-6.7c-5.4,6.1-11.5,8.3-17.9,8.3c-15.4,0-28.1-11.6-28.1-33.5c0-21.1,12.4-33.4,28.1-33.4
				c6.5,0,12.9,2.2,17.9,8.3V1h23.8v88H305.2z M305.2,65.3V48.9c-2.2-2.8-6.7-4.2-9.9-4.2c-6.5,0-11.9,4.5-11.9,12.4
				c0,7.9,5.4,12.5,11.9,12.5C298.5,69.6,302.9,68,305.2,65.3z"/>
		</g>
	</g>
</g>
</svg>
