<svg width="360" height="727" viewBox="0 0 360 727" fill="none" xmlns="http://www.w3.org/2000/svg">
<g opacity="0.18" clip-path="url(#clip0_0_240)">
<path d="M-680.501 84.3281C-516.508 -4.83869 -465.146 89.6247 -301.153 0.457848C-137.16 -88.709 -188.522 -183.172 -24.5759 -272.313C139.37 -361.455 190.779 -267.017 354.772 -356.184C518.765 -445.351 467.403 -539.814 631.396 -628.981C795.389 -718.147 846.751 -623.684 1010.79 -712.877C1174.83 -802.069 1123.42 -896.507 1287.42 -985.674" stroke="white" stroke-miterlimit="10"/>
<path d="M-269.396 840.43C-105.403 751.263 -54.0415 845.726 109.952 756.559C273.945 667.393 222.583 572.929 386.529 483.788C550.474 394.647 601.884 489.085 765.877 399.918C929.87 310.751 878.508 216.288 1042.5 127.121C1206.49 37.9541 1257.86 132.417 1421.9 43.2249C1585.94 -45.9675 1534.53 -140.405 1698.52 -229.572" stroke="white" stroke-miterlimit="10"/>
<path d="M-474.949 462.385C-310.956 373.218 -259.594 467.681 -95.6012 378.514C68.3919 289.348 17.03 194.884 180.976 105.743C344.922 16.602 396.331 111.04 560.324 21.8729C724.317 -67.2939 672.955 -161.757 836.948 -250.924C1000.94 -340.091 1052.3 -245.628 1216.34 -334.82C1380.38 -424.012 1328.97 -518.45 1492.97 -607.617" stroke="white" stroke-miterlimit="10"/>
<path d="M-63.8457 1218.48C100.147 1129.31 151.614 1223.97 315.607 1134.8C479.6 1045.63 428.134 950.976 592.079 861.835C756.025 772.694 807.539 867.324 971.532 778.157C1135.52 688.99 1084.06 594.335 1248.05 505.168C1412.04 416.001 1463.51 510.656 1627.55 421.464C1791.59 332.271 1740.08 237.642 1904.07 148.475" stroke="white" stroke-miterlimit="10"/>
<path d="M218.854 1738.41C382.848 1649.24 434.209 1743.7 598.203 1654.54C762.196 1565.37 710.834 1470.91 874.78 1381.77C1038.73 1292.63 1090.13 1387.06 1254.13 1297.9C1418.12 1208.73 1366.76 1114.27 1530.75 1025.1C1694.74 935.933 1746.11 1030.4 1910.15 941.203C2074.19 852.011 2022.78 757.573 2186.77 668.406" stroke="white" stroke-miterlimit="10"/>
<path d="M-577.777 273.256C-413.784 184.089 -362.318 278.744 -198.325 189.578C-34.3318 100.411 -85.7981 5.75542 78.1477 -83.3857C242.094 -172.527 293.607 -77.8972 457.6 -167.064C621.593 -256.231 570.127 -350.886 734.12 -440.053C898.113 -529.22 949.579 -434.564 1113.62 -523.757C1277.66 -612.949 1226.15 -707.579 1390.14 -796.746" stroke="white" stroke-miterlimit="10"/>
<path d="M-166.568 1029.55C-2.5753 940.382 48.7866 1034.85 212.78 945.679C376.773 856.512 325.411 762.048 489.357 672.907C653.303 583.766 704.712 678.204 868.705 589.037C1032.7 499.87 981.336 405.407 1145.33 316.24C1309.32 227.073 1360.68 321.537 1524.72 232.344C1688.76 143.152 1637.36 48.7139 1801.35 -40.4529" stroke="white" stroke-miterlimit="10"/>
<path d="M-372.121 651.502C-208.128 562.335 -156.766 656.798 7.22693 567.632C171.22 478.465 119.858 384.002 283.804 294.86C447.75 205.719 499.159 300.157 663.152 210.99C827.145 121.823 775.783 27.36 939.776 -61.8069C1103.77 -150.974 1155.13 -56.5103 1319.17 -145.703C1483.21 -234.895 1431.8 -329.333 1595.8 -418.5" stroke="white" stroke-miterlimit="10"/>
<path d="M38.9834 1407.6C202.976 1318.43 254.338 1412.89 418.331 1323.73C582.324 1234.56 530.963 1140.1 694.908 1050.95C858.854 961.813 910.263 1056.25 1074.26 967.084C1238.25 877.917 1186.89 783.454 1350.88 694.287C1514.87 605.12 1566.24 699.583 1730.28 610.391C1894.32 521.198 1842.91 426.761 2006.9 337.594" stroke="white" stroke-miterlimit="10"/>
<path d="M-629.141 178.793C-465.148 89.6262 -413.786 184.09 -249.793 94.9227C-85.7995 5.75588 -137.161 -88.7075 26.7845 -177.849C190.73 -266.99 242.139 -172.552 406.132 -261.719C570.126 -350.886 518.764 -445.349 682.757 -534.516C846.75 -623.683 898.112 -529.219 1062.15 -618.412C1226.19 -707.604 1174.78 -802.042 1338.78 -891.209" stroke="white" stroke-miterlimit="10"/>
<path d="M-218.035 934.893C-54.0421 845.726 -2.57577 940.381 161.417 851.214C325.41 762.048 273.944 667.392 437.89 578.251C601.836 489.11 653.349 583.74 817.342 494.573C981.335 405.406 929.869 310.751 1093.86 221.584C1257.86 132.417 1309.32 227.072 1473.36 137.88C1637.4 48.6874 1585.89 -45.9423 1749.88 -135.109" stroke="white" stroke-miterlimit="10"/>
<path d="M-423.587 556.846C-259.594 467.679 -208.128 562.334 -44.1345 473.167C119.859 384.001 68.3923 289.345 232.338 200.204C396.284 111.063 447.798 205.693 611.791 116.526C775.784 27.3591 724.317 -67.2963 888.31 -156.463C1052.3 -245.63 1103.77 -150.975 1267.81 -240.167C1431.85 -329.359 1380.34 -423.989 1544.33 -513.156" stroke="white" stroke-miterlimit="10"/>
<path d="M-12.3789 1313.13C151.614 1223.96 202.976 1318.43 366.969 1229.26C530.962 1140.09 479.6 1045.63 643.546 956.489C807.492 867.348 858.901 961.786 1022.89 872.619C1186.89 783.452 1135.53 688.989 1299.52 599.822C1463.51 510.655 1514.87 605.119 1678.91 515.926C1842.95 426.734 1791.54 332.296 1955.54 243.129" stroke="white" stroke-miterlimit="10"/>
<path d="M-526.311 367.912C-362.317 278.745 -310.956 373.209 -146.963 284.042C17.0305 194.875 -34.3313 100.412 129.615 11.2705C293.56 -77.8706 344.969 16.567 508.963 -72.5998C672.956 -161.767 621.594 -256.23 785.587 -345.397C949.58 -434.564 1000.94 -340.1 1164.98 -429.293C1329.02 -518.485 1277.61 -612.923 1441.61 -702.09" stroke="white" stroke-miterlimit="10"/>
<path d="M-115.207 1124.01C48.786 1034.85 100.148 1129.31 264.141 1040.14C428.134 950.977 376.772 856.513 540.718 767.372C704.664 678.231 756.073 772.669 920.066 683.502C1084.06 594.335 1032.7 499.872 1196.69 410.705C1360.68 321.538 1412.05 416.001 1576.09 326.809C1740.13 237.616 1688.72 143.179 1852.71 54.0119" stroke="white" stroke-miterlimit="10"/>
<path d="M167.492 1643.95C331.485 1554.78 382.847 1649.24 546.84 1560.08C710.833 1470.91 659.471 1376.45 823.417 1287.31C987.363 1198.16 1038.77 1292.6 1202.77 1203.44C1366.76 1114.27 1315.4 1019.81 1479.39 930.638C1643.38 841.472 1694.74 935.935 1858.78 846.743C2022.82 757.55 1971.42 663.112 2135.41 573.946" stroke="white" stroke-miterlimit="10"/>
<path d="M-320.759 745.967C-156.766 656.8 -105.404 751.263 58.5892 662.097C222.582 572.93 171.22 478.466 335.166 389.325C499.112 300.184 550.521 394.622 714.514 305.455C878.507 216.288 827.145 121.825 991.138 32.658C1155.13 -56.5088 1206.49 37.9545 1370.53 -51.238C1534.57 -140.43 1483.16 -234.868 1647.16 -324.035" stroke="white" stroke-miterlimit="10"/>
<path d="M90.3447 1502.06C254.338 1412.89 305.7 1507.36 469.693 1418.19C633.686 1329.02 582.324 1234.56 746.27 1145.42C910.216 1056.28 961.625 1150.71 1125.62 1061.55C1289.61 972.38 1238.25 877.917 1402.24 788.75C1566.24 699.583 1617.6 794.046 1781.64 704.854C1945.68 615.661 1894.27 521.224 2058.26 432.057" stroke="white" stroke-miterlimit="10"/>
<path d="M-654.82 131.561C-490.827 42.3937 -439.465 136.857 -275.472 47.6903C-111.479 -41.4765 -162.841 -135.94 1.10477 -225.081C165.051 -314.222 216.46 -219.785 380.453 -308.951C544.446 -398.118 493.084 -492.581 657.077 -581.748C821.07 -670.915 872.432 -576.452 1036.47 -665.644C1200.51 -754.837 1149.1 -849.274 1313.1 -938.441" stroke="white" stroke-miterlimit="10"/>
<path d="M-243.716 887.66C-79.7228 798.493 -28.2564 893.149 135.737 803.982C299.73 714.815 248.263 620.16 412.209 531.019C576.155 441.877 627.669 536.507 791.662 447.34C955.655 358.174 904.188 263.518 1068.18 174.351C1232.17 85.1845 1283.64 179.84 1447.68 90.6474C1611.72 1.45497 1560.21 -93.1748 1724.2 -182.342" stroke="white" stroke-miterlimit="10"/>
<path d="M-449.268 509.615C-285.275 420.448 -233.913 514.912 -69.9196 425.745C94.0735 336.578 42.7116 242.115 206.658 152.974C370.603 63.8325 422.012 158.27 586.006 69.1034C749.999 -20.0635 698.637 -114.527 862.63 -203.694C1026.62 -292.86 1077.98 -198.397 1242.02 -287.59C1406.07 -376.782 1354.66 -471.22 1518.65 -560.386" stroke="white" stroke-miterlimit="10"/>
<path d="M-38.1641 1265.71C125.829 1176.54 177.295 1271.2 341.288 1182.03C505.281 1092.86 453.815 998.207 617.761 909.065C781.707 819.924 833.22 914.554 997.213 825.387C1161.21 736.22 1109.74 641.565 1273.73 552.398C1437.73 463.231 1489.19 557.887 1653.23 468.694C1817.27 379.502 1765.76 284.872 1929.75 195.705" stroke="white" stroke-miterlimit="10"/>
<path d="M244.535 1785.64C408.528 1696.48 459.89 1790.94 623.883 1701.77C787.876 1612.61 736.514 1518.14 900.46 1429C1064.41 1339.86 1115.82 1434.3 1279.81 1345.13C1443.8 1255.96 1392.44 1161.5 1556.43 1072.33C1720.43 983.167 1771.79 1077.63 1935.83 988.438C2099.87 899.245 2048.46 804.808 2212.45 715.641" stroke="white" stroke-miterlimit="10"/>
<path d="M-551.992 320.68C-387.999 231.513 -336.637 325.976 -172.644 236.809C-8.6511 147.643 -60.013 53.1792 103.933 -35.9619C267.879 -125.103 319.288 -30.6654 483.281 -119.832C647.274 -208.999 595.912 -303.462 759.905 -392.629C923.898 -481.796 975.26 -387.333 1139.3 -476.525C1303.34 -565.718 1251.93 -660.155 1415.92 -749.322" stroke="white" stroke-miterlimit="10"/>
<path d="M-140.888 1076.78C23.1054 987.612 74.4673 1082.08 238.46 992.909C402.453 903.742 351.092 809.279 515.037 720.138C678.983 630.997 730.392 725.434 894.385 636.267C1058.38 547.101 1007.02 452.637 1171.01 363.47C1335 274.304 1386.36 368.767 1550.4 279.575C1714.45 190.382 1663.04 95.9444 1827.03 6.77756" stroke="white" stroke-miterlimit="10"/>
<path d="M141.707 1596.52C305.7 1507.35 357.166 1602.01 521.159 1512.84C685.153 1423.68 633.686 1329.02 797.632 1239.88C961.578 1150.74 1013.09 1245.37 1177.08 1156.2C1341.08 1067.03 1289.61 972.379 1453.6 883.213C1617.6 794.046 1669.06 888.701 1833.1 799.509C1997.14 710.316 1945.63 615.687 2109.62 526.52" stroke="white" stroke-miterlimit="10"/>
<path d="M-346.439 698.734C-182.446 609.568 -131.084 704.031 32.9086 614.864C196.902 525.697 145.54 431.234 309.486 342.093C473.432 252.952 524.841 347.389 688.834 258.222C852.827 169.056 801.465 74.5924 965.458 -14.5744C1129.45 -103.741 1180.81 -9.27792 1344.85 -98.4704C1508.89 -187.663 1457.48 -282.101 1621.48 -371.267" stroke="white" stroke-miterlimit="10"/>
<path d="M64.6641 1454.83C228.657 1365.66 280.019 1460.12 444.012 1370.96C608.005 1281.79 556.643 1187.33 720.589 1098.19C884.535 1009.05 935.944 1103.48 1099.94 1014.32C1263.93 925.149 1212.57 830.686 1376.56 741.519C1540.55 652.353 1591.92 746.816 1755.96 657.623C1920 568.431 1868.59 473.993 2032.58 384.826" stroke="white" stroke-miterlimit="10"/>
<path d="M-603.459 226.023C-439.466 136.857 -388 231.512 -224.007 142.345C-60.0135 53.1784 -111.48 -41.477 52.4661 -130.618C216.412 -219.759 267.925 -125.13 431.919 -214.296C595.912 -303.463 544.445 -398.119 708.438 -487.285C872.431 -576.452 923.898 -481.797 1087.94 -570.989C1251.98 -660.182 1200.46 -754.811 1364.46 -843.978" stroke="white" stroke-miterlimit="10"/>
<path d="M-192.25 982.316C-28.2569 893.15 23.105 987.613 187.098 898.446C351.091 809.279 299.729 714.816 463.675 625.675C627.621 536.534 679.03 630.971 843.023 541.805C1007.02 452.638 955.654 358.174 1119.65 269.008C1283.64 179.841 1335 274.304 1499.04 185.112C1663.08 95.9192 1611.67 1.48148 1775.67 -87.6853" stroke="white" stroke-miterlimit="10"/>
<path d="M-397.906 604.078C-233.913 514.911 -182.447 609.567 -18.4538 520.4C145.539 431.233 94.073 336.578 258.019 247.437C421.965 158.295 473.478 252.925 637.471 163.758C801.464 74.5915 749.998 -20.0639 913.991 -109.231C1077.98 -198.397 1129.45 -103.742 1293.49 -192.935C1457.53 -282.127 1406.02 -376.757 1570.01 -465.924" stroke="white" stroke-miterlimit="10"/>
<path d="M13.3027 1360.36C177.296 1271.2 228.658 1365.66 392.651 1276.49C556.644 1187.33 505.282 1092.86 669.228 1003.72C833.174 914.581 884.583 1009.02 1048.58 919.851C1212.57 830.685 1161.21 736.221 1325.2 647.054C1489.19 557.888 1540.56 652.351 1704.6 563.159C1868.64 473.966 1817.23 379.528 1981.22 290.362" stroke="white" stroke-miterlimit="10"/>
<path d="M-500.63 415.152C-336.637 325.986 -285.275 420.449 -121.282 331.282C42.7112 242.115 -8.65068 147.652 155.295 58.5107C319.241 -30.6304 370.65 63.8073 534.643 -25.3595C698.636 -114.526 647.274 -208.99 811.267 -298.156C975.26 -387.323 1026.62 -292.86 1190.66 -382.052C1354.7 -471.245 1303.29 -565.683 1467.29 -654.849" stroke="white" stroke-miterlimit="10"/>
<path d="M-89.5264 1171.24C74.4667 1082.08 125.829 1176.54 289.822 1087.37C453.815 998.207 402.453 903.744 566.399 814.603C730.345 725.461 781.754 819.899 945.747 730.732C1109.74 641.565 1058.38 547.102 1222.37 457.935C1386.36 368.769 1437.73 463.232 1601.77 374.039C1765.81 284.847 1714.4 190.409 1878.39 101.242" stroke="white" stroke-miterlimit="10"/>
<path d="M193.173 1691.18C357.166 1602.01 408.528 1696.47 572.521 1607.31C736.514 1518.14 685.152 1423.68 849.098 1334.54C1013.04 1245.39 1064.45 1339.83 1228.45 1250.67C1392.44 1161.5 1341.08 1067.04 1505.07 977.869C1669.06 888.702 1720.43 983.165 1884.47 893.973C2048.51 804.781 1997.1 710.343 2161.09 621.176" stroke="white" stroke-miterlimit="10"/>
<path d="M-295.078 793.199C-131.085 704.032 -79.7232 798.496 84.2699 709.329C248.263 620.162 196.901 525.699 360.847 436.558C524.793 347.416 576.202 441.854 740.195 352.687C904.188 263.521 852.826 169.057 1016.82 79.8904C1180.81 -9.2764 1232.17 85.1869 1396.21 -4.00555C1560.25 -93.198 1508.85 -187.636 1672.84 -276.803" stroke="white" stroke-miterlimit="10"/>
<path d="M116.026 1549.29C280.019 1460.12 331.486 1554.78 495.479 1465.61C659.472 1376.45 608.006 1281.79 771.951 1192.65C935.897 1103.51 987.411 1198.14 1151.4 1108.97C1315.4 1019.8 1263.93 925.149 1427.92 835.982C1591.92 746.815 1643.38 841.471 1807.42 752.278C1971.46 663.086 1919.95 568.456 2083.94 479.289" stroke="white" stroke-miterlimit="10"/>
</g>
<defs>
<clipPath id="clip0_0_240">
<rect width="360" height="726" fill="white" transform="translate(0 0.421875)"/>
</clipPath>
</defs>
</svg>
