<?xml version="1.0" encoding="utf-8"?>
<!-- Generator: Adobe Illustrator 25.0.1, SVG Export Plug-In . SVG Version: 6.00 Build 0)  -->
<svg version="1.1" id="Layer_1" xmlns="http://www.w3.org/2000/svg" xmlns:xlink="http://www.w3.org/1999/xlink" x="0px" y="0px"
	 viewBox="0 0 336.4 159.6" style="enable-background:new 0 0 336.4 159.6;" xml:space="preserve">
<style type="text/css">
	.st0{fill:#FFFFFF;}
</style>
<g id="warm_grey_10_on_white">
	<circle class="st0" cx="292.7" cy="21.3" r="21.3"/>
	<path class="st0" d="M72.7,37.7v53.5h0.2c2.4-9.3,6-13.7,11.2-13.7c8.1,0,18.8,12.7,18.8,41.1c0,14.9-6.1,40.4-18.8,40.4
		c-4.8,0-9.7-5.3-11.6-15.5h-0.2v13.3H29.7v-3.1H37l-6.3-35.2H14.2l-4,23.9c-0.3,1.7-0.5,3.4-0.6,5.1c0,5.6,2.3,6.2,4,6.2h2.3v3.1H0
		v-3.1h2c3.1-0.5,3.7-4.5,4.7-10.1l19.2-109h2.8l22,119.1h9.9V40.9h-6.1v-3.3L72.7,37.7L72.7,37.7z M30,115.5L22.6,71l-0.3,1.7
		l-7.5,42.9L30,115.5z M72.7,130.9c0,15.8,5,23.9,9.3,23.9c4.8,0,7.8-5.6,7.8-23.7V109c0-22.9-3.4-28.3-7.5-28.3
		c-5.9,0-9.6,13.4-9.6,23.2V130.9z M121.2,113.6v15.1c0,11.9,0.9,25.5,8.9,25.5c6.7,0,11.8-10.1,13.7-26.4h1.6
		c-1.9,17.3-7.2,30.6-17.8,30.6c-11.1,0-19.3-17-19.3-39.7c0-23.6,8.8-41.5,19-41.5c9.1-0.4,17.7,17.5,17.8,36.3L121.2,113.6
		L121.2,113.6z M132.1,110.3V95.8c0-9.6-1.3-15.4-5.5-15.4c-2.9,0-5.4,3.7-5.4,15.4v14.5H132.1z M163.6,37.7v116.1h6v3.1h-23.9v-3.2
		h5.9V41h-5.9v-3.3H163.6z"/>
	<path class="st0" d="M224.8,156.9v-3.1h6V83.5h-6v-3.2h17.9v73.5H254V83.5h-6v-3.1l17.9-0.1v13.8h0.2c2.3-10.2,8-16.3,13.8-16.3
		c8.2,0,12.2,8.2,12.2,27.1v48.9h6v3.1h-22.9v-3.1h4.9V98.5c0-12.3-2.6-14.4-5.1-14.4c-4.8,0-9.2,12.8-9.2,21.7v48h5.1v3.1
		L224.8,156.9z"/>
	<path class="st0" d="M312.2,113.6v14.9c0,11.9,0.9,25.5,8.9,25.5c6.7,0,11.8-10.1,13.7-26.4h1.6c-1.9,17.3-7.2,30.6-17.8,30.6
		c-11.1,0-19.3-17-19.3-39.7c0-23.6,8.8-41.5,19-41.5c9.1-0.4,17.7,17.6,17.8,36.5L312.2,113.6z M323.1,110.3V95.6
		c0-9.6-1.3-15.4-5.4-15.4c-2.9,0-5.4,3.7-5.4,15.4v14.7H323.1z"/>
	<path class="st0" d="M210.5,40c3.4,3.8,6.9,2.6,6.9-0.7v-1.7h3.1V77H219c-1.4-17.3-8.7-39.3-18.6-39.3c-8.7,0-13.9,16.1-13.9,59.4
		c0,41.3,3.8,59.4,13.7,59.4c11.5,0,19.3-23.1,19.5-41.2h1.6c0,8.1-2.6,44.6-22.1,44.3c-17.1-0.2-27.1-30.1-27.1-60.5
		c0-30.2,10.7-64.5,28.4-64.5C204,34.7,207.5,37.6,210.5,40"/>
	<ellipse class="st0" cx="236.7" cy="64.2" rx="8.1" ry="8.1"/>
	<path class="st0" d="M286.4,37.6c0,8.2-6.7,14.9-14.9,14.9c-8.2,0-14.9-6.7-14.9-14.9s6.7-14.9,14.9-14.9
		C279.7,22.8,286.4,29.4,286.4,37.6L286.4,37.6z"/>
	<path class="st0" d="M271.6,22.8c0.6,8.5,6.2,15.9,14.3,18.7c0.3-1.2,0.5-2.5,0.5-3.8C286.4,29.5,279.8,22.8,271.6,22.8z"/>
</g>
</svg>
