<?xml version="1.0" encoding="UTF-8"?>
<svg width="104px" height="30px" viewBox="0 0 104 30" version="1.1" xmlns="http://www.w3.org/2000/svg" xmlns:xlink="http://www.w3.org/1999/xlink">
    <title>ARRI_Logo_Color_4C</title>
    <g id="Desktop" stroke="none" stroke-width="1" fill="none" fill-rule="evenodd">
        <g id="Desktop-WIP" transform="translate(-566.000000, -892.000000)" fill="#FFFFFF">
            <g id="ARRI_Logo_Color_4C" transform="translate(566.000000, 892.000000)">
                <path d="M95.5067626,0 C90.8338195,0 87,2.69541183 87,6.00055279 C87,9.30514096 90.8338195,12 95.5067626,12 C100.16449,12 104,9.30514096 104,6.00055279 C104,2.69541183 100.16449,0 95.5067626,0 Z M95.5,11.6119403 C91.1375721,11.6119403 87.5505868,9.08402432 87.5505868,6.00829187 C87.5505868,2.91597568 91.1375721,0.388059701 95.5,0.388059701 C99.8624279,0.388059701 103.448286,2.91597568 103.448286,6.00829187 C103.448286,9.08402432 99.8624279,11.6119403 95.5,11.6119403 L95.5,11.6119403 Z" id="Fill-1"></path>
                <path d="M100,2 C100.606807,2.2559869 101.410697,2.69209252 101.893031,3.1576721 C101.678444,3.1729549 101.553971,3.1729549 101.553971,3.53428396 L101.553971,8.39093948 C101.553971,8.63164358 101.803566,8.69222897 102,8.75172273 C101.571475,9.20256533 100.928363,9.63867094 100.142626,10 C100.481686,9.26369653 100.375365,8.93238726 100.410373,8.02961043 C100.410373,6.70655659 100.410373,5.36876578 100.410373,4.06099475 C100.410373,2.55727639 100.035656,2.04530259 100,2" id="Fill-2"></path>
                <path d="M95.5521998,8.7080455 L95.5521998,7.36614664 C95.5521998,6.35589162 94.9121533,6.12987032 94.4004646,5.91862523 C95.2164948,5.42170673 95.7281835,4.7124486 95.7601278,4.0792606 C95.792072,3.46194334 95.8240163,2.88786018 95.7601278,2.25521944 C95.7281835,1.69755429 95.5202556,1.42610983 95.0881371,1.18476505 C94.8964716,1.04959008 94.4324089,0.958743747 93.9840279,1.01894312 C93.3439814,1.12456567 92.6719907,1.24496443 92,1.48685647 C92.3200232,1.75775367 92.2561347,2.16546764 92.2561347,2.49711149 L92.2561347,9.5223789 C92.2561347,10.0198447 92.1759837,10.3213888 92.0319442,10.5173104 C92.7039349,10.7285555 93.0721649,10.8495016 93.7441557,10.9239299 C93.4241324,10.1550196 93.3439814,9.85402275 93.3439814,9.11575947 L93.3439814,6.11509411 L93.7441557,6.11509411 C93.8881952,6.11509411 94.1919559,6.16051727 94.2244809,6.25026907 C94.4480906,6.41663826 94.4004646,7.03450279 94.4004646,7.53196856 L94.4004646,9.08511251 C94.4324089,9.95964529 94.4480906,10.245866 95.0405111,11 C95.2960651,10.9239299 95.9680558,10.622933 96,9.28048686 C95.584144,9.14531189 95.5521998,9.01013692 95.5521998,8.7080455 Z M93.7760999,5.72325088 C93.6802672,5.72325088 93.4241324,5.72325088 93.3602439,5.72325088 L93.3602439,2.1495969 C93.3602439,1.74297746 93.5681719,1.29093486 93.9677654,1.29093486 C94.4324089,1.29093486 94.5764484,1.74297746 94.5445041,2.1495969 L94.5445041,4.96911686 C94.5119791,5.31608418 94.1919559,5.70738014 93.7760999,5.72325088 L93.7760999,5.72325088 Z" id="Fill-3"></path>
                <path d="M99.6505658,8.24781659 L99.6505658,7.16593886 C99.6505658,6.50382096 99.0725918,6.12772926 98.7375104,5.90229258 C98.9660502,5.69159389 99.3767596,5.57150655 99.5589291,5.13537118 C99.8934585,4.23253275 99.9547336,2.87936681 99.4827491,2.05240175 C99.0416782,1.34606987 97.384488,1 96.2130831,1 C96.3350814,1.10534934 96.5327077,1.34606987 96.5327077,1.88700873 L96.5327077,9.25545852 C96.5327077,9.69159389 96.4719845,10.4585153 96,11 C96.6999724,11 97.5512007,10.7893013 98.0993652,10.6539301 C97.6582942,10.2183406 97.5821143,10.1129913 97.5821143,9.34606987 L97.5821143,6.12772926 L98.0684516,6.12772926 C98.4333425,6.12772926 98.6006072,6.29312227 98.6006072,6.69923581 L98.6006072,7.13537118 L98.6315208,8.93995633 C98.6613304,9.39082969 99.2089429,9.88755459 99.5440243,10.1572052 C99.8481921,9.69159389 100,9.22598253 100,8.74399563 C99.7869169,8.65447598 99.6809274,8.54858079 99.6505658,8.24781659 Z M98.692244,5.01528384 C98.6613304,5.34606987 98.3577146,5.69159389 97.962462,5.72106987 C97.8708253,5.72106987 97.6279327,5.72106987 97.5666575,5.72106987 L97.5666575,2.42849345 C97.5666575,2.05240175 97.7339222,1.51146288 98.1291747,1.51146288 C98.5553409,1.51146288 98.692244,2.0371179 98.692244,2.42849345 L98.692244,5.01528384 L98.692244,5.01528384 Z" id="Fill-4"></path>
                <path d="M89.8632862,9.19412171 C89.8632862,9.47447089 89.6908986,9.91025561 89.4030634,10.0662564 C89.9207488,10.4398669 90.5251504,10.8293035 91,11 C90.9425374,10.7207813 90.8850749,10.781825 90.8563436,8.74251083 L90.8563436,3.82170445 C90.8850749,2.24926207 90.9138062,2.29561012 90.9858956,2 C90.4964191,2.18765308 90.0503007,2.45161088 89.6041824,2.74778622 C89.8199281,2.80939521 89.8491818,2.90322175 89.7337343,3.05922251 C89.1152283,4.13370596 88.4528418,5.16071092 88.0929173,6.65628336 C87.9064252,7.49676568 87.9633653,8.69616278 88.611125,9.42755762 C88.8273932,9.64573259 89.1585864,9.61464548 89.3738098,9.28738303 C89.5895555,8.91377253 89.5613467,8.07272499 89.5033617,8.0422031 C89.4464216,8.11963826 89.3168696,8.18181247 89.1585864,8.15129059 C89.0144076,8.08798593 88.9856764,8.11963826 88.8561244,7.87037619 C88.7406769,7.5589399 88.6978412,7.24806883 88.6978412,6.59354393 L89.8632862,6.59354393 L89.8632862,9.19412171 Z M89.8491818,6.2668467 L88.7406769,6.2668467 C88.7986619,5.65923507 88.8702289,5.41053822 89.0577657,4.95836212 C89.2447802,4.50675124 89.4464216,4.19588017 89.8491818,3.47918106 L89.8491818,6.2668467 L89.8491818,6.2668467 Z" id="Fill-5"></path>
                <path d="M20.6265601,0 L0,29.9687651 L8.60412284,29.9687651 L11.7447763,25.545681 L20.6574113,25.545681 L20.6731174,30 L28,30 L28,0 L20.6265601,0 Z M16.1009676,19.4236418 L20.6568504,12.8732384 L20.6574113,19.4241996 L16.1009676,19.4236418 L16.1009676,19.4236418 Z" id="Fill-6"></path>
                <path d="M76.2570218,0.00389783948 L76.2721273,29.2822407 L69.7168906,19.2725889 C73.5855824,17.1343455 74.7984998,14.123543 74.9674579,9.66218724 C74.8908113,7.03337293 73.846852,3.85496325 71.7281628,2.220098 C68.7490183,0.00389783948 65.2188021,0.00389783948 61.6869075,0.00389783948 L53.1203987,0.00389783948 L53.1052931,29.1903631 L46.611038,19.2725889 C50.4797298,17.1343455 51.7385232,14.1847947 51.9074813,9.72232534 C51.8308347,7.09462469 50.7409994,3.85496325 48.6223102,2.220098 C45.6437252,0.00389783948 42.11239,0.00389783948 38.5816144,0.00389783948 L30.0145461,0.00389783948 L30,29.9855223 L37.9365527,29.9844086 L37.9214471,20.8929765 L44.3390557,29.9844086 L61.0272998,30 L61.0272998,20.8929765 L67.4443489,29.9844086 L83.9949648,29.9844086 L84,0 L76.2570218,0.00389783948 Z M42.128055,13.3289405 C41.1299717,13.4976613 40.0709068,13.5126958 37.8906766,13.4820699 L37.8906766,6.89639171 C39.9942603,6.88080036 41.0992012,6.83458312 42.0357435,7.09462469 C42.9879508,7.35466627 43.8316221,8.57691737 43.9395986,10.3031034 C43.8629521,11.9847427 43.1261384,13.1457421 42.128055,13.3289405 Z M65.2188021,13.3289405 C64.2207188,13.4976613 63.1610945,13.5126958 60.9814237,13.4820699 L60.9814237,6.89639171 C63.0844479,6.88080036 64.1899483,6.83458312 65.1264906,7.09462469 C66.0781384,7.35466627 66.9223692,8.57691737 67.0297863,10.3031034 C66.9536992,11.9847427 66.216326,13.1457421 65.2188021,13.3289405 L65.2188021,13.3289405 Z" id="Fill-7"></path>
            </g>
        </g>
    </g>
</svg>