<svg id="Layer_1" data-name="Layer 1" xmlns="http://www.w3.org/2000/svg" viewBox="0 0 313.36 104.32"><defs><style>.cls-1{fill:#fff;}</style></defs><path class="cls-1" d="M566.33,318.66H552.51a9.22,9.22,0,0,0-9.2,9.21v13.82a9.22,9.22,0,0,0,9.2,9.21h13.82a9.22,9.22,0,0,0,9.21-9.21V327.87A9.22,9.22,0,0,0,566.33,318.66Zm5.21,23a5.22,5.22,0,0,1-5.21,5.21H552.51a5.21,5.21,0,0,1-5.2-5.21V327.87a5.21,5.21,0,0,1,5.2-5.21h13.82a5.22,5.22,0,0,1,5.21,5.21Z" transform="translate(-262.18 -246.58)"/><path class="cls-1" d="M566.33,282.58H552.51a9.21,9.21,0,0,0-9.2,9.2v13.83a9.21,9.21,0,0,0,9.2,9.2h13.82a9.22,9.22,0,0,0,9.21-9.2V291.78A9.22,9.22,0,0,0,566.33,282.58Zm5.21,23a5.22,5.22,0,0,1-5.21,5.2H552.51a5.21,5.21,0,0,1-5.2-5.2V291.78a5.2,5.2,0,0,1,5.2-5.2h13.82a5.21,5.21,0,0,1,5.21,5.2Z" transform="translate(-262.18 -246.58)"/><path class="cls-1" d="M566.33,246.58H552.51a9.21,9.21,0,0,0-9.2,9.2v13.83a9.21,9.21,0,0,0,9.2,9.2h13.82a9.22,9.22,0,0,0,9.21-9.2V255.78A9.22,9.22,0,0,0,566.33,246.58Zm5.21,23a5.22,5.22,0,0,1-5.21,5.2H552.51a5.21,5.21,0,0,1-5.2-5.2V255.78a5.2,5.2,0,0,1,5.2-5.2h13.82a5.21,5.21,0,0,1,5.21,5.2Z" transform="translate(-262.18 -246.58)"/><path class="cls-1" d="M274.13,294c2.88-1.56,4.33-3.79,4.33-6.69a7,7,0,0,0-2.55-5.71q-2.54-2.07-7.47-2.07h-6.26v30.07H271a11.52,11.52,0,0,0,7.38-2.16,7.05,7.05,0,0,0,2.72-5.82Q281.08,295.55,274.13,294Zm-9.64-12.54h3.15q8.3,0,8.3,6t-8.22,6h-3.23Zm12.1,24.56a9,9,0,0,1-5.87,1.66h-6.23V295.46h5.22q8.88,0,8.88,6.17A5.43,5.43,0,0,1,276.59,306.06Z" transform="translate(-262.18 -246.58)"/><polygon class="cls-1" points="21.88 32.99 21.88 63.06 24.01 63.06 24.01 32.99 21.88 32.99 21.88 32.99"/><path class="cls-1" d="M303.86,308c-.32,0-.48-.34-.48-1V294.62a4.56,4.56,0,0,0-1.74-3.85,7.13,7.13,0,0,0-4.43-1.33,12.13,12.13,0,0,0-6.39,2.11v2.17a10.13,10.13,0,0,1,6-2.53c2.92,0,4.39,1.36,4.39,4.06v2.53c-3.7.18-6.54.9-8.53,2.14a5.77,5.77,0,0,0-3,5.11,4.78,4.78,0,0,0,1.54,3.57,5.31,5.31,0,0,0,3.79,1.46,10,10,0,0,0,6.19-2.45,5.27,5.27,0,0,0,.41,2,1.06,1.06,0,0,0,1,.48q1.27,0,4-2.05v-1.76C305.2,307.42,304.26,308,303.86,308Zm-2.61-2.25a8.28,8.28,0,0,1-5.51,2.56,4.11,4.11,0,0,1-2.79-.95,2.93,2.93,0,0,1-1.12-2.33,4.66,4.66,0,0,1,2.68-4.06,12.11,12.11,0,0,1,6.74-1.44Z" transform="translate(-262.18 -246.58)"/><path class="cls-1" d="M317.32,289.44a8.91,8.91,0,0,0-6.9,3,10.93,10.93,0,0,0-2.7,7.65,9.93,9.93,0,0,0,2.68,7.24,9.28,9.28,0,0,0,7,2.76,16.93,16.93,0,0,0,5.5-1v-2.21a13.91,13.91,0,0,1-5.32,1.16,7.28,7.28,0,0,1-5.56-2.21,8.4,8.4,0,0,1-2.07-6,8.65,8.65,0,0,1,2.07-6,6.93,6.93,0,0,1,5.39-2.31,12.81,12.81,0,0,1,5.14,1.26v-2.35a16.93,16.93,0,0,0-5.24-1Z" transform="translate(-262.18 -246.58)"/><polygon class="cls-1" points="63.56 32.99 63.56 63.06 65.66 63.06 65.66 32.99 63.56 32.99 63.56 32.99"/><polygon class="cls-1" points="76.9 43.25 65.98 52.67 78.48 63.06 81.38 63.06 68.86 52.66 79.7 43.25 76.9 43.25 76.9 43.25"/><path class="cls-1" d="M343.51,289.83v19.81h2.1V295.75q2.53-4.25,6-4.24a4.57,4.57,0,0,1,3.79,1.78,8,8,0,0,1,1.41,5.07v11.28h2.14v-13.5a13.27,13.27,0,0,1,2.79-3.53,4.9,4.9,0,0,1,3.18-1.1,4.44,4.44,0,0,1,3.81,1.84,8.39,8.39,0,0,1,1.35,5v11.24h2.1V297.48a8.65,8.65,0,0,0-1.89-5.84,6.21,6.21,0,0,0-5-2.2q-4.08,0-6.87,4.76-1.86-4.76-6.41-4.76c-2.6,0-4.71,1.3-6.32,3.88h-.09v-3.49Z" transform="translate(-262.18 -246.58)"/><path class="cls-1" d="M389.44,308c-.32,0-.47-.34-.47-1V294.62a4.56,4.56,0,0,0-1.75-3.85,7.13,7.13,0,0,0-4.43-1.33,12.15,12.15,0,0,0-6.39,2.11v2.17a10.13,10.13,0,0,1,6-2.53c2.93,0,4.39,1.36,4.39,4.06v2.53c-3.69.18-6.54.9-8.53,2.14a5.77,5.77,0,0,0-3,5.11,4.75,4.75,0,0,0,1.55,3.57,5.27,5.27,0,0,0,3.78,1.46,10,10,0,0,0,6.19-2.45,5.48,5.48,0,0,0,.41,2,1.08,1.08,0,0,0,1,.48c.85,0,2.18-.68,4-2.05v-1.76C390.78,307.42,389.84,308,389.44,308Zm-2.61-2.25a8.26,8.26,0,0,1-5.5,2.56,4.15,4.15,0,0,1-2.8-.95,3,3,0,0,1-1.12-2.33,4.68,4.68,0,0,1,2.68-4.06,12.11,12.11,0,0,1,6.74-1.44Z" transform="translate(-262.18 -246.58)"/><path class="cls-1" d="M409.83,289.83h-7.94a9,9,0,0,0-6.24,2,6.85,6.85,0,0,0-.82,9.09,7.35,7.35,0,0,0,3.95,2.58v.08c-2.65.77-4,1.84-4,3.23s1.07,2.33,3.21,2.83v.08c-3.84.62-5.77,2.22-5.77,4.81a4.39,4.39,0,0,0,2.26,3.84,14.64,14.64,0,0,0,12.91-.08,5.13,5.13,0,0,0,.88-7.89q-1.46-1.38-5.66-1.62c-2.79-.15-4.46-.41-5-.75a1.6,1.6,0,0,1-.8-1.39,1.71,1.71,0,0,1,.62-1.29,8.94,8.94,0,0,1,3.08-1.2,25.09,25.09,0,0,0,3.93-1.29,6.3,6.3,0,0,0,2.54-2.11,6.45,6.45,0,0,0,1.07-3.92,7.15,7.15,0,0,0-2.73-5.25h4.48Zm-2.1,24.38a3.15,3.15,0,0,1-1.82,2.78,9.56,9.56,0,0,1-4.87,1.06q-6.77,0-6.76-3.67t7.17-3.67C405.63,310.71,407.73,311.88,407.73,314.21Zm-1.68-17.37a5.33,5.33,0,0,1-5.29,5.31,5,5,0,0,1-3.73-1.57,5.32,5.32,0,0,1-1.52-3.82,5.14,5.14,0,0,1,5.2-5.18,5.21,5.21,0,0,1,3.78,1.54A5,5,0,0,1,406.05,296.84Z" transform="translate(-262.18 -246.58)"/><polygon class="cls-1" points="150.06 32.99 150.06 36.6 152.2 36.6 152.2 32.99 150.06 32.99 150.06 32.99"/><polygon class="cls-1" points="150.06 43.25 150.06 63.06 152.2 63.06 152.2 43.25 150.06 43.25 150.06 43.25"/><path class="cls-1" d="M427.79,289.44a8.9,8.9,0,0,0-6.89,3,10.93,10.93,0,0,0-2.7,7.65,10,10,0,0,0,2.67,7.24,9.32,9.32,0,0,0,7,2.76,17,17,0,0,0,5.5-1v-2.21a14,14,0,0,1-5.33,1.16,7.25,7.25,0,0,1-5.55-2.21,8.4,8.4,0,0,1-2.07-6,8.65,8.65,0,0,1,2.07-6,6.92,6.92,0,0,1,5.39-2.31,12.81,12.81,0,0,1,5.14,1.26v-2.35a16.93,16.93,0,0,0-5.25-1Z" transform="translate(-262.18 -246.58)"/><path class="cls-1" d="M451.3,279.57V291a12.78,12.78,0,0,0-5.84-1.6,9.53,9.53,0,0,0-7.14,2.94,10.86,10.86,0,0,0,.05,14.7,9.47,9.47,0,0,0,7.09,3,9.83,9.83,0,0,0,5.84-1.93v1.51h2.14V279.57Zm0,26.62A9.12,9.12,0,0,1,446,308a8,8,0,0,1-5.9-2.39,8.19,8.19,0,0,1-2.36-6,8,8,0,0,1,2.21-5.81,7.49,7.49,0,0,1,5.62-2.28,10.43,10.43,0,0,1,5.75,1.85Z" transform="translate(-262.18 -246.58)"/><path class="cls-1" d="M461.28,305.69a7.53,7.53,0,0,1-2.37-5.62,7,7,0,0,1,.07-1H474.6a9.53,9.53,0,0,0-2.55-7,8.79,8.79,0,0,0-12.72.27,10.33,10.33,0,0,0-2.59,7.22,10.59,10.59,0,0,0,2.8,7.57,9.29,9.29,0,0,0,7.08,3,12.17,12.17,0,0,0,7.63-2.62v-2.38a11.59,11.59,0,0,1-7.37,2.94A7.76,7.76,0,0,1,461.28,305.69Zm.34-12.65a6.24,6.24,0,0,1,4.21-1.53q5.16,0,6.28,5.81H459.26A7.36,7.36,0,0,1,461.62,293Z" transform="translate(-262.18 -246.58)"/><path class="cls-1" d="M483.32,289.44a6.73,6.73,0,0,0-4.53,1.59,4.89,4.89,0,0,0-1.86,3.85,4.62,4.62,0,0,0,1,2.9q1,1.31,4.37,2.64a12.56,12.56,0,0,1,4.15,2.22,2.84,2.84,0,0,1,.77,1.9,3.1,3.1,0,0,1-1.17,2.49,4.58,4.58,0,0,1-3,1,13.83,13.83,0,0,1-6.24-1.82v2.06a11.18,11.18,0,0,0,5.95,1.82,6.93,6.93,0,0,0,4.64-1.58,4.92,4.92,0,0,0,1.87-3.89,5.13,5.13,0,0,0-1-3.13c-.69-.94-2.16-1.84-4.4-2.72a12.55,12.55,0,0,1-4.11-2.16,2.77,2.77,0,0,1-.75-1.86,2.91,2.91,0,0,1,1.23-2.38,4.67,4.67,0,0,1,3-1,10,10,0,0,1,5.42,2v-2.27a10.62,10.62,0,0,0-5.3-1.69Z" transform="translate(-262.18 -246.58)"/><polygon class="cls-1" points="230.41 32.99 230.41 36.6 232.55 36.6 232.55 32.99 230.41 32.99 230.41 32.99"/><polygon class="cls-1" points="230.41 43.25 230.41 63.06 232.55 63.06 232.55 43.25 230.41 43.25 230.41 43.25"/><path class="cls-1" d="M515.07,289.83h-7.94a9,9,0,0,0-6.24,2,6.85,6.85,0,0,0-.82,9.09,7.43,7.43,0,0,0,3.95,2.58v.08c-2.65.77-4,1.84-4,3.23s1.07,2.33,3.22,2.83v.08q-5.77.93-5.77,4.81a4.4,4.4,0,0,0,2.25,3.84,14.64,14.64,0,0,0,12.91-.08,5.13,5.13,0,0,0,.88-7.89c-1-.92-2.86-1.46-5.65-1.62s-4.47-.41-5-.75a1.59,1.59,0,0,1-.81-1.39,1.69,1.69,0,0,1,.63-1.29,8.75,8.75,0,0,1,3.08-1.2,25.28,25.28,0,0,0,3.92-1.29,6.39,6.39,0,0,0,2.55-2.11,6.51,6.51,0,0,0,1.06-3.92,7.15,7.15,0,0,0-2.73-5.25h4.48ZM513,314.21a3.14,3.14,0,0,1-1.81,2.78,9.6,9.6,0,0,1-4.88,1.06c-4.5,0-6.76-1.22-6.76-3.67s2.39-3.67,7.17-3.67Q513,310.71,513,314.21Zm-1.68-17.37a5.33,5.33,0,0,1-5.29,5.31,5,5,0,0,1-3.72-1.57,5.29,5.29,0,0,1-1.53-3.82,5.16,5.16,0,0,1,5.21-5.18,5.2,5.2,0,0,1,3.77,1.54A5,5,0,0,1,511.29,296.84Z" transform="translate(-262.18 -246.58)"/><path class="cls-1" d="M517.13,289.83v19.81h2.1V295.75q2.55-4.25,6.48-4.24,5.4,0,5.39,6.85v11.28h2.1V297.56a8.44,8.44,0,0,0-2-6,7,7,0,0,0-5.36-2.16,7.47,7.47,0,0,0-6.52,3.84h-.09v-3.45Z" transform="translate(-262.18 -246.58)"/></svg>