<?xml version="1.0" encoding="utf-8"?>
<!-- Generator: Adobe Illustrator 25.0.1, SVG Export Plug-In . SVG Version: 6.00 Build 0)  -->
<svg version="1.1" id="Layer_1" xmlns="http://www.w3.org/2000/svg" xmlns:xlink="http://www.w3.org/1999/xlink" x="0px" y="0px"
	 viewBox="0 0 2426.7 1711.1" style="enable-background:new 0 0 2426.7 1711.1;" xml:space="preserve">
<style type="text/css">
	.st0{fill-rule:evenodd;clip-rule:evenodd;fill:#FFFFFF;}
</style>
<g>
	<path class="st0" d="M830,9.5c-2-2-4.8-3.4-8.9-3.4h-46.3c-6.8,0-10.2,2.7-10.2,6.8c0,4.8,4.8,6.8,13.6,8.2c3.4,0,5.5,1.4,6.1,3.4
		c0.7,2.7,1.4,10.2,1.4,22.5v127.4c-0.7,33.4-14.3,50.4-40.9,50.4c-12.3,0-21.8-2.7-27.9-8.9c-7.5-7.5-10.9-19.1-10.9-36.1V35.4
		c0-8.2,4.1-12.9,11.6-14.3h0.7l11.6-3.4c2-0.7,2.7-2.7,2.7-5.4l-1.4-4.1l-6.8-2h-70.9c-5.4,0-7.5,2-7.5,6.1s5.4,6.8,15.7,8.9
		c3.4,0,4.8,4.1,4.8,12.3v155.3c0,16.4,4.1,28.6,13.6,37.5c11.6,11.6,31.3,17.7,60,17.7c20.4,0,36.1-5.4,47-16.4
		c11.6-11.6,17.7-30.7,17.7-57.2V36.8c0-10.2,4.1-15,12.3-15.7c9.5-1.4,15-3.4,15-8.2L830,9.5L830,9.5z M261,6.8l-6.1-1.4l-36.1,1.4
		l-32.7-1.4h-9.5c-6.1,0-8.9,2-8.9,6.1s3.4,6.1,10.2,6.8l8.2,1.4c4.1,1.4,6.8,2,7.5,4.1c1.4,1.4,2,4.8,2,9.5v172.4
		c0,7.5-0.7,11.6-2.7,13.6c-1.4,2-6.1,3.4-13.6,4.8c-7.5,0.7-11.6,3.4-11.6,7.5l1.4,5.4c1.4,0.7,3.4,1.4,6.1,1.4h79.7
		c3.4,0,5.4-0.7,7.5-2l1.3-4.1c0-3.4-2.7-6.1-8.2-7.5l-4.8-0.7c-8.2-2-12.3-3.4-12.9-4.8c-2-0.7-2-4.1-2-8.9V31.3
		c0-6.8,2-10.9,6.1-11.6l8.2-0.7c8.9-1.4,12.9-3.4,12.9-8.2L261,6.8L261,6.8z M852.5,5.4h-2.7c-8.9,0-12.9,2-12.9,6.8
		c0,4.1,3.4,6.1,9.5,7.5h2.7c4.8,1.4,8.2,2,9.5,4.1c0.7,0.7,1.4,3.4,1.4,7.5v178.5c0,4.8-0.7,8.2-2.7,9.5c-2,2-6.8,3.4-14.3,4.8
		c-5.4,0.7-8.2,3.4-8.2,8.2l2,4.1c1.4,1.4,4.1,2,8.2,2h132.2c4.8,0,7.5-0.7,8.9-2c1.4-1.4,2-3.4,2-6.8v-51.1c0-4.8-0.7-7.5-1.4-8.9
		l-4.8-1.4c-1.8-0.1-3.6,0.7-4.8,2l-7.5,19.8c-4.8,12.9-10.2,21.1-17,26.6c-6.1,4.8-14.3,7.5-25.9,7.5c-10.2,0-17-2-21.1-5.4
		s-5.5-12.3-5.5-25.9V124l0.7-3.4l12.9-0.7l21.8,2c2.7,1.4,5.4,6.1,7.5,13.6l2.7,8.9c2,8.2,5.4,12.9,8.9,12.9l4.8-2
		c2-1.4,2.7-5.5,2.7-10.9V83.1c0-2.7-0.7-5.4-2-6.8l-4.8-1.4c-2.7,0-6.1,2.7-8.2,8.2l-3.4,9.5c-3.4,6.1-6.1,9.5-9.5,10.9l-26.6,1.4
		l-6.8-0.7l-0.7-3.4V27.2l1.4-4.8l15.7-2c13,0,22.5,1.4,28.6,5.4c6.1,3.4,11.6,10.9,17,21.8l5.4,12.9c1.4,6.1,4.8,8.9,8.2,8.9l4.1-2
		c1.4-1.4,2-3.4,2-6.8V14.3c0-2.7-0.7-5.4-2-6.8c-1.4-1.3-4.1-2-8.2-2l-65.4,1.4C881.1,6.8,863.4,6.1,852.5,5.4L852.5,5.4z
		 M1626.6,4.1l-32-3.4c-19.1,0-34.8,6.8-47.7,19.8c-11.6,11.6-17,25.2-17,40.9c0,17,5.5,32,16.4,44.3c6.1,7.5,18.4,17,35.4,27.2
		c15,9.5,25.2,17.7,31.3,23.2c8.9,10.2,13.6,21.1,13.6,34.7c0,10.9-3.4,19.8-10.2,27.3c-6.1,6.8-15,10.2-25.2,10.2
		c-16.3,0-29.3-10.2-37.5-31.3c-2.7-8.2-5.4-15.7-6.8-23.9c-2-8.2-4.8-11.6-9.5-11.6c-4.1,0-7.5,2.7-8.2,8.9c-1.3,6.8-2,23.9-2,49.7
		c0,3.4,1.3,6.1,4.1,8.9c4.1,4.8,11.6,8.2,21.8,10.9l25.2,3.4c25.2,0,45-7.5,59.3-22.5c13.6-13,20.4-30,20.4-49.1
		c0-15.7-5.4-30-16.3-42.9c-6.8-8.2-19.1-18.4-36.1-30.7l-4.8-3.4c-17-12.3-27.3-20.4-30.7-25.2c-5.4-5.4-7.5-12.3-7.5-21.8
		c0-11.6,3.4-20.4,9.5-27.3c5.4-4.9,12.4-7.6,19.8-7.5c7.5,0,12.9,1.4,17,5.4c4.1,2.7,7.5,8.9,10.2,16.4l12.3,32
		c1.4,2.7,3.4,4.1,6.1,4.1s4.8-0.7,6.1-2c1.4-2,2-4.1,2-7.5V22.5c0-6.1-0.7-9.5-2-11.6C1642.2,8.2,1636.1,5.4,1626.6,4.1L1626.6,4.1
		z M1845.3,68.1c-6.8-17-16.4-32-27.3-42.9c-16.4-16.4-34.8-24.5-55.9-24.5c-26.6,0-49.1,13-67.5,38.8
		c-16.4,23.9-24.5,51.8-24.5,82.4c0,18.4,3.4,36.1,9.5,53.8c6.8,17,15.7,32,27.3,42.9c15.7,16.4,34.1,24.5,55.2,24.5
		s39.5-8.2,55.9-24.5c10.9-10.9,20.4-25.9,27.3-42.9c6.1-17.7,9.5-35.4,9.5-53.8S1851.4,85.9,1845.3,68.1L1845.3,68.1z M1783.3,25.2
		c8.8,8.9,16.3,23.2,21.1,43.6c4.1,17,6.8,35.4,6.8,53.2c0,25.9-4.1,49.1-11.6,69.5c-9.5,24.5-21.8,36.8-37.5,36.8
		c-6.8,0-13.6-2.7-20.4-9.5c-8.9-8.9-16.4-23.2-21.1-42.9c-4.6-17.6-6.9-35.7-6.8-53.8c0-17.7,2-36.1,6.8-53.2
		c4.8-20.4,12.3-34.7,21.1-43.6c6.1-6.1,12.9-9.5,20.4-9.5C1770.4,15.7,1777.2,19.1,1783.3,25.2L1783.3,25.2z M1950.2,7.5l-8.2-2
		h-72.9c-6.1,0-9.5,2-9.5,6.8s5.4,7.5,15.7,8.2c4.8,0,7.5,3.4,7.5,9.5v177.2c0,6.8-0.7,10.9-2.7,13c-2,1.4-6.1,2.7-13.6,4.1
		c-4.8,0.7-7.5,3.4-7.5,7.5c0,2,0.7,4.1,2,5.4c1.4,0.7,3.4,1.4,6.1,1.4h119.3c2.7,0,5.4-0.7,6.1-2c2-1.4,3.4-4.1,3.4-8.9v-46.3
		c0-5.4-0.7-8.9-2-10.2l-4.8-1.4c-2,0-4.8,3.4-7.5,9.5l-6.8,18.4c-8.2,17-19.8,25.9-34.1,26.6c-5.4,0-9.5-1.4-12.9-4.1
		c-3.4-3.4-4.8-8.2-4.8-14.3V31.3c0-6.8,4.8-10.9,13.6-10.9l10.9-2c2.7-1.4,4.1-3.4,4.1-6.1L1950.2,7.5L1950.2,7.5z M2031.3,23.9
		l1.4,7.5v178.5c0,4.8-0.7,8.2-2.7,9.5c-2,2-6.8,3.4-14.3,4.8c-5.4,0.7-8.2,3.4-8.2,8.2c0,1.4,0.7,3.4,2,4.1c1.4,1.4,4.1,2,8.2,2
		h132.2c4.8,0,7.5-0.7,8.8-2c1.4-1.4,2-3.4,2-6.8v-51.2l-1.4-8.9l-4.8-1.4c-2,0-4.1,0.7-4.8,2l-7.5,19.8
		c-4.8,12.9-10.2,21.1-17,26.6c-6.1,4.8-14.3,7.5-25.9,7.5c-10.2,0-17-2-21.1-5.4s-5.4-12.3-5.4-25.9V124l0.7-3.4l12.9-0.7l22.5,2
		c2,1.4,4.8,6.1,6.8,13.6l2.7,8.9c2,8.2,5.5,12.9,8.9,12.9l4.8-2c2-1.4,2.7-5.5,2.7-10.9V83.1l-2-6.8l-4.8-1.4
		c-2.7,0-5.4,2.7-8.2,8.2l-3.4,9.5c-3.4,6.1-6.1,9.5-9.5,10.9l-26.6,1.4l-6.8-0.7l-0.7-3.4V27.2c0-2,0.7-3.4,1.4-4.8l15.7-2
		c12.9,0,22.5,1.4,28.6,5.4c6.1,3.4,11.6,10.9,17,21.8l4.8,12.9c2.7,6.1,5.4,8.9,8.9,8.9l4.1-2c1.4-1.4,2-3.4,2-6.8V14.3
		c0-2.7-0.7-5.4-2-6.8c-1.4-1.3-4.1-2-8.2-2l-65.4,1.4c-25.9,0-43.6-0.7-54.5-1.4h-2.7c-8.9,0-13,2-13,6.8c0,4.1,2.7,6.1,9.5,7.5
		h2.7C2026.6,21.1,2030,21.8,2031.3,23.9z M2228.9,6.8l-32.7-1.4h-9.5c-6.1,0-8.9,2-8.9,6.1s3.4,6.1,10.2,6.8l8.2,1.4l7.5,4.1l2,9.5
		v172.4c0,7.5-1.3,12.3-2.7,13.6c-2,2-6.8,3.4-13.6,4.8c-8.2,0.7-11.6,3.4-11.6,7.5l1.4,5.4l5.5,1.4h79.7c4.1,0,6.1-0.7,8.2-2
		l1.3-4.1c0-4.1-2.7-6.1-8.2-7.5l-4.8-0.7c-7.5-2-12.3-3.4-12.9-4.8c-1.4-0.7-2-4.1-2-8.9V31.3c0-6.8,2-10.9,6.2-11.6l17.7-2.7
		c2-1.4,2.7-2.7,2.7-6.1l-1.4-4.1l-6.8-1.4L2228.9,6.8L2228.9,6.8z M2299.8,5.4c-6.1,0-8.8,2-8.8,6.8s4.8,7.5,15.7,8.2
		c4.8,0,7.5,3.4,7.5,9.5v177.2c0,6.8-1.3,10.9-3.4,13c-1.4,1.4-5.4,2.7-12.9,4.1c-4.8,0.7-7.5,3.4-7.5,7.5c0,2,0.7,4.1,1.4,5.4
		l6.8,1.4h118.6c3.4,0,5.4-0.7,6.8-2c2-1.4,2.7-4.1,2.7-8.9v-46.3l-2-10.2l-4.1-1.4c-2.7,0-5.5,3.4-7.5,9.5l-7.5,18.4
		c-7.5,17-19.1,25.9-34.1,26.6c-5.4,0-9.5-1.4-12.3-4.1c-3.4-3.4-5.4-8.2-5.4-14.3V31.3c0-6.8,4.8-10.9,14.3-10.9l10.9-2
		c2.1-1.3,3.4-3.6,3.4-6.1l-1.4-4.8l-7.5-2L2299.8,5.4L2299.8,5.4L2299.8,5.4z M1460.3,6.8c-2.4-1.7-5.2-2.7-8.2-2.7l-40.9,0.7
		l-5.4-0.7c-6.1,0-9.5,2.7-9.5,7.5c0,4.1,4.1,6.8,12.9,7.5c4.1,0,6.1,1.4,6.8,4.1l0.7,21.8v127.4c0,34.1-13.6,51.1-40.2,51.1
		c-12.9,0-22.5-3.4-28.6-9.5c-6.8-6.8-10.2-19.1-10.2-35.4V33.4c0-8.2,3.4-13,11.6-14.3l12.3-2.7c1.8-1.2,2.8-3.3,2.7-5.4l-1.4-4.1
		l-6.8-2.7l-4.1,0.7l-67.5-0.7c-4.8,0-6.8,2-6.8,6.8c0,3.4,4.8,6.1,15.7,8.2c2.7,0,4.1,4.1,4.1,12.3v155.4
		c0,15.7,4.8,28.6,13.6,37.5c12.3,11.6,32,17.7,60,17.7c21.1,0,36.8-5.4,47-16.4c12.3-11.6,18.4-30.7,18.4-57.2V34.7
		c0-9.5,4.1-15,11.6-15.7c9.5-0.7,13.6-3.4,13.6-7.5L1460.3,6.8L1460.3,6.8z M26.6,34.1C8.9,55.9,0,85.2,0,120.6
		c0,40.9,12.3,73.6,35.4,96.8c17,16.4,36.8,24.5,59.3,24.5c10.2,0,21.1-1.4,31.3-4.1c9.5-2.7,15.7-6.1,19.1-8.9
		c4.1-4.1,6.1-13.6,6.1-29.3c0-25.2-1.4-38.8-4.1-41.6l-5.4-1.4c-2.7,0-4.8,1.4-6.1,4.8l-8.9,30c-6.1,23.8-16.4,36.1-31.3,36.1
		c-8.9,0-17-4.1-24.5-11.6c-18.4-17.7-27.3-50.4-27.3-96.8c0-47.7,7.5-79.1,22.5-94c7.5-6.8,15.7-10.2,26.6-10.2
		c6.1,0,10.9,1.4,14.3,4.8c4.8,4.1,9.5,13.6,14.3,26.6c6.1,17,11.6,25.9,15.7,25.9c2,0,4-0.7,5.4-2c2.7-2,3.4-11.6,3.4-28.6
		l-0.7-23.2c-0.5-3-2.2-5.8-4.8-7.5C129.4,4.1,113.7,0,94,0C66.8,0,43.7,11.6,26.6,34.1L26.6,34.1z M372.8,4.8h-89.3
		c-5.4,0-8.9,2.7-8.9,7.5c0,4.1,4.1,6.8,12.3,6.8c4.8,0.7,7.5,1.4,8.9,3.4c1.4,1.4,2,5.4,2,10.9v176.5c0,8.2-4.1,12.3-12.9,12.9
		c-6.8,1.4-10.2,3.4-10.2,8.2l2,4.8c2,1.3,3.4,2,6.1,2h77.7c2,0,4.1-0.7,4.8-2c1.4-0.7,2-2,2-4.1c0-4.1-6.1-7.5-17-9.5
		c-8.2-1.4-12.3-7.5-12.3-17V133l1.4-4.8l7.5-1.4c4.1,0,7.5,2,9.5,6.1l44.3,96.8c2,5.4,5.4,8.2,8.9,8.2h43.6c2.7,0,4.1-0.7,5.5-2
		l1.3-3.4c0-4.1-2-6.1-6.8-6.1l-7.5-2.7c-2.7-2-8.2-10.9-14.3-25.9c-8.9-20.4-17.7-40.9-28.6-60.6c-2.6-5.3-6.1-10.1-10.2-14.3h-0.7
		c25.9-6.1,39.5-24.5,41.6-56.5c0-19.1-5.4-34.1-16.4-45.7C406.9,10.2,391.9,4.8,372.8,4.8z M357.8,19.1c8.9,0,16.3,3.4,23.2,10.2
		c8.9,9.5,13.6,21.8,13.6,36.1c0,16.4-3.4,27.9-10.9,35.4s-19.8,10.9-36.8,10.9l-8.2-0.7l-0.7-5.4V36.1c0-6.1,0.7-10.2,2.7-13
		C343.5,20.4,349.6,19.1,357.8,19.1L357.8,19.1z M1271.6,119.9c0-37.5-10.9-66.8-31.4-87.2c-19.8-19.8-46.3-28.6-79.7-27.9
		l-59.3-0.7L1078,6.8l-2,3.4c0,4.8,2,7.5,5.4,8.2l13.6,2c4.1,0.7,6.8,1.4,7.5,3.4c1.4,1.4,1.4,4.8,2,9.5v166.2
		c0,8.9-1.4,15.7-3.4,19.1c-1.4,2.7-4.8,4.1-9.5,4.1l-10.9,2c-2.7,0.7-4.1,2.7-4.1,6.1l2,5.4l3.4,1.4h90.6c25.2,0,47-8.9,64.1-25.9
		C1260,188.8,1271.6,158.1,1271.6,119.9L1271.6,119.9z M1164.6,19.8c14.3,0,25.9,4.8,36.1,15c17.7,17.7,27.3,47.7,27.3,89.9
		c0,28.6-5.4,52.5-16.4,70.9c-10.2,18.4-23.9,27.2-40.9,27.2c-8.9,0-15.7-2-19.8-6.1c-4.1-4.1-6.1-10.9-6.1-20.4V34.1
		c0-5.4,0.7-8.9,2.7-10.9C1150.3,20.4,1155.7,19.8,1164.6,19.8L1164.6,19.8z M477,39.5c-16.4,23.9-24.5,51.8-24.5,82.4
		c0,29.3,7.5,55.9,22.5,79c15,23.2,32.7,36.8,54.5,40.2v8.9c0,15,7.5,27.9,23.2,40.2c14.3,10.9,30.7,16.4,47,16.4
		c15,0,27.3-2.7,36.1-8.2c6.8-4.8,10.2-8.9,10.2-12.9c0-2.7-1.4-4.1-4.1-4.1l-7.5,4.8c-5.4,2.7-10.2,4.8-15.7,4.8
		c-10.2,0-21.8-7.5-33.4-21.1l-22.5-28.6c21.8-4.8,39.5-19.1,53.8-41.6s21.1-48.4,21.1-77.7c0-18.4-3.4-36.1-9.5-53.8
		c-6.8-17-16.4-32-27.3-42.9C584.5,8.9,566.2,0.8,545,0.8C517.9,0.7,495.4,13.6,477,39.5L477,39.5z M504.3,175.8
		c-4.8-17.7-6.8-35.4-6.8-53.8c0-17.7,2-36.1,6.8-53.2c4.8-20.4,12.3-34.7,21.1-43.6c6.1-6.1,12.9-9.5,21.1-9.5
		c7.5,0,14.3,3.4,20.4,9.5c8.9,8.9,16.4,23.2,21.1,43.6c4.8,17,6.8,35.4,6.8,53.2c0,25.9-3.4,49.1-11.6,69.5
		c-8.9,24.5-21.8,36.8-36.8,36.8c-7.5,0-14.3-2.7-21.1-9.5C516.6,209.9,509.1,195.6,504.3,175.8L504.3,175.8z M847,1552.9
		c-8.9,9.5-12.9,19.1-12.9,29.3c0.7,8.8,4.8,17,11.6,23.8c11.6,8.9,23.9,10.9,36.8,6.8c8.9-2.7,15.7-9.5,20.4-20.4
		c4.8-17,1.4-30-9.5-39.5c-5.4-5.4-13.6-8.2-23.2-8.2C860,1544.7,852.5,1547.5,847,1552.9L847,1552.9z M1223.2,1662.6
		c8.2-4.8,12.9-10.9,15.7-17c2-6.8,0.7-14.3-4.8-21.8c-4.8-6.1-12.3-8.8-22.5-8.8c-10.2,2-17,7.5-19.1,17
		c-3.4,10.2-0.7,18.4,6.8,25.9C1205.5,1663.3,1213.6,1664.7,1223.2,1662.6L1223.2,1662.6z M890.7,643.2l-19.8,25.2
		c-2,2-8.9,5.4-19.8,9.5c-13,4.8-25.9,8.9-38.8,10.9c-38.8,8.9-66.1,6.8-82.4-5.4l-2.7-8.9c-1.1-2.9-2.4-5.6-4.1-8.2
		c-6.1-6.8-15.7-9.5-29.3-8.2l-7.5,3.4c-2.7,2-4.1,4.1-4.1,6.1c6.8,4.1,87.9,45,242.6,122.7c-20.4-27.9-32.7-53.8-35.4-78.4
		l-0.7-15.7c0.7-6.1,2-10.9,5.4-14.3l20.4,17l19.8,15.7c16.4,10.9,33.4,13.6,49.7,7.5c7.5,0,16.4,5.4,26.6,15.7
		c8.9,8.9,17.7,13,25.9,10.9C991.5,714.1,942.5,678.7,890.7,643.2L890.7,643.2z M1277,477l-63.4-2c3.4,23.9,9.5,55.2,17.7,94
		l19.1,94L1277,477z M1193.2,474.9l-51.8,5.4l31.3,169.7L1193.2,474.9z M1392.8,518.5l-26.6,47.7c-10.2,19.1-14.3,36.8-14.3,53.2
		l-12.3,18.4c-4.8,7.5-8.2,14.3-8.8,20.4l98.1-135.6c-49.8-25.2-96.1-39.5-139-43.6l-23.2,161.5l8.2-7.5l15-15.7
		c14.3-17.7,20.4-35.4,18.4-54.5c8.2-11.6,20.4-21.8,38.1-29.3C1354.7,529.5,1370.4,524.7,1392.8,518.5L1392.8,518.5z M1125.7,483.8
		c-27.9,2.7-57.2,10.9-87.9,25.2c13.6,25.9,35.4,45,65.4,57.2c9.5,6.1,18.4,19.1,26.6,38.2c8.2,19.8,16.4,32.7,24.5,39.5
		C1148.2,601,1138,547.2,1125.7,483.8z M1230,1150.2l-1.4-15l-42.9-1.4l-41.6-6.1l-6.1,14.3C1168,1148.9,1198.7,1151.6,1230,1150.2
		L1230,1150.2z M1379.9,1191.8l-1.3-10.9c-45.7,23.2-94.7,36.1-148.5,39.5c-57.2,2.7-113.1-6.8-167.6-27.9
		c-32.3-14-62.6-32.3-89.9-54.5l-16.4,10.9c54.5,47.7,122.6,76.3,203.7,86.5c80.4,9.5,153.3-1.4,219.4-33.4
		C1380.2,1198.7,1380.5,1195.2,1379.9,1191.8z M866.1,827.9H847c-2.7,56.6,6.1,109,26.6,158.8c20.4,50.4,51.1,94,92.7,132.9
		l11.6-18.4c-13-10.8-24.8-22.9-35.4-36.1l-28.6-39.5l-6.8,2l-6.1,2c-2.7-3.4-2.7-6.8-1.4-11.6l4.8-10.9
		C875,953.3,862.7,894,866.1,827.9L866.1,827.9z M923.4,827.9H907l-1.3,34.8l17.7-0.7V827.9z M950.6,827.9h-15.7l-1.4,31.3l17-3.4
		v-27.9H950.6z"/>
	<path class="st0" d="M894.7,854.5l-0.7-26.6h-16.4c-2,64.1,8.9,119.3,32.7,166.9l15.7-10.9c-8.9-17-16.4-36.8-22.5-59.3
		s-8.9-40.2-8.9-53.2L894.7,854.5L894.7,854.5z M983.3,1094.3l12.9-17l-23.9-24.5c-13-15-23.2-27.3-30-38.2
		c-6.8,0.7-12.3,2.7-17.7,4.8C939,1045.9,958.1,1071.2,983.3,1094.3L983.3,1094.3z M1451.5,1120.2l-13.6-14.3
		c-10.9,10.2-23.9,19.8-37.5,29.3l2.7,19.8L1451.5,1120.2L1451.5,1120.2z M1238.9,1207.4l-2.7-18.4c-36.8,5.4-81.1,0.7-134.9-14.3
		l-10.9,5.4c-4.8,1.4-7.5,3.4-9.5,6.1C1140,1206.8,1192.5,1213.6,1238.9,1207.4L1238.9,1207.4z M1234.8,1179.5l-2.7-16.4
		c-17.7,2.2-35.5,1.9-53.1-0.7l-47-10.9l-18.4,15.7C1162.5,1180.2,1203.4,1184.3,1234.8,1179.5L1234.8,1179.5z M1018.1,518.5
		l-25.2,15l-23.2,17.7l92.7,107c2.7-23.2-9.5-44.3-36.8-64C1013.3,575.8,1010.6,550.6,1018.1,518.5L1018.1,518.5z M1478,556
		c-11.6-10.9-23.9-20.4-36.8-27.3l-49.7,68.8c-19.8,26.6-35.4,49.1-47,68.1L1478,556z M1054.9,667.8l-96.1-110.4
		c-10.9,8.2-19.8,16.4-23.9,23.9L1054.9,667.8L1054.9,667.8z M1442.6,659.6c12.9-8.9,27.9-13.6,44.3-15c16.1-2.1,32.4,0.5,47,7.5
		c-2,6.1-6.8,14.3-15,24.5c-8.9,10.9-14.3,18.4-17,23.8c-6.8,22.5-12.9,39.5-17.7,49.1c-8.2,17.7-19.1,32.7-32,43.6h2L1754,658.2
		c-0.7-5.4-5.4-10.2-14.3-14.3l-21.1,2c-4.8,2-8.2,6.1-10.9,12.3l-7.5,15.7c-23.2,10.2-48.4,12.9-73.6,10.2
		c-27.9-3.4-50.4-14.3-66.8-32c-22.5-35.4-43.6-61.3-64.1-77.7l-104.2,140.4c7.5-4.1,16.3-13.6,25.2-27.9
		C1425.6,673.2,1434.4,663.7,1442.6,659.6z M913.8,604.4L895.4,633l141,102.2C983.3,676.6,942.5,633,913.8,604.4z M1758.8,670.5h-2
		l-322.3,149.9l285.5,2.7l8.2,10.9c10.2,4.1,18.4,3.4,23.8-2c4.8-4.8,6.8-11.6,5.5-20.4c-4.1-8.2-8.2-12.3-12.9-13
		c-8.2-2.7-16.4-0.7-23.9,7.5h-56.6l-55.9-2c21.8-40.9,58.6-77,110.4-108.3c4.8,2,10.2,3.4,16.4,2.7c5.4-0.7,10.9-2.7,15-6.1
		C1757.4,685.5,1760.8,678,1758.8,670.5L1758.8,670.5z M675.3,691.6c3.4,8.2,7.5,12.9,13.6,15.7c4.8,2.7,10.2,3.4,17,2l15.7-2.7
		c21.1,7.5,39.5,19.8,56.5,34.7c19.1,17,31.3,35.4,37.5,55.2l-2,2H707.4l-9.5-8.2l-8.2-1.4l-8.2,1.4c-6.8,2.7-9.5,10.2-8.9,22.5
		c1.4,6.8,6.8,10.9,16.4,12.3c4.1,0,10.2-3.4,18.4-10.9l126.7,0.7l124.7,0.7L676.7,678L675.3,691.6L675.3,691.6z M806.2,827.9h-89.9
		l25.2,47.7l66.1-4.8L806.2,827.9L806.2,827.9z M1517.5,830.6h-17c2,12.3,2,25.9,0,40.9l-5.4,39.5l13.6,10.9l8.2-44.3
		C1519.6,860.6,1519.6,844.9,1517.5,830.6L1517.5,830.6z M1545.5,830.6h-15.7c2,37.5-2,71.5-11.6,102.2l10.9,20.4
		C1544.8,907.6,1550.2,866.7,1545.5,830.6L1545.5,830.6z M1577.5,830.6h-19.8c0,32-2,60-6.8,83.8c0.7,5.5-0.7,12.3-4.1,19.8
		l-8.2,19.8c-5.4,15.7-2.7,27.3,8.9,34.8C1571.4,936.2,1581.6,883.8,1577.5,830.6L1577.5,830.6z"/>
	<path class="st0" d="M1606.1,830.6h-18.4c2,55.2-8.9,111.7-32.7,169.7c4.1,7.5,6.2,12.3,4.8,14.3l-11.6-2.7
		c-14.3,31.3-38.2,64.7-72.2,100.8l5.4,7.5l6.8,6.1c40.9-40.9,70.9-85.8,91.3-136.3C1599.3,939.7,1608.2,886.5,1606.1,830.6
		L1606.1,830.6z M1693.3,867.4l-75-2.7l-8.2,57.2l39.5,7.5l39.5,5.4L1693.3,867.4z M949.3,970.3l-9.5-25.2l-8.2-25.9l-3.4-19.8
		l-2.7-20.4l-19.1-2.7c1.4,21.1,4.1,39.5,8.9,55.2c3.4,12.9,10.2,27.9,20.4,46.3L949.3,970.3L949.3,970.3z M959.5,964.2
		c8.2-0.7,12.3-4.1,13.6-9.5c-6.8-14.3-14.3-38.8-21.8-74.3l-15.7-1.4C938.8,908.5,946.9,937.3,959.5,964.2z"/>
	<path class="st0" d="M1351.3,571c3.4-7.5,10.9-18.4,23.2-34.1c-11.7,1.9-22.9,6.3-32.7,13c-10.2,7.5-17.7,17-21.8,27.3
		c2,12.9-1.4,25.2-10.2,37.5c-5.4,7.5-15,16.4-27.9,26.6c-4.8,5.4-8.2,12.3-8.9,20.4l-1.3,23.9c0,19.1-6.8,32-19.1,38.8l-2-2.7
		l-46.3-214c-0.7,17-3.4,41.6-8.2,74.3l-12.3,122.7l-2,2.7c-4.1-3.4-10.2-13-17.7-28.6c-6.8-12.3-14.3-21.1-21.8-24.5
		c-9.5-5.4-17-14.3-23.2-27.3l-13.6-32c-5.4-7.5-19.1-18.4-40.9-32c-19.1-11.6-30-23.9-34.1-36.8l-2.7,8.2l-0.7,9.5
		c-1.4,12.3,2,23.9,9.5,34.7c6.8,9.5,15.7,17.7,27.3,24.5c4.8,4.8,8.2,15,9.5,30c0.7,14.3,4.1,24.5,9.5,30
		c12,6.1,21.9,15.6,28.6,27.3c6.8,12.3,8.9,25.2,6.8,38.2h-0.7l-186-141.7h-4.8v2l156,176.5v4.1c-4.8-2.7-10.9-4.1-18.4-3.4
		l-19.1,1.4c-15.7,1.4-26.6-4.1-34.1-15.7l-22.5-12.3l-25.2,0.7c-22.5,4.8-42.9-8.2-60.6-37.5l0.7,15l3.4,15.7
		c2.7,15,10.9,28.6,23.9,39.5c12.9,10.9,26.6,17,41.6,19.8c12.9-2.7,26.6,0.7,40.2,10.2l34.8,24.5h-4.8l-79.7,1.4l-0.7,26.6
		c12.3-2,34.7-6.1,65.4-12.3l66.1-10.9v10.9c0,4.1-0.7,6.8-2,9.5l-156,12.3l-36.1,5.4l162.2,10.9l-12.3,12.9l-83.8-9.5
		c2.7,21.1,8.9,41.6,17.7,60.6l7.5-8.2c2.7-2.7,6.1-4.8,8.9-5.4c23.2,2,43.6-11.6,60-39.5c5.4-4.8,11.6-7.5,19.1-8.9
		s14.3-0.7,20.5,2c1.4,8.2-3.4,12.9-13,14.3c-12.3,2-19.1,4.8-21.8,8.9c-11.6,23.2-28.6,34.1-50.4,32c-6.8,0.7-15,6.2-23.9,17.7
		c-8.2,10.2-17.7,15.7-27.3,16.3c-30,9.5-48.4,23.9-55.9,42.9c13.6-12.3,34.8-19.8,63.4-22.5c8.9,0,19.1-5.4,30-17.7
		c11.6-12.3,21.8-17,30.7-15.7c20.4,2,34.7-7.5,44.3-27.9c6.1-7.5,17-10.2,32-7.5c-6.8,14.3-16.4,23.2-29.3,27.9
		c-4.8,12.9-15.7,21.1-32,23.9l-20.4,3.4c-8.2,1.4-15,3.4-19.1,6.8c5.4,12.9,16.4,25.9,31.3,38.2c49.1-66.8,75.6-100.8,80.4-101.5
		l4.8,5.4c2,2,2.7,3.4,2.7,5.4c-40.2,49.1-84.5,100.2-132.2,154l-42.9,57.2l87.9-82.4l88.6-79l1.4,21.1l-29.3,23.8
		c-12.3,9.5-21.1,17.7-27.3,24.6l17,10.2c5.5,3.7,11.8,6.1,18.4,6.8l23.2-26.6c6.1-7.5,8.2-19.1,4.8-35.4c-2.7-16.3-2-28.6,2.7-35.4
		l6.8-5.4l6.8-7.5c5.4-5.4,10.2-4.1,13.6,2c-5.4,7.5-8.2,19.8-7.5,38.1c0,18.4-2,31.4-6.8,38.9c-19.8,14.3-32,39.5-37.5,73.6
		c-1.4,7.5-4.8,13.6-10.2,20.4l-17.7,15.7c-15,12.3-22.5,25.2-21.8,38.9c4.1-8.9,13.6-17,26.6-23.2c15-7.5,25.2-14.3,29.3-20.4
		c6.8-4.8,10.9-11.6,13.6-19.8l4.1-21.8c2.7-19.8,10.2-32.7,21.1-39.5c10.2-3.4,16.4-9.5,19.1-17c2-5.5,2.7-12.9,1.4-23.9l-0.7-24.5
		c1.4-8.2,5.4-15,12.9-19.8c3.4,6.8,5.4,13.6,6.1,21.1c-3.4,4.1-4.8,10.9-4.1,19.8l-0.7,21.1c-1.4,8.2-7.5,16.4-18.4,24.6
		c-11.6,8.9-18.4,17-20.4,23.8c20.4,6.2,42.9,8.2,67.5,5.5L1198.2,982v-10.9h11.6l10.9,2c2.1,37.5,10.2,116.5,23.2,235.8l3.4-94
		l1.4-93.4l2-2.7l12.9,13.6l-1.4,29.3l-2,30c18.4-4.1,32-8.2,40.9-12.9c-3.4-19.1-17.7-39.5-42.9-61.3c-6.2-4.1-9.5-12.3-8.9-23.2
		l1.4-26.6c1.8-2.5,4.5-4.2,7.5-4.8l12.9,33.4c6.1,12.9,12.9,23.2,21.8,30c9.5,7.5,15.7,21.1,19.1,41.6c3.4,21.1,8.2,35.4,15,42.9
		c16.4,10.2,30,21.1,40.9,33.4c15,17.7,21.8,35.4,19.1,53.2c8.9-36.1,6.8-60.7-5.4-74.3c-16.3-8.8-28.6-20.4-37.5-36.1
		c-8.2-15-11.6-32-10.2-50.4c-2-5.4-5.4-10.9-10.2-17l-15-13.6c-12.9-12.3-18.4-23.2-17-34.8c0.7,0,2,0.7,3.4,2.7l4.1,3.4
		c2.7,8.2,11.6,20.4,27.3,38.8c13.6,15,19.8,29.3,19.8,41.6c10.2-5.4,17-10.9,21.8-16.4l-87.2-87.9c2-4.1,6.1-7.5,12.3-10.9
		l190.1,196.2c0.7-2-47.7-65.4-144.4-191.5c0-1.4,1.3-2,2.7-2h4.1l53.8,67.5c18.4-18.4,30.6-38.2,38.1-58.6c-8.2,2-17-0.7-27.3-8.8
		c-10.9-8.2-19.8-11.6-26.6-9.5l-37.5,2.7c-13.6-2-24.5-7.5-32.7-16.4c1.4-4.1,4.8-10.2,10.9-17c6.8,4.8,15.7,7.5,27.3,7.5l30.6-1.4
		c22.5,19.8,50.4,27.3,83.1,23.8c7.5,2,15,6.8,21.1,13.6c3.4,3.4,8.9,10.2,15.7,20.4c13.6,17.7,26.6,27.9,38.9,29.3
		c-10.2-12.9-20.4-30-30-51.8c-3.4-10.9-8.9-18.4-17-23.2c-6.1-2.7-14.3-5.4-26.6-6.8l-27.9-4.8c-9.5-2.7-17-8.9-22.5-16.4
		c-6.8-6.1-19.1-8.2-38.1-8.2c-18.4,0.7-31.4-2.7-38.2-8.8c2-2,6.1-4.1,10.9-4.8l10.9-2.7c5.4,4.1,13.6,5.4,23.9,4.8
		c10.2-2,22.5,2,36.8,11.6c14.3,10.2,25.9,14.3,34.8,13.6c2.7-10.9,5.4-29.3,6.8-55.9l-2-3.4l-124,30c-3.4-6.2-2.7-14.3,2-23.2
		l67.5-6.1l67.5-5.4c0.7,15.7-1.3,38.2-5.4,66.8l15,1.4c6.1-23.9,8.2-48.4,5.4-74.3l-66.1-3.4l-64.7-6.8l-2.7-2
		c14.3-15,35.4-27.3,62.7-36.1c13.6-4.1,24.5-11.6,32.7-22.5c4.8-7.5,10.2-18.4,15.7-34.1c6.2-17,10.9-28.6,15-35.4
		c6.8-12.9,16.4-22.5,27.9-28.6v-2.7c-38.1-5.5-71.5,14.3-100.8,57.2c-9.5,1.4-19.8,9.5-31.3,24.5c-10.9,14.3-21.8,22.5-31.4,23.8
		c0-2.7,0-4.1,0.7-4.1l139.7-195.6l-177.2,144.5c-6.1-15.7-2.7-32.7,9.5-51.1l15-23.2c5.4-8.9,8.9-17,10.2-23.8
		C1342.4,597.6,1344.5,584.6,1351.3,571L1351.3,571z M1303.6,654.8c10.2-13.6,16.3-23.2,19.8-30c6.1-11.6,8.9-23.2,8.2-34.8
		c-0.7-13.6,6.8-24.5,20.4-32.7c-6.8,6.8-10.9,19.8-11.6,38.8c-0.7,19.1-4.8,32-11.6,38.8c-22.5,25.2-31.3,53.2-26.6,83.8
		l-10.9,25.2c-2,1.4-4.8,0.7-8.2-2.7c7.5-10.2,11.6-25.2,10.9-44.3C1294,677.3,1296.8,663,1303.6,654.8L1303.6,654.8z M1216.4,731.1
		c20.5,0.7,38.8,5.4,55.9,15c17.7,9.5,31.4,23.2,41.6,40.2c10.9,17.7,16.4,37.5,16.4,59.3c0.7,22.5-4.8,42.2-16.4,59.3
		c-10.6,16.8-24.8,30.9-41.6,41.6c-18.4,11.6-36.8,17-57.2,17c-20.9-0.6-41.2-6.5-59.3-17c-19.1-11.6-33.4-26.6-42.9-45.7
		c-9.5-19.8-12.9-41.6-10.2-65.4c1.8-22.4,10.4-43.8,24.5-61.3l32-29.3C1178.9,735.2,1198,730.5,1216.4,731.1L1216.4,731.1z
		 M1322,783.6l-8.2-11.6c-4.1-4.8-4.8-8.9-3.4-12.3l136.3-147.2l-119.9,167.6L1322,783.6L1322,783.6z M1342.4,817.7
		c-4.1,0.7-7.5-0.7-8.9-6.1c17.7-15,31.4-25.9,40.9-32c16.4-10.9,31.4-19.1,46.3-23.2c7.5-6.8,17-18.4,27.3-35.4
		c10.2-15.7,19.8-27.2,28.6-33.4l-19.8,50.4c-9.5,19.1-22.5,32-38.1,38.8c-11.6,2-24.6,7.5-39.5,17.7L1342.4,817.7L1342.4,817.7z
		 M1076.7,578.5c14.3,8.2,23.9,17,28.6,27.3c7.5,30.7,22.5,51.8,44.3,62.7c5.4,4.8,10.2,14.3,15.7,27.3
		c4.8,12.9,10.2,21.8,16.4,26.6c0.7,4.8-1.4,7.5-6.8,8.9l-13.6,3.4c-0.7-16.4-5.4-30.7-13.6-44.3c-8.2-13.6-19.1-24.5-32.7-32
		c-3.4-5.4-7.5-16.4-12.3-34.1c-4.1-14.3-10.2-24.5-18.4-31.3l-23.9-15.7c-9.5-6.8-15-14.3-17-22.5
		C1048.1,560.8,1059,569,1076.7,578.5L1076.7,578.5z M956.1,744.8l18.4-0.7c15.7-0.7,28.6,4.8,38.8,15.7c6.1,10.9,17,15.7,34.1,13.6
		l20.4-1.4c8.2,0,14.3,2,19.1,5.4c10.2,6.8,17,11.6,19.1,15.7l-4.8,10.2c-6.8-6.1-19.8-9.5-38.2-10.9c-18.4-2-30.7-6.1-38.2-12.3
		c-8.2-10.9-22.5-17-42.2-19.1l-21.8-2.7c-8.2-2.7-14.3-6.1-19.1-11.6l-4.8-4.8C942.5,744.8,948.6,745.5,956.1,744.8z M1130.5,758.4
		l-6.1,4.1L996.3,643.9l130.1,98.8l3.4,8.2C1131,753.2,1131.3,755.9,1130.5,758.4l81.1-36.8l-2.7-161.5
		c12.8,53.8,24.4,107.9,34.8,162.2l-32-0.7L1130.5,758.4L1130.5,758.4z"/>
	<path class="st0" d="M1233.4,885.1l-15.7,1.3c-6.8,1.4-11.6,0.7-15-2l-6.1,0.7l-5.4,2.7c-8.9,4.1-15.7,2-21.8-7.5l-6.1-12.3
		l-6.8-10.2l6.8,35.4l2-3.4c0.7-0.7,1.4-1.4,2.7-0.7c2,2.7,4.8,4.1,10.2,4.1c4.8,0.7,8.2,1.4,10.2,3.4l23.9,1.4
		c9.5,1.3,17,0.7,22.5-2.7c6.8-3.4,12.9-1.4,18.4,6.1c0-2.7,0.7-8.2,2.7-15l2.7-17.7c0-1.4,2-4.8,6.1-8.9c2.7-3.4,3.4-6.8,0.7-9.5
		l-12.9,20.5c-4.1-1.4-7.5,0-10.9,4.1L1233.4,885.1L1233.4,885.1z M1220.4,917.9c2.7-2,4.1-5.4,2.7-9.5l-16.4,2
		c-6.8,1.4-12.3,0-15.7-2.7l1.4,5.4c3.4,8.2,9.5,11.6,19.1,10.9C1213,922.6,1215.7,920.6,1220.4,917.9z"/>
	<path class="st0" d="M1219.1,844.9c2,4.8,0.7,8.2-4.1,9.5c-6.1,2-10.2,4.1-10.9,5.4l-11.6-0.7c-4.1-2.7-7.5-3.4-9.5-2.7l-0.7,6.1
		c-0.7,2,0,3.4,2.7,4.1l2.7-3.4l3.4-0.7c3.4,2.7,9.5,2.7,17.7,0l16.3,1.4c2.7-5.5,4.1-10.9,4.8-16.4c0-2.7-1.4-4.1-4.1-4.8
		C1223.2,842.2,1221.1,843.6,1219.1,844.9z M1302.2,827.9c-6.1-1.4-10.2,2-10.9,8.2l-11.6,31.3c-3.4,12.3-0.7,22.5,8.2,29.3
		c4.8,2,8.9,1.4,12.9-2.7c12.9-15.7,17-34.8,10.9-55.9C1311.8,832,1308.4,828.6,1302.2,827.9L1302.2,827.9z"/>
	<path class="st0" d="M1308.4,836.8l-4.8-4.8c-4.8-0.7-8.9,4.8-11.6,14.3l-7.5,24.5c-0.7,5.4,2,8.8,6.8,9.5c4.1,1.4,7.5,0,9.5-2.7
		L1308.4,836.8L1308.4,836.8z M813,917.9l-57.2,9.5c3.4,21.8,4.1,42.3,1.4,60.6l67.5-19.8L813,917.9z M1469.2,951.2l-6.8-3.4
		l-8.2-0.7c-13.6,30-27.3,52.5-41.5,67.4c-6.8,4.8-6.2,10.9,3.4,19.1C1439.9,1008.5,1457.6,981.2,1469.2,951.2L1469.2,951.2z
		 M1482.8,988.7c8.9-15,8.2-25.9-2.7-32c-16.4,36.1-35.4,64.7-56.6,86.5c1.4,5.4,4.8,10.2,9.5,12.3
		C1449.4,1039.1,1465.8,1016.6,1482.8,988.7L1482.8,988.7z M1706.3,1074.6l6.8,1.3l-10.9-38.8c-3-13-5.3-26.2-6.8-39.5l-4.1-4.1
		l-92-27.9l-19.1,49c15,8.2,35.4,17.7,63.4,30.7C1672.2,1058.2,1693.3,1068.4,1706.3,1074.6L1706.3,1074.6z M1511.4,993.5
		l-12.3-11.6c-16.4,32.7-36.1,60.6-57.9,83.1c0.7,4.1,4.1,8.9,9.5,13.6C1474,1057.5,1493.7,1028.9,1511.4,993.5L1511.4,993.5z
		 M1021.5,1048l9.5-13c-11.4-12.1-22.1-24.8-32-38.1l-15.7,8.2C998.3,1026.2,1010.6,1039.8,1021.5,1048L1021.5,1048z M1538,1007.8
		l-16.3-7.5c-15,29.3-35.4,58.6-63.4,87.2c0.7,2.7,2,5.4,4.1,8.2l6.8,7.5C1500.5,1073.2,1523.7,1041.8,1538,1007.8L1538,1007.8z
		 M863.4,1052.8l-12.3-22.5c-5.5-9.5-8.9-17-12.3-21.1l-95.4,42.3c-6.8,40.9-21.8,74.3-47,98.8L863.4,1052.8z M973.1,1009.8
		l-19.1,2.7l21.8,29.3l25.9,27.3l6.8-5.4l4.8-6.1C1001.7,1047.3,988.1,1031.6,973.1,1009.8z M1375.8,1050l-13.6,8.2l-12.9,10.2
		c0.7,4.8,2.7,9.5,5.4,14.3c15.7-8.8,26.6-16.3,34.1-23.2l-6.8-9.5H1375.8L1375.8,1050L1375.8,1050z M1732.9,1157l-0.7-0.7
		l-172.4-102.8l-21.8,33.4l111.8,83.8L1732.9,1157L1732.9,1157z M1100.5,1099.8l2.7-17c-11.6-2.7-25.2-10.2-40.2-21.8
		c-5.4,2.7-10.2,6.8-13.6,12.3l24.5,15.7C1083.5,1094.3,1092.4,1098.4,1100.5,1099.8z M1407.8,1078.7l-8.8-10.9l-18.4,12.3
		l-18.4,12.3l4.1,6.1l8.9,4.8L1407.8,1078.7L1407.8,1078.7z M1100.5,1112.7c-19.1-6.1-39.5-17-62.7-32l-10.2,9.5
		c15,12.3,36.8,24.6,64.1,36.1l6.8-6.1L1100.5,1112.7z M915.2,1122.3l-31.3-38.9c-55.2,40.2-95.4,71.6-119.2,92
		c21.8,5.4,44.3,12.3,66.8,20.4L915.2,1122.3L915.2,1122.3z M1416.7,1087.5l-32,22.5l6.1,5.5l6.1,6.8l32.7-23.2L1416.7,1087.5
		L1416.7,1087.5z M1258.6,1101.8l-1.3,16.3c16.1-1.8,31.9-5.7,47-11.6l-4.8-15l-21.1,5.4L1258.6,1101.8L1258.6,1101.8z
		 M1084.2,1135.9c-12-4.8-23.6-10.5-34.8-17l-32.7-20.4l-13,10.9c3.4,4.8,13.6,11.6,30,21.1l34.1,17l7.5-4.1L1084.2,1135.9
		L1084.2,1135.9z M1225.2,1122.9c-0.7-2-1.3-7.5-2-17c-20.5,0.7-45-1.4-74.3-7.5l-2,16.4c6.8,2.7,17.7,4.8,32.7,6.8L1225.2,1122.9
		L1225.2,1122.9z M1596.6,1189.1l-76.3-70.9l-6.8-2.7l-28.6,31.3l29.3,32.7l31.3,32.7l25.2-12.3
		C1580.9,1195.2,1589.8,1191.1,1596.6,1189.1L1596.6,1189.1z M1322,1128.4l-11.6-10.9c-18.4,6.1-36.1,10.2-52.5,11.6l-2,17.7
		C1290,1140,1311.8,1133.9,1322,1128.4L1322,1128.4z M996.3,1118.2c-6.8,4.1-11.6,8.2-15,12.3c22.9,17.3,47.6,32.2,73.6,44.3l7.5-15
		C1035.8,1146.8,1013.3,1132.5,996.3,1118.2z M1353.3,1147.5l-19.1-11.6c-25.3,10.6-51.9,17.9-79,21.8l-2,21.1
		C1297.5,1171.3,1330.2,1161.1,1353.3,1147.5z M1373.1,1172c-2.7-8.9-6.1-14.3-10.2-16.3c-32.7,16.3-69.5,27.3-111.8,33.4l-2,17.7
		C1287.9,1203.4,1329.5,1191.1,1373.1,1172L1373.1,1172z M975.1,1175.4l-25.9-19.1l-61.3,69.5l35.4,18.4L975.1,1175.4L975.1,1175.4z
		 M1732.9,1168.6l-15-0.7l-15,3.4c4.1,6.8,8.8,8.2,15,4.8C1725.4,1171.3,1730.8,1168.6,1732.9,1168.6z M720.3,1183.6l10.2-8.9
		l-23.2-4.8l-1.4,3.4L720.3,1183.6L720.3,1183.6z M1414,1195.9c14.3,27.9,28.6,51.8,41.6,72.9l39.5-30l-46.4-64L1414,1195.9
		L1414,1195.9z M1702.2,1187c-12.3-12.9-25.2-15-39.5-7.5l38.8,27.9L1702.2,1187z M781.6,1187l-26.6-6.1l-40.9,30l-6.8,37.5
		L781.6,1187z M1653.8,1190.4c-2.7-4.8-7.5-6.8-13.6-6.1c-2.7,0-7.5,1.4-15,4.8l109,91.3c-10.5-13.7-19-28.9-25.2-45L1653.8,1190.4
		L1653.8,1190.4z M956.1,1262.6l33.4,23.2c21.1-39.5,34.8-65.4,40.2-78.4l-27.9-15.7L956.1,1262.6L956.1,1262.6z M823.9,1201.3
		l-25.2-8.2l-107,90.6l-21.8,32l30-4.1L823.9,1201.3L823.9,1201.3z M1661.3,1234.7l-49.8-41.6l-8.8,3.4c-2.7,1.3-4.8,3.4-6.2,4.8
		l72.9,66.8l40.9,9.5L1661.3,1234.7L1661.3,1234.7z M1582.3,1205.4l-13.7,8.2l50.4,53.2l13.6-1.4l12.3-0.7L1582.3,1205.4
		L1582.3,1205.4z M856.6,1214.9l-19.8-7.5l-107,108.3l19.1,12.9l54.5-55.9L856.6,1214.9L856.6,1214.9z M1384,1213.6l-32.7,12.9
		c13.6,41.6,25.9,75,37.5,102.2l32.7-30.6L1384,1213.6L1384,1213.6z M1542.7,1214.9l-42.9,26.6l156,210.6
		c36.1-14.3,64-22.5,83.1-23.9v-2L1542.7,1214.9L1542.7,1214.9z M1094.4,1232.6l-17-5.4l-17-6.1l-37.5,92.7l36.1,36.1L1094.4,1232.6
		z M761.9,1345.8l8.2,13.6l113.8-131.5c-2.7-2-6.8-4.1-12.9-6.1L761.9,1345.8z M1313.1,1238.8l-43.6,7.5l12.9,96.8
		c5.4,39.5,10.2,71.5,15,96.8c16.3-24.6,32.7-47,50.4-67.5L1313.1,1238.8L1313.1,1238.8z M1097.8,1394.1
		c15.7,19.1,30.7,38.2,43.6,57.9l0.7-0.7l27.9-203.1l-36.8-6.8L1097.8,1394.1z M764.6,1458.2c-1.1,2-2.5,3.9-4.1,5.4
		c-2,1.4-3.3,3.7-3.4,6.1c13.6,2,32.7,7.5,55.9,16.4l70.2-111.1l69.5-111.7l-29.3-15.7L764.6,1458.2z M1216.4,1608.1
		c11.6-25.2,22.5-45,32.7-59.3l-7.5-300.5l-38.8,0.7l-11.6,293L1216.4,1608.1z M1464.4,1288.5l-10.9-15
		c-14.3,10.9-23.8,19.8-27.9,25.9l111,239.9l46.3-41.6v-2L1464.4,1288.5z M928.8,1405.1l-60,115.8c19.1,15,35.4,29.3,49.7,43.6
		l0.7-2l100.9-247.3l-30-25.2L928.8,1405.1L928.8,1405.1z M1391.5,1345.1l-5.4-10.9l-36.1,38.9l85.2,333.2
		c19.8-45,36.8-78.4,50.4-98.1L1391.5,1345.1L1391.5,1345.1z M1096.4,1396.2c-9.5-12.3-21.8-25.2-36.8-39.5L975.1,1632
		c8.2,13.6,23.9,39.5,45.7,79.1h2L1096.4,1396.2z M1616.3,1553.6c-3.4-6.1-9.5-12.3-19.8-18.4c-13.6-4.1-25.2-2-35.4,6.1
		c-12.3,11.6-15.7,24.5-10.9,39.5c4.8,12.3,13.6,19.8,27.3,22.5c10.2,1.4,21.8-2,34.1-10.9
		C1620.4,1579.5,1621.8,1566.5,1616.3,1553.6L1616.3,1553.6z M1474,1140l-15-13.6c-17.8,16.4-37.2,31-57.9,43.6l-6.8,23.8
		C1415.3,1184.9,1441.2,1167.2,1474,1140L1474,1140z M1233.4,885.1l-15.7,1.3c-6.8,1.4-11.6,0.7-15-2l-6.1,0.7l-5.4,2.7
		c-8.9,4.1-15.7,2-21.8-7.5l-6.1-12.3l-6.8-10.2l6.8,35.4l2-3.4c0.7-0.7,1.4-1.4,2.7-0.7c2,2.7,4.8,4.1,10.2,4.1
		c4.8,0.7,8.2,1.4,10.2,3.4l23.9,1.4c9.5,1.3,17,0.7,22.5-2.7c6.8-3.4,12.9-1.4,18.4,6.1c0-2.7,0.7-8.2,2.7-15l2.7-17.7
		c0-1.4,2-4.8,6.1-8.9c2.7-3.4,3.4-6.8,0.7-9.5l-12.9,20.5c-4.1-1.4-7.5,0-10.9,4.1L1233.4,885.1L1233.4,885.1z M1220.4,917.9
		c2.7-2,4.1-5.4,2.7-9.5l-16.4,2c-6.8,1.4-12.3,0-15.7-2.7l1.4,5.4c3.4,8.2,9.5,11.6,19.1,10.9
		C1213,922.6,1215.7,920.6,1220.4,917.9z M1131.2,836.8c-2.7-3.4-5.4-4.1-8.9-2.7c-4.1,4.1-5.4,12.9-4.1,27.2l8.9,22.5
		c4.1,8.8,9.5,13.6,17.7,15c2-0.7,3.4-1.4,3.4-3.4l1.4-5.4c-4.1-17-8.2-32-13.6-45L1131.2,836.8z M1139.4,891.3l-13.6-23.2
		c-5.4-10.9-5.4-20.4-1.4-27.9c10.9,10.2,17,25.9,19.8,47.7c0,2.7-0.7,3.4-2,3.4H1139.4z"/>
	<path class="st0" d="M1219.1,844.9c2,4.8,0.7,8.2-4.1,9.5c-6.1,2-10.2,4.1-10.9,5.4l-11.6-0.7c-4.1-2.7-7.5-3.4-9.5-2.7l-0.7,6.1
		c-0.7,2,0,3.4,2.7,4.1l2.7-3.4l3.4-0.7c3.4,2.7,9.5,2.7,17.7,0l16.3,1.4c2.7-5.5,4.1-10.9,4.8-16.4c0-2.7-1.4-4.1-4.1-4.8
		C1223.2,842.2,1221.1,843.6,1219.1,844.9z M1278.4,785.7l-2-3.4c-22.5-4.1-38.8-3.4-48.4,3.4c13.6-1.3,21.8,0,25.9,4.1
		c2,6.1,0,9.5-5.4,8.2l-13.6,0.7l-5.4,2.7c-2,1.4-2.7,2-2,4.8h10.2c4.1-1.4,7.5,0,10.2,2c-0.7,3.4-2.7,5.4-6.8,6.8l-9.5,3.4
		c0,10.2,2,17,7.5,21.8c0.7,0.7,2,1.4,4.1,1.4l4.8-0.7l-2.7-7.5c-0.7-3.4,0-5.4,2.7-6.8l5.4,6.8l13.6-2l12.9-4.1
		c-0.7-2.7,1.4-6.1,4.8-10.2c4.1-3.4,5.4-6.1,4.8-8.9l-8.9,3.4c-3.4,1.4-6.1,2.7-8.8,2c-5.5-2.7-6.8-7.5-2-13L1278.4,785.7
		L1278.4,785.7z M1264.1,819.7c1.3,1.4,0.7,3.4-1.4,5.4h-3.4c-2.7-2-2.7-4.1,0-5.4C1261.3,819,1263.4,819,1264.1,819.7z M1138,825.9
		c-2.7,4.1-2.7,7.5-2,10.2c2-1.4,5.4-4.8,9.5-10.9c4.1-5.4,8.2-8.2,12.9-7.5l5.4,7.5c1.4,2.7,4.1,4.1,6.8,3.4
		c0.7,3.4-0.7,5.4-4.1,6.8l-6.1,4.8c6.1,0,11.6-2,16.4-8.2l7.5-10.2c2.7-3.4,3.4-7.5,1.4-12.3c-4.1-1.4-5.4-4.1-4.1-8.2
		c1.4-5.4,1.4-8.9,0-10.9c-3.4-6.1-9.5-8.2-17.7-8.2l-21.1,5.4c-0.7,2.7,0.7,4.8,4.1,4.8s6.1,0.7,6.8,2c-0.7,2.7-2.7,4.8-6.1,5.4
		l-9.5,1.4l-4.8,4.8c-2,1.4-2.7,3.4-2,4.8l5.4-1.4l4.8-2.7l12.9-3.4l12.3,1.4c-0.7,6.1-4.8,9.5-12.3,9.5h-8.9l-7.5,1.4
		C1139.4,817.7,1139.4,821.1,1138,825.9L1138,825.9z M1177.5,815.6l-1.4,4.1c-1.4,0-2.7,0-3.4-1.4l-1.4-4.1
		C1174.1,812.2,1176.2,812.9,1177.5,815.6L1177.5,815.6z"/>
</g>
</svg>
