<?xml version="1.0" encoding="utf-8"?>
<!-- Generator: Adobe Illustrator 25.0.1, SVG Export Plug-In . SVG Version: 6.00 Build 0)  -->
<svg version="1.1" id="Layer_1" xmlns="http://www.w3.org/2000/svg" xmlns:xlink="http://www.w3.org/1999/xlink" x="0px" y="0px"
	 viewBox="0 0 2426.4 415.2" style="enable-background:new 0 0 2426.4 415.2;" xml:space="preserve">
<style type="text/css">
	.st0{fill-rule:evenodd;clip-rule:evenodd;fill:#FFFFFF;}
</style>
<g>
	<path class="st0" d="M2248.7,162.8L2292.6,0l-151.1,162.8l-705-0.3c-4.4,0.1-4.1,2.3-0.3,2.3c2.6-0.1,692.5,11.9,692.5,11.9
		c-55.4,59.7-86,92.7-86.8,93.5c-2.2,2.2-0.4,4,2.4,1.3c0,0,40.4-38,97.6-94.6l88.1,1.5c-5.8,25.1-10.7,49.3-16.9,76.2
		c-108.5,58.7-283.3,152.8-283.3,152.8c-2.5,1.3-1.7,3,0.4,2c1.1,0,164.7-83.3,279.8-141.1c-11.1,48.2-21.7,96.6-31.8,145
		c-0.1,2.3,1.7,2.4,1.7,0.7c0.5-0.7,17.4-60.5,41.9-151.5c102.9-51.6,204.6-99.7,204.6-99.7L2248.7,162.8L2248.7,162.8z
		 M2156.6,162.8c53.4-52.9,97.4-94.3,97.4-94.3s-7.3,36.1-20.6,94.3H2156.6l87.8,15.8l106.2,1.6c0,0-53.3,29.5-125,68.2
		c6.5-24.2,12.3-45.8,18.8-69.8L2156.6,162.8L2156.6,162.8z M16.8,215.3h31.4l-12.3,57.9h28.9l-4.5,21.3H0L16.8,215.3z M172.8,213.2
		c-27.3,0-44.5,17-49.8,41.7c-5.2,24.7,4.7,41.7,32.1,41.7c27.3,0,44.5-17,49.8-41.7C210.1,230.2,200.2,213.2,172.8,213.2z
		 M172.4,254.9c-3.9,18.3-8.1,21.1-12.9,21.1c-4.8,0-7.9-2.8-4-21.1c3.8-17.9,7.9-21,12.9-21C173.5,233.9,176.2,237,172.4,254.9z
		 M336.5,265.2c-4.6,21.8-24.1,31.4-43.7,31.4c-27.7,0-37-16.9-31.6-42c4.5-24.7,22.7-41.3,49.5-41.3c20,0,35.1,8.1,30.3,31.4h-28.7
		c1.5-9-1.4-10.7-5.3-10.7c-8.1,0-10.7,8.3-13.4,21c-2.6,12.1-3.8,21.1,4.1,21.1c4.1,0,7.3-2.4,9.5-10.8L336.5,265.2L336.5,265.2z
		 M414.8,215.3h30.7l-7.2,34h0.2l23.4-34H495l-29.1,37.3l15.2,41.9h-34L436.5,259h-0.3l-7.5,35.5H398L414.8,215.3L414.8,215.3z
		 M593.4,265.3H580l-6.2,29.2h-31.4l16.8-79.2h31.4l-5.7,26.7h13.4l5.7-26.7h31.4l-16.8,79.2h-31.4L593.4,265.3z M706,215.3h60.2
		l-4.4,20.6h-30.2l-1.8,8.5h27.9l-4.4,20.6h-27.8l-1.9,8.9h31.2l-4.4,20.6h-61.2L706,215.3L706,215.3z M838.9,215.3h60.3l-4.4,20.6
		h-30.2l-1.8,8.5h27.9l-4.4,20.6h-27.9l-1.9,8.9h31.2l-4.4,20.6h-61.2L838.9,215.3L838.9,215.3z M1009,215.3h-37.2L955,294.5h39.1
		c24.3,0,43.1-14.8,48.1-38.8C1047.2,232.3,1040.7,215.3,1009,215.3L1009,215.3z M1009.9,254.9c-1.6,7.7-3.5,13.3-6.3,16.6
		c-2.7,3.3-6.8,5.2-11.1,5h-3.1l9.2-43.2h3.1c5.1,0,7.6,1.9,8.9,5C1012.1,241.6,1011.5,247.2,1009.9,254.9L1009.9,254.9z
		 M1247.4,237.9h-0.2l-23.2,56.6h-28.8l0.8-56.6h-0.2l-12.1,56.6h-26.5l16.8-79.2h43.5l-1.3,47.2h0.2l18.7-47.2h43.6l-16.8,79.2
		h-26.6L1247.4,237.9L1247.4,237.9z M1405.5,215.3h-40.7l-42.2,79.2h30l5.9-12.7h22.7l0.4,12.7h32.5L1405.5,215.3z M1380.8,262.5
		h-13.3l13.2-29.9h0.3L1380.8,262.5L1380.8,262.5z"/>
	<path class="st0" d="M1545.1,215.3h-46.9l-16.8,79.2h30.7l6-28.2h3.6c5,0,6.5,1.5,6.2,5.5c0,6.8-1.1,16.8-0.5,22.7h30.7
		c-1.1-12,1.2-23.2,0.9-29.9c0-6.1-3.4-9.5-11-10.1l0.1-0.2c12.4-2.8,17.8-9.8,19.7-18.9C1571,220.5,1562.1,215.3,1545.1,215.3
		L1545.1,215.3z M1536.7,240.3c-1.3,5.9-6.1,8-12.1,8h-2.6l3.2-15h2.9C1534.1,233.3,1537.9,234.5,1536.7,240.3L1536.7,240.3z
		 M1654.9,236.6h-19.5l4.5-21.3h70.5l-4.5,21.3h-19.5l-12.3,57.9h-31.4L1654.9,236.6z M1780,215.3h31.4l-16.9,79.2h-31.3L1780,215.3
		z M1886.4,215.3h37.6l6.6,47.9h0.3l10.2-47.9h25.4l-16.8,79.2h-37.6l-6.5-48.3h-0.2l-10.3,48.3h-25.5L1886.4,215.3L1886.4,215.3z"
		/>
</g>
</svg>
