<?xml version="1.0" encoding="utf-8"?>
<!-- Generator: Adobe Illustrator 25.0.1, SVG Export Plug-In . SVG Version: 6.00 Build 0)  -->
<svg version="1.1" id="Layer_1" xmlns="http://www.w3.org/2000/svg" xmlns:xlink="http://www.w3.org/1999/xlink" x="0px" y="0px"
	 viewBox="0 0 1348.2 153.5" style="enable-background:new 0 0 1348.2 153.5;" xml:space="preserve">
<style type="text/css">
	.st0{fill:#FFFFFF;}
</style>
<g>
	<g>
		<path class="st0" d="M0,147.2l8.1-8.1c2-2,3-4.2,3-6.7V4.9h2L109.5,92V28c0-2.5-1-4.7-3-6.7l-8.1-8.1v-2h51v2l-8.1,8.1
			c-2,2-3,4.2-3,6.7v126.5h-2L40,67.2v65.2c0,2.5,1,4.7,3,6.7l8.1,8.1v2H0V147.2z"/>
		<path class="st0" d="M163.7,147.2l8.1-8.1c2-2,3-4.2,3-6.7V28c0-2.5-1-4.7-3-6.7l-8.1-8.1v-2h81.4c14.2,0,25.1,3.2,32.6,9.7
			c7.6,6.4,11.3,15,11.3,25.6c0,16-8.3,26.1-24.8,30.1V77c20.4,3.5,30.5,14.8,30.5,33.7c0,12.6-4.4,22.2-13.3,28.7
			s-21.2,9.8-37.1,9.8h-80.6L163.7,147.2L163.7,147.2z M241.1,65.8c11.2,0,16.7-4.9,16.7-14.6c0-4.6-1.4-8.3-4.2-11
			c-2.8-2.8-7-4.1-12.5-4.1h-34.9v29.7H241.1z M240.5,123.9c14.8,0,22.3-5.8,22.3-17.5c0-11-7.4-16.5-22.3-16.5h-34.3v34.1
			C206.3,123.9,240.5,123.9,240.5,123.9z"/>
		<path class="st0" d="M332.5,132.5c-13.7-12.9-20.5-30.2-20.5-51.9c0-21.8,6.9-39.2,20.7-52.2S364,8.9,385.1,8.9
			c4.7,0,10.5,0.4,17.3,1.3c6.8,0.9,11.1,1.3,12.8,1.3c5,0,9.6-1.6,13.8-4.9l2,0.8L419.2,54l-2.2-0.6c-1.4-5-4.7-9.3-9.8-13
			c-5.1-3.7-11.8-5.5-20.2-5.5c-12,0-21.8,4.2-29.6,12.5s-11.7,19.5-11.7,33.4c0,13.5,3.7,24.5,11,32.8s17,12.5,29,12.5
			c13.9,0,24.9-5.4,32.9-16.4l18.5,21.5c-12.9,13.8-30.4,20.7-52.6,20.7C363.5,151.9,346.2,145.4,332.5,132.5z"/>
		<path class="st0" d="M475.7,137.3c-10.8-9.7-16.2-23.8-16.2-42.4V28c0-2.5-1-4.7-3-6.7l-8.1-8.1v-2h53.2v2l-8.1,8.1
			c-2,2-3,4.2-3,6.7v67.8c0,10,2.4,17.5,7.3,22.5c4.9,5,11.8,7.5,20.9,7.5c8.9,0,15.8-2.5,20.6-7.6s7.2-12.5,7.2-22.4V28
			c0-2.5-1-4.7-3-6.7l-8.1-8.1v-2h53.6v2l-8.1,8.1c-2,2-3,4.2-3,6.7v67c0,18.5-5.4,32.6-16.3,42.4c-10.8,9.7-25.2,14.6-43,14.6
			C500.9,151.9,486.5,147,475.7,137.3z"/>
		<path class="st0" d="M603.6,147.2l8.1-8.1c2-2,3-5,3-9.1V73.7c0-4.1-1-7.1-3-9.1l-8.1-8.1v-2h39.8v16.9c2.2-5.4,6.3-9.8,12.3-13.4
			s12.4-5.3,19.4-5.3c10.2,0,18.2,3.3,23.8,9.9s8.5,15.8,8.5,27.6V130c0,4.1,1,7.1,3,9.1l8.1,8.1v2h-40.6V96.7
			c0-5.6-1.3-10.1-3.9-13.5c-2.6-3.3-6.5-5-11.6-5c-6,0-10.6,1.9-13.6,5.6c-3,3.7-4.5,8.6-4.5,14.5V130c0,4.1,1,7.1,3,9.1l8.1,8.1v2
			h-51.6L603.6,147.2L603.6,147.2z"/>
		<path class="st0" d="M727.3,147.2l8.1-8.1c2-2,3-5,3-9.1V73.7c0-4.1-1-7.1-3-9.1l-8.1-8.1v-2h40.6V130c0,4.1,1,7.1,3,9.1l8.1,8.1
			v2h-51.6V147.2z M740.6,35.7c-3.5-3.3-5.2-7.4-5.2-12.2s1.7-8.9,5.2-12.2c3.5-3.3,7.6-4.9,12.3-4.9s8.8,1.6,12.3,4.9
			c3.5,3.3,5.2,7.4,5.2,12.2s-1.7,8.9-5.2,12.2s-7.6,4.9-12.3,4.9S744.1,38.9,740.6,35.7z"/>
		<path class="st0" d="M795.9,75.6c-4.5-8.7-9.5-15-15-18.9v-2.2h36.2l19.5,45.7h0.4l17.1-45.7H891v2.2c-5.6,3.9-10.6,10.2-15,18.9
			l-39,77.8h-2L795.9,75.6z"/>
		<path class="st0" d="M908,138.8c-9.3-8.7-14-20.5-14-35.4c0-15,4.6-27.2,13.8-36.5s21.7-14.1,37.4-14.1c15.2,0,26.7,4.4,34.3,13.3
			c7.6,8.9,11.4,20.8,11.4,35.8c0,3-0.1,5.8-0.4,8.5h-66.2c0.7,5,3.1,9.2,7.3,12.6c4.2,3.4,9.8,5.1,16.7,5.1
			c8.8,0,15.6-2.6,20.3-7.9l16.4,19.3c-8.9,8.3-22,12.4-39.2,12.4C929.9,151.9,917.3,147.5,908,138.8z M929.6,80.2
			c-3.4,3.5-5.3,7.9-5.7,13h37c-0.3-5.4-1.9-9.8-4.9-13.2c-3-3.4-7.3-5.1-12.8-5.1C937.6,74.9,933,76.6,929.6,80.2z"/>
		<path class="st0" d="M1004.5,147.2l8.1-8.1c2-2,3-5,3-9.1V73.7c0-4.1-1-7.1-3-9.1l-8.1-8.1v-2h39.8v19.1c2.2-6,5.9-11,11-15
			c5.1-3.9,11-5.9,17.7-5.9c4.9,0,9,0.9,12.4,2.8l-7.7,29.6c-4.2-3.7-8.9-5.5-14.2-5.5c-5.8,0-10.3,1.9-13.6,5.7
			c-3.3,3.8-4.9,9.2-4.9,16.2V130c0,4.1,1,7.1,3,9.1l8.1,8.1v2h-51.6L1004.5,147.2L1004.5,147.2z"/>
		<path class="st0" d="M1088.6,139.1l13.8-20.1c8.8,7.2,19.4,10.8,31.7,10.8c8.4,0,12.6-2.6,12.6-7.9c0-2.5-1.1-4.4-3.3-5.7
			c-2.2-1.3-5-2.2-8.6-2.8c-3.5-0.5-7.6-1.2-12-2c-19.3-3.3-29-12.5-29-27.8c0-10.9,3.8-18.8,11.5-23.6s17.4-7.3,29.3-7.3
			c4.6,0,9.4,0.4,14.5,1.3c5.1,0.9,8.4,1.3,10.1,1.3c4.3,0,8.7-1.6,13-4.9l2,0.8l-9.3,36.1l-2-0.6c-3.9-8.4-12.8-12.6-26.6-12.6
			c-8.3,0-12.4,2.4-12.4,7.3c0,2.2,1,4,3.1,5.3c2,1.3,4.8,2.2,8.2,2.7c3.4,0.5,7.3,1.1,11.6,1.9c8.5,1.4,15.7,4.3,21.4,8.7
			c5.7,4.3,8.6,10.6,8.6,18.9c0,10.5-4,18.7-11.9,24.4s-18.9,8.7-32.8,8.7C1113.5,151.9,1099,147.6,1088.6,139.1z"/>
		<path class="st0" d="M1197.2,144.3c-5.8-5.1-8.7-11.7-8.7-20c0-10.4,3.8-18.1,11.3-23.2c7.6-5.1,19.3-7.8,35.4-8.1
			c5-0.1,8.4-0.8,10.2-1.9c1.8-1.1,2.8-3.1,2.8-5.8c0-2.8-1.4-5.1-4.2-6.9c-2.8-1.8-7.1-2.8-12.9-2.8c-8.8,0-16.8,3.3-24,9.9
			l-15.4-18.1c9.7-9.7,23.8-14.6,42.4-14.6c15,0,26,3,33,9.1c7,6,10.5,15.2,10.5,27.6V130c0,4.1,1,7.1,3,9.1l8.1,8.1v2h-39.8v-12.8
			c-2.4,4.6-6.2,8.3-11.4,11.2c-5.3,2.9-11.4,4.3-18.3,4.3C1210.2,151.9,1202.9,149.4,1197.2,144.3z M1243.1,125.8
			c3.4-3.5,5.1-7.7,5.1-12.5v-6.5c-1.7,0.7-5.8,1.2-12.4,1.6c-11.8,0.7-17.7,4.7-17.7,12.2c0,3,1,5.5,3,7.5c2,2,4.9,3,8.9,3
			C1235.2,131,1239.6,129.3,1243.1,125.8z"/>
		<path class="st0" d="M1296.6,147.2l8.1-8.1c2-2,3-5,3-9.1V19.1c0-4.1-1-7.1-3-9.1l-8.1-8.1V0h40.6v130c0,4.1,1,7.1,3,9.1l8.1,8.1
			v2h-51.6V147.2z"/>
	</g>
</g>
</svg>
