<?xml version="1.0" encoding="utf-8"?>
<!-- Generator: Adobe Illustrator 25.0.1, SVG Export Plug-In . SVG Version: 6.00 Build 0)  -->
<svg version="1.1" id="Layer_1" xmlns="http://www.w3.org/2000/svg" xmlns:xlink="http://www.w3.org/1999/xlink" x="0px" y="0px"
	 viewBox="0 0 2426.5 296.6" style="enable-background:new 0 0 2426.5 296.6;" xml:space="preserve">
<style type="text/css">
	.st0{fill-rule:evenodd;clip-rule:evenodd;fill:#FFFFFF;}
</style>
<g>
	<path class="st0" d="M748.6,109.1L684.7,8H569.6l124.1,174.7v94.7h107.6v-96.3L926.8,8H812.5L748.6,109.1L748.6,109.1z
		 M1919.5,172.3c-0.7,29.9-12.9,54.7-56.7,54.7c-50,0-56.5-27.5-56.5-54.7V8h-109v154.8c0,95,47.2,121.9,162,121.9
		c123.2,0,168.5-33.1,168.5-121.5V8.1h-108.4L1919.5,172.3L1919.5,172.3L1919.5,172.3z M2165.5,79.3c0.1-10,11.9-21.3,38.6-21.3
		c11.9,0,26.8,1.5,35.6,5c6.9,2.7,15.2,10.4,19.4,18.2l116.6,0.7C2364.5,36.2,2317.3,0,2218.2,0c-92.7,0-160.9,29.5-160.7,88.1
		c0.2,112,212.1,68.8,213.3,118.3c0.3,13-20.1,25.9-50.5,25.9c-11.9,0-30.2-7.1-38.7-12.5c-9.5-6-17.5-11.9-20.1-21.8H2045
		c2.6,49.8,70.6,92.3,168.5,92.3c102,0,173.1-31,173.7-95C2388,92.8,2165,123.5,2165.5,79.3L2165.5,79.3z"/>
	<path class="st0" d="M522.7,7.7H406.9v269.1h259.3v-59.9H522.7V7.7z M1125.1,176.4L1049.8,7.7H935.5v269.1h96.2V140.2l61.3,136.6
		h62.7l59.9-133.8v133.8h96.2V7.7h-111.5L1125.1,176.4L1125.1,176.4z M194.2,0.1C78.8,0.1,0,56.4,0,142.9
		c0,93.8,77.8,153.7,194.2,153.7c109.7,0,194.8-59.1,194.8-152.9C389,70.9,326.6,0.1,194.2,0.1z M194.2,235.2
		c-60.6,0-75.6-50.7-75.6-89.5c0-38.4,17.2-84.1,74.5-84.1c55.7-1.3,77.2,42.7,77.2,84.1C270.3,195.9,248.8,235.2,194.2,235.2z
		 M1563,8h-209.4v268.7h106.9v-97.6h87.1c106.7,0,130.4-30.5,130.4-89.9C1678,32.5,1643.3,7.7,1563,8L1563,8z M1517.3,118.7h-56.8
		V63h56.1c25.8,0,49.6,2,49.6,27.7C1566.2,114.4,1545.6,118.7,1517.3,118.7z M2403,6.3c-13,0-23.5,10.5-23.5,23.5
		s10.5,23.5,23.5,23.5s23.5-10.5,23.5-23.6C2426.4,16.8,2415.9,6.3,2403,6.3z M2403,50.5c-11.4,0-20.7-9.2-20.7-20.6
		s9.2-20.7,20.6-20.7c11.4,0,20.7,9.2,20.7,20.6C2423.6,41.2,2414.4,50.4,2403,50.5z"/>
	<path class="st0" d="M2415,23.6c0-2.2-1-4.6-2.9-5.7c-2-1.2-4.2-1.3-6.4-1.3h-11.5v26.3h3.2V30.8h5.9l7.5,12.1h3.8l-8-12.1
		C2411.4,30.6,2415,28.7,2415,23.6L2415,23.6z M2402.4,28.2h-4.9v-9.3h7.5c3.3,0,6.8,0.5,6.8,4.6
		C2411.8,28.8,2406.1,28.2,2402.4,28.2L2402.4,28.2z"/>
</g>
</svg>
