<?xml version="1.0" encoding="utf-8"?>
<!-- Generator: Adobe Illustrator 25.0.1, SVG Export Plug-In . SVG Version: 6.00 Build 0)  -->
<svg version="1.1" xmlns="http://www.w3.org/2000/svg" xmlns:xlink="http://www.w3.org/1999/xlink" x="0px" y="0px"
	 viewBox="0 0 600.1 163.9" style="enable-background:new 0 0 600.1 163.9;" xml:space="preserve">
<style type="text/css">
	.st0{fill:#FFFFFF;}
</style>
<g id="layer">
	<path class="st0" d="M599.1,26.9c0-0.3-0.1-0.6-0.2-0.8h-1.3c-3,0-4.9,0.1-10.4,0.1c-1.9,0-4.6-0.1-5.3-0.1h-1.6
		c-0.2,0.1-0.2,0.8-0.2,1c0,0.4,0.1,0.7,0.3,1c2.1,0.3,4.2,0.9,6.2,1.7c1.1,1.9,1.8,4,1.8,6.2c0.1,0.9,0.1,1.8,0.1,4.3v12.6
		c0,0.9,0,1.7-0.1,2.6c-1-1.1-2.5-3.3-4.9-6l-20.2-22.3c-0.3-0.3-0.6-0.6-0.9-0.8c-0.5,0-1.3-0.1-1.8-0.1c-3.9,0-10.9-0.2-11.9-0.2
		c-0.1,0.3-0.2,0.5-0.2,0.8c0,0.4,0.1,0.8,0.2,1.2c1.7,0.3,3.3,1.1,4.5,2.3c1.2,1.1,2.3,2.4,3.2,3.8c0.2,0.6,0.3,1.3,0.2,1.9
		c0,3.1-0.2,7.5-0.2,11.8v12.3c0,1.5-0.1,3.1-0.4,4.6c-1.8,1.6-4,2.7-6.3,3.1c-0.1,0.3-0.2,0.7-0.2,1.1c0,0.2,0.1,0.8,0.2,0.8h1.1
		c1.2,0,4-0.2,5.8-0.2c2.7,0,4.5,0.2,6.9,0.2h3.6c0.2-0.1,0.3-0.8,0.3-1c0-0.3-0.1-0.7-0.2-1c-2.8-0.3-5.4-1.7-7.2-3.7
		c-0.5-2.5-0.8-5-0.8-7.5c0-1.9-0.1-4.6-0.1-8.1c0-4.8,0.1-8.9,0.1-11c0.4,0.4,0.8,1,1.1,1.3l27.9,31.3c0.5,0.3,1.1,0.4,1.7,0.4
		c0.2,0,0.5,0,0.7-0.1c0.4-0.9,0.5-1.8,0.5-2.7c0-1.7-0.1-3.6-0.1-4.5V38c0-7.5,3.6-9.7,7.7-9.8C599.1,27.7,599.1,27.3,599.1,26.9
		 M530,46.1c0,9.1-2.5,17.1-6,20c-1.8,1.5-4.1,2.2-6.4,2.2c-3.2,0.2-6.3-1.4-8-4c-2.5-4.8-3.7-10.2-3.6-15.7c0-8.4,2.2-15,6-18.2
		c1.7-1.5,4-2.3,6.3-2.3c3.2,0,6.3,1.5,8.2,4.2C528.9,35.3,530,39.9,530,46.1 M540.9,47.3c0.3-7.8-3.8-15.1-10.7-18.8
		c-3.5-2-7.4-3.1-11.5-3.1c-8.2,0.1-15.9,4.3-20.3,11.2c-2.3,3.7-3.5,7.9-3.5,12.2c0,6.9,3.2,13.4,8.6,17.7c4,2.9,8.8,4.4,13.8,4.3
		c3.1,0,6.2-0.6,9.2-1.7c3.2-1.2,6.1-3.2,8.4-5.7C538.9,59,541,53.2,540.9,47.3 M487.9,39.7V27.4c0-0.9-0.4-1.1-1.3-1.1
		c-1.8,0-11.3,0.2-21,0.2c-7.5,0-13.7-0.1-17.1-0.1H444c-0.8,0-1,0.2-1,1v11.5c0.3,0.2,0.6,0.3,1,0.2c0.4,0,0.9,0,1.3-0.1
		c2.7-5.5,5.2-8.4,8.4-10.1c1.8-0.2,5.4-0.2,6.3-0.2c0.1,0.7,0.1,2.8,0.2,5.3c0.1,4.3,0.1,6.2,0.1,16.5c0,8.9-0.1,12.9-0.2,13.8
		c-0.2,1.7,0.1,3-7.2,3.3c-0.2,0.4-0.2,0.9-0.2,1.4c0,0.3,0,0.6,0.1,1h2.3c2.2,0,7.5-0.2,9.7-0.2c1.7,0,7.4,0.2,11,0.2h1.7
		c0.2-0.4,0.2-0.8,0.2-1.3c0-0.4-0.1-0.8-0.2-1.1c-2.1,0.2-4.3-0.2-6.2-1.1c-0.4-1.5-0.6-3-0.5-4.5c-0.1-6.5-0.1-9-0.1-13.3
		c0-5.6,0.1-9.4,0.1-19.8c0.8,0,2.8-0.1,4.6,0c2.9,0.6,5.4,2.2,7.2,4.6c1.3,2.1,2.4,4.3,3.2,6.6c0.3,0.1,0.7,0.1,1,0.1
		C487.1,39.9,487.5,39.8,487.9,39.7 M435.9,59.3c0-0.6,0-1.2-0.1-1.7c-0.3-0.2-0.6-0.2-0.9-0.2c-0.4,0-0.9,0-1.3,0.1
		c-1.4,3.6-3.7,6.7-6.6,9.2c-1.4,0.6-3,0.8-4.5,0.7h-4.9c-1.3,0-2.7-0.1-4-0.3c-0.9-0.2-1.9-1.6-2.3-2.6c-0.6-1.2-0.8-2.5-0.7-3.8
		V47.5h2.2c1.3,0,2.5,0.3,3.7,0.8s2.1,1.4,2.7,2.5c0.5,1.6,0.9,3.3,1,5c0.5,0.2,1,0.3,1.6,0.2c0.4,0,0.8-0.1,1.2-0.3
		c0-1.6-0.4-6-0.4-8.4c0-3,0.4-7.2,0.6-9.3c-0.4-0.2-0.8-0.3-1.2-0.2c-0.5,0-1.1,0-1.6,0.2c-0.2,0.8-0.8,3.4-1,3.6
		c-0.9,1.5-2.4,2.6-4.1,3.1c-1.1,0.3-2.3,0.4-3.5,0.5h-1.2v-5.6c0-5.8,0.1-7.7,0.2-8.8c0.1-0.7,0.2-1.5,0.2-2.1
		c1.2-0.1,2.4-0.2,3.6-0.1c3.5,0,5.1,0.1,5.7,0.1c1.4,0,2.7,0.4,3.9,1.2c2.4,2.1,4.3,4.6,5.8,7.5c0.4,0.1,0.8,0.1,1.3,0.1
		c0.4,0,0.4-0.1,0.9-0.4c0-3.7-0.2-8.4-0.4-10c-0.1-0.6-0.2-0.8-1.4-0.8c-0.5,0-2.8-0.1-5.2-0.1c-3.4,0-4.8,0.1-10.1,0.1
		c-2.8,0-8.7,0.1-11.2,0.1c-3.6,0-6.7-0.1-8.3-0.1h-2c-0.2,0.3-0.3,0.6-0.3,1s0.1,0.8,0.3,1.2c1.5,0.1,3,0.3,4.4,0.7
		c1.3,0.9,2.1,2.3,2.2,3.9c0.1,1.3,0.2,4.8,0.2,7.5V53c0,2.5-0.1,6.2-0.1,7.7c-0.1,2-0.6,3.9-1.3,5.7c-1.7,0.6-3.6,0.9-5.4,0.9
		c-0.2,0.4-0.3,0.9-0.3,1.3s0.1,0.8,0.3,1.1h2c1.9,0,9.1-0.2,10.7-0.2c1.5,0,4.4,0.1,7.9,0.1c1.9,0,7.6,0.4,19.8,0.4
		c0.5,0,1.1,0,1.6-0.1c0.2-0.3,0.3-0.6,0.2-1C435.9,67.7,435.9,64.2,435.9,59.3 M384.8,61.4c-0.3-0.9-1.1-1.5-2.1-1.4
		c-0.1,0-0.3,0.1-0.4,0.1c-3.6,5.1-7.6,7.1-12.1,7.1c-5.3,0-10.1-3.1-12.2-8c-1.2-3.5-1.9-7.2-1.9-11c-0.1-3.6,0.5-7.2,1.8-10.6
		c2.7-7,6.5-9.2,11.2-9.2c3.9,0.2,7.5,2.2,9.7,5.4c1.4,2.3,2.4,4.7,3.1,7.3c0.4,0.1,0.9,0.2,1.3,0.2c0.5,0,1-0.2,1.4-0.5
		c-0.1-0.7-0.7-5.3-0.7-6.8c0-1.8,0.5-4.8,0.5-5.9c-0.7-0.4-1.5-0.6-2.3-0.7c-0.8,0.7-1.5,1.6-2.1,2.5c-3.8-3-8.6-4.5-13.4-4.3
		c-5.7-0.2-11.1,2-15.1,6c-4.4,4.5-6.7,10.7-6.5,17c-0.2,7,3,13.7,8.5,18c4.2,2.8,9.1,4.2,14.1,4c7.4,0,12.7-2.8,15.4-6.5
		C383.8,63.3,384.4,62.4,384.8,61.4 M337.9,26.9c0-0.3-0.1-0.6-0.2-0.8h-1.4c-3,0-4.9,0.1-10.4,0.1c-1.9,0-4.6-0.1-5.3-0.1H319
		c-0.2,0.1-0.2,0.8-0.2,1c0,0.4,0.1,0.7,0.3,1c2.1,0.3,4.2,0.9,6.2,1.7c1.1,1.9,1.7,4,1.7,6.2c0.1,0.9,0.1,1.8,0.1,4.3v12.6
		c0,0.9,0,1.7-0.1,2.6c-1-1.1-2.5-3.3-4.9-6L302,27.2c-0.3-0.3-0.6-0.6-0.9-0.8c-0.5,0-1.3-0.1-1.8-0.1c-3.9,0-10.9-0.2-11.9-0.2
		c-0.1,0.3-0.2,0.5-0.2,0.8c0,0.4,0.1,0.8,0.2,1.2c1.7,0.3,3.3,1.1,4.5,2.3c1.2,1.1,2.3,2.4,3.2,3.8c0.2,0.6,0.3,1.3,0.2,1.9
		c0,3.1-0.2,7.5-0.2,11.8v12.3c0,1.5-0.1,3.1-0.4,4.6c-1.8,1.6-4,2.7-6.3,3.1c-0.1,0.4-0.2,0.7-0.2,1.1c0,0.2,0.1,0.8,0.2,0.8h1.1
		c1.2,0,4-0.2,5.8-0.2c2.7,0,4.5,0.2,6.9,0.2h3.6c0.2-0.1,0.3-0.8,0.3-1c0-0.3-0.1-0.7-0.2-1c-2.8-0.3-5.3-1.7-7.2-3.7
		c-0.5-2.5-0.8-5-0.8-7.5c0-1.9-0.1-4.6-0.1-8.1c0-4.8,0.1-8.9,0.1-11c0.4,0.4,0.8,1,1.1,1.3l27.8,31.3c0.5,0.3,1.1,0.4,1.7,0.4
		c0.2,0,0.5,0,0.7-0.1c0.4-0.9,0.5-1.8,0.5-2.7c0-1.7-0.1-3.6-0.1-4.5V38c0-7.5,3.6-9.7,7.7-9.8C337.8,27.7,337.9,27.3,337.9,26.9
		 M278.2,68.7c0-0.4-0.1-0.8-0.2-1.2c-1.5-0.1-3-0.3-4.5-0.5c-1.1-1.3-1.8-2.9-2.1-4.6c-0.1-2.9-0.1-8.9-0.1-14.5V33.1
		c-0.1-1.2,0.3-2.3,1.1-3.3c1.6-1,3.5-1.5,5.4-1.6c0.1-0.4,0.2-0.8,0.2-1.1c0-0.3-0.1-0.7-0.3-1H276c-2.5,0-8.4,0.3-10.5,0.3
		c-1.3,0-7.2-0.2-9.8-0.2h-1.3c-0.2,0.3-0.3,0.7-0.3,1c0,0.4,0,0.8,0.1,1.1c1.6,0,3.2,0.3,4.7,0.9c1.4,1.3,2.1,3.2,2,5.1
		c0.1,1.1,0.1,3.6,0.2,9.2c0.1,3,0.1,7.2,0.1,10.7c0,1.7-0.1,5.7-0.2,7.8c-0.1,1.2-0.3,2.5-0.8,3.6c-0.7,0.6-1.5,1.7-5.9,2
		c-0.1,0.4-0.2,0.8-0.2,1.3s0.1,0.7,0.1,1h1c2.4,0,8.4-0.3,11.6-0.3c0.9,0,7.2,0.2,9.2,0.2h2C278.1,69.4,278.2,69.1,278.2,68.7
		 M229.8,37.3c0,3.7-2.5,8-5.5,8.7c-1.6,0.4-3.3,0.5-5,0.5c-0.7,0-1.5,0-2.2-0.1l-0.1-5.1V30.1c0-0.5,0.1-0.9,0.4-1.3
		c0.8-0.3,1.7-0.4,2.5-0.4c4.7,0,6.8,0.4,8.4,3.3C229.4,33.4,229.9,35.3,229.8,37.3 M247.3,68.8c0-0.4-0.1-0.9-0.3-1.3
		c-1.4,0-2.7-0.2-4-0.8c-0.4-0.5-0.7-1-1-1.5c-0.7-2.4-1.6-4.7-2.6-6.9c-1-2.7-2.5-5.1-4.5-7.2c-1.4-0.9-2.9-1.5-4.5-2
		c-1-0.4-1.7-0.7-2.5-1c0.8-0.2,1.6-0.3,2.5-0.4c4.5-0.6,5.5-1.3,6.6-2.2c2.4-1.9,3.8-4.8,3.7-7.8c0.1-4.9-3-9.3-7.5-11
		c-2.4-0.5-4.8-0.7-7.2-0.7c-4.5,0-10.9,0.4-13.9,0.4c-0.9,0-6.2-0.1-8.3-0.1c-0.9,0-3.2-0.1-3.6-0.1c-0.2,0.4-0.3,0.7-0.3,1.1
		s0,0.7,0.1,1.1c1,0.1,2.9,0.4,3.9,0.5c1.1,0.8,2,2,2.5,3.3c0.4,5.1,0.5,10.3,0.4,15.4c0,6.2,0.1,13.3-0.2,15.6c0,1.7-1,3.2-2.5,4
		c-1.1,0.2-2.3,0.3-3.4,0.4c-0.2,0.4-0.3,0.8-0.3,1.2c0,0.3,0.1,0.7,0.2,1c0.9,0,10.1-0.2,12-0.2c3.9,0,7.1,0.2,10.6,0.2
		c0.1-0.3,0.2-0.6,0.2-0.9c0-0.4-0.1-0.9-0.2-1.3c-1.2-0.1-2.7-0.5-3.4-0.6c-1.7-0.8-2.7-2.5-2.6-4.3l-0.1-13.9
		c0.5-0.1,1-0.1,1.6-0.1c1.1,0,2.2,0.4,3.2,1c2,1,3.6,2.5,4.8,4.4c2.1,4.1,3.3,8.4,3.8,13c0.2,1.3,0.7,2.4,1.8,2.5
		c0.5,0.1,3.7,0.2,6,0.2h8.6C247.2,69.5,247.3,69.2,247.3,68.8 M181.8,37.6c0.1,2.8-1,5.6-3.1,7.5c-1.8,1.2-4.1,1.8-6.3,1.6
		c-0.9,0-1.7,0-2.6-0.1c-0.5-0.1-0.8-0.1-0.8-0.4l0.1-17.7c1.2-0.2,2.3-0.3,3.5-0.3c4.1,0,6.6,1,7.8,3.6
		C181.4,33.6,181.8,35.5,181.8,37.6 M192.6,37.8c0.1-4.4-2.5-8.5-6.5-10.5c-3.5-1.1-7.1-1.6-10.8-1.4c-4.6,0-11.9,0.4-15.1,0.4
		c-2.2,0-5.6-0.2-7.5-0.2c-0.2,0.3-0.3,0.6-0.3,1s0,0.8,0.2,1.2c1.1,0.4,3,0.7,4.2,1c1,0.9,1.5,2.1,1.6,3.4c0.2,2.1,0.3,4.8,0.3,9.4
		c0,12.7-0.1,19.4-0.2,20.9c-0.2,2-1.6,3.6-3.4,4.3c-1.2,0.3-2.3,0.5-3.5,0.6c-0.1,0.4-0.1,0.8-0.1,1.3c0,0.3,0,0.6,0.2,0.9
		c1.9,0,7.6-0.2,9.8-0.2c5.4,0,10.9,0.2,13.1,0.2h1.5c0.2-0.3,0.2-0.6,0.2-1s0-0.7-0.1-1.1c-2,0-4-0.7-5.7-1.9
		c-0.8-1-1.3-2.3-1.2-3.6l-0.2-13.3c3.6,0.2,7.5,0.4,9.6,0.4c2.4,0,4.7-0.4,7-1.1C189.9,46.6,192.7,42.4,192.6,37.8"/>
	<path class="st0" d="M600.1,94.2c0-0.4-0.2-0.5-0.4-0.7c-2.5,0-5.7,0.2-7,0.2c-3.1,0-6.8-0.2-8.4-0.2c-0.2,0.4-0.2,0.4-0.2,0.7
		c0,0.2,0,0.5,0.1,0.7c1.7,0.4,4.3,0.8,4.8,1.6c0.4,0.7,0.6,1.5,0.5,2.3c0,0.8-0.1,1.5-0.4,2.2c-0.5,1.5-1.7,3.9-3.3,7.2
		c-2.8,5.6-4.5,9.1-5.5,10.5c-1.6-2.6-5.1-9.6-5.9-11.5l-3.4-7.4c-0.2-0.5-0.2-1.1-0.2-1.6s0-1.1,0.2-1.6c0.5-1.1,2.4-1.2,5-1.5
		c0.1-0.3,0.2-0.6,0.2-0.9c0-0.4-0.2-0.3-0.4-0.6h-1.1c-4,0-2.8,0.2-9.8,0.2c-2.9,0-6.5-0.2-7-0.2c-0.2,0.4-0.4,0.5-0.4,0.9
		c0,0.3,0.1,0.5,0.2,0.7c4,1,5.2,1.7,5.7,2.5l10.6,20.7c0.8,1.4,1.4,3,1.9,4.5c0.4,2.4,0.6,4.8,0.5,7.2c0.2,1.8-0.5,3.6-1.9,4.7
		c-1.6,0.4-3.2,0.7-4.8,0.8c-0.2,0.2-0.3,0.5-0.3,0.8c0,0.2,0.1,0.5,0.2,0.7c3.1,0,6.3-0.1,8.1-0.1c1.3,0,3.2,0.1,6.8,0.1
		c2.1,0.1,3.6,0.1,4.7,0.1c0.2-0.2,0.3-0.5,0.3-0.8s-0.1-0.6-0.2-0.8c-1.8-0.1-3.6-0.5-5.2-1.2c-1.1-1-1.7-2.4-1.6-3.9l-0.5-9.1
		c0-0.5,0.1-1,0.2-1.4c0.2-0.6,0.4-1.2,0.7-1.7l9.3-18.4c1-1.6,2.3-3,3.9-4c1.3-0.6,2.6-1,3.9-1.2C600,94.8,600.1,94.5,600.1,94.2
		 M551.4,106.7V95c0-0.9-0.4-1.1-1.3-1.1c-1.8,0-10.1,0.2-19.8,0.2c-7.5,0-12.5-0.1-15.9-0.1h-4.5c-0.8,0-1,0.2-1,1v10.9
		c0.2,0.2,0.5,0.2,0.7,0.2s0.5,0,0.7-0.1c2.3-5.2,3.6-8,7.6-10.1c1.8-0.2,8.1-0.2,9.1-0.2c0.1,0.7,0.1,2.8,0.2,5.3
		c0.1,4.3,0.1,6.7,0.1,17c0,8.9-0.1,13.4-0.2,14.4c-0.2,1.7,0.1,3-7.2,3.3c-0.2,0.3-0.2,0.7-0.2,1c0,0.2,0,0.5,0.1,0.7h2.3
		c2.2,0,5.2-0.2,7.4-0.2c1.7,0,5.1,0.2,8.7,0.2h1.7c0.1-0.3,0.2-0.6,0.2-0.9s-0.1-0.6-0.2-0.9c-2.1,0.2-4.3-0.2-6.2-1.1
		c-0.4-1.5-0.6-3-0.5-4.5c-0.1-6.5-0.1-9.6-0.1-13.9c0-5.6,0.1-9.9,0.1-20.3c0.8,0,5.3-0.1,7.1,0c2.8,0.6,5.2,2.2,6.8,4.6
		c1.3,2,2.2,4.2,2.7,6.6c0.3,0.1,0.6,0.1,0.9,0.1C550.9,106.9,551.2,106.8,551.4,106.7 M501.2,136.5c0-0.3-0.1-0.6-0.2-0.8
		c-0.9-0.1-3.4-0.3-4.5-0.5c-1.1-1.3-1.8-2.9-2.1-4.6c-0.1-2.9-0.1-9.5-0.1-15.1v-15.3c0-1.2,0.3-2.3,1.1-3.3c1.6-1,3.5-1.5,5.4-1.6
		c0.1-0.2,0.2-0.5,0.2-0.8s-0.1-0.5-0.3-0.7H499c-2.5,0-6.2,0.3-8.2,0.3c-1.3,0-4.9-0.2-7.5-0.2H482c-0.2,0.2-0.3,0.5-0.3,0.8
		s0.1,0.5,0.1,0.8c1.6,0,3.2,0.3,4.7,0.8c1.4,1.3,2.1,3.2,2,5.1c0.1,1.1,0.1,4.2,0.2,9.8c0.1,3,0.1,7.1,0.1,10.6
		c0,1.8-0.1,6.3-0.2,8.4c-0.1,1.2-0.3,2.5-0.8,3.6c-0.7,0.6-1.5,1.7-5.9,2c-0.1,0.3-0.2,0.6-0.2,0.9c0,0.5,0.1,0.5,0.1,0.8h1
		c2.4,0,6.2-0.3,9.3-0.3c0.9,0,4.9,0.2,6.9,0.2h2C501.1,137,501.2,136.8,501.2,136.5 M471.4,125.4c0.1-4.6-2.6-8.8-6.8-10.6
		c-2.1-1-4.4-1.9-6.7-2.4c-3-0.8-6-1.9-8.7-3.3c-2.3-1.4-3.7-3.9-3.6-6.6c0-3.9,3.9-7.1,8.5-7.1c3.3,0,6.4,1.6,8.3,4.2
		c1.5,2.1,2.8,4.4,3.7,6.9c0.2,0.1,0.4,0.1,0.6,0.1c0.5,0,1-0.2,1.3-0.6c-0.3-1.8-0.4-3.6-0.5-5.4c0.1-1.6,0.2-3.2,0.5-4.7
		c-0.4-0.6-1.1-0.9-1.8-0.8c-0.9,0.6-1.7,1.4-2.4,2.2c-2.8-2.5-6.5-3.8-10.3-3.7c-7.4,0-12.7,5-12.7,11.5c0.1,2.4,0.8,4.7,2.2,6.6
		c1.5,2,3.5,3.5,5.9,4.4c1.7,0.7,9.6,3.1,10.7,3.5c4.8,1.9,6.6,3.5,6.6,7.8c-0.1,2.3-1.1,4.5-2.7,6.1c-1.7,1.9-4.1,3-6.7,2.8
		c-3.9,0-7.6-1.6-10.1-4.5c-1.8-2.5-3.2-5.2-4.1-8.1c-0.3-0.1-0.6-0.1-0.8-0.1c-0.4,0-0.8,0.1-1.1,0.4c0,0.8,0.2,4.8,0.2,6
		c0,1.8-0.3,3.6-0.7,5.4c0.4,0.7,1.1,1.2,1.9,1.2c0.9-0.9,1.9-1.5,3-1.9c0.5,0,1,0.2,1.4,0.5c3,2,6.5,3.1,10.1,3
		C465.3,138.1,471.4,133.8,471.4,125.4 M418,104.6c-0.1,4.1-2.8,7.7-6.6,9c-2.1,0.4-4.2,0.5-6.3,0.5c-1.2,0-2.5,0-3.7-0.1l-0.1-5.3
		V97.3c0-0.8,0.2-1.2,0.4-1.4c1.4-0.3,2.8-0.4,4.2-0.4c5.7,0,8.3,0.5,10.3,3.5C417.5,100.6,418.1,102.6,418,104.6 M430.7,136.5
		c0-0.3-0.1-0.6-0.3-0.9c-1.4,0-2.7-0.2-4-0.8c-0.4-0.5-0.7-1-1-1.5c-0.7-2.6-1.6-5.1-2.5-7.5c-1-2.7-2.5-5.1-4.5-7.2
		c-1.3-0.9-2.8-1.5-4.3-2c-1-0.4-1.7-0.7-2.5-1c0.8-0.2,1.6-0.3,2.5-0.4c2.3-0.1,4.5-0.8,6.4-2.2c2.5-1.8,4-4.7,4-7.8
		c0.1-4.9-3-9.2-7.5-10.9c-2.4-0.5-4.8-0.7-7.2-0.7c-4.5,0-7.9,0.4-10.9,0.4c-0.9,0-3.9-0.1-6-0.1c-0.9,0-3.2-0.1-3.6-0.1
		c-0.2,0.4-0.3,0.6-0.3,0.8c0,0.3,0.1,0.6,0.1,0.8c1,0.1,2.9,0.4,3.9,0.5c1.2,0.8,2,1.9,2.5,3.3c0.3,1.9,0.4,7.4,0.4,15.9
		c0,6.2,0.1,13.9-0.2,16.2c0,1.7-1,3.3-2.5,4c-1.1,0.2-2.3,0.3-3.4,0.4c-0.2,0.2-0.3,0.5-0.3,0.8s0.1,0.5,0.2,0.7
		c0.8,0,7.8-0.2,9.7-0.2c3.9,0,4.8,0.2,8.3,0.2c0.1-0.2,0.2-0.4,0.2-0.7s-0.1-0.6-0.2-0.9c-1.2-0.1-2.7-0.5-3.4-0.6
		c-1.6-0.8-2.7-2.5-2.6-4.3l-0.1-15.1c0.5-0.1,2.2-0.1,2.7-0.1c1.7-0.1,3.3,0.2,4.8,0.9c2.4,1,4.5,2.7,5.9,4.9
		c2.1,4.1,3.3,8.6,3.8,13.1c0.2,1.3,0.7,2.4,1.8,2.5c1.2,0.2,2.3,0.2,3.5,0.2h6.3C430.6,137.1,430.7,136.8,430.7,136.5 M380.1,127.4
		c0-0.6,0-1.2-0.1-1.7c-0.3-0.2-0.6-0.2-0.9-0.2s-0.5,0-0.8,0.1c-0.9,3.7-3.1,7-6.2,9.2c-1.6,0.6-3.4,0.8-5.1,0.7h-6.8
		c-1.3,0-2.7-0.1-4-0.3c-0.9-0.2-1.9-1.6-2.3-2.6c-0.6-1.3-0.8-2.7-0.7-4.2v-13.8h1.9c1.7-0.1,3.5,0.2,5.1,0.9
		c1.3,0.5,2.4,1.4,3.3,2.6c0.5,1.6,0.8,3.3,0.8,5c0.3,0.2,0.6,0.3,1,0.2c0.3,0,0.7-0.1,1-0.3c0-1.6-0.4-6-0.4-8.4
		c0-3,0.4-6.7,0.6-8.9c-0.3-0.2-0.6-0.3-1-0.2c-0.3,0-0.7,0-1,0.2c-0.2,0.9-0.7,3.4-0.8,3.6c-1.2,1.5-2.8,2.7-4.6,3.2
		c-1.6,0.4-3.3,0.5-5,0.5h-1v-5.9c0-5.8,0.1-8.1,0.2-9.2c0.1-0.7,0.2-1.5,0.2-2.1c0.5-0.1,2.3-0.1,5.1-0.1c3.5,0,6.1,0.1,6.6,0.1
		c1.4,0,2.7,0.4,3.9,1.2c2.5,1.9,4.4,4.5,5.4,7.5c0.2,0.1,0.5,0.1,0.7,0.1c0.4,0,0.4-0.1,0.9-0.4c0-3.7-0.2-7.8-0.4-9.4
		c-0.1-0.6-0.2-0.8-1.4-0.8c-0.5,0-2.8-0.1-5.2-0.1c-3.4,0-4.8,0.1-10.1,0.1c-2.8,0-7.8,0.1-10.3,0.1c-3.6,0-4.4-0.1-6-0.1h-2.1
		c-0.2,0.2-0.3,0.4-0.3,0.7c0,0.3,0.1,0.6,0.3,0.9c1.5,0.1,3,0.3,4.4,0.7c0.8,0.7,1.6,0.9,2.2,3.8c0.1,1.3,0.2,5.4,0.2,8.1v12.4
		c0,2.5-0.1,6.7-0.1,8.2c-0.1,2-0.6,4-1.3,5.9c-1.8,0.6-3.6,0.9-5.5,0.9c-0.2,0.3-0.3,0.6-0.3,1c0,0.3,0.1,0.6,0.3,0.8h2
		c1.9,0,6.8-0.2,8.4-0.2c1.5,0,3.6,0.1,7.1,0.1c1.9,0,7.6,0.4,19.8,0.4c0.5,0,1.1,0,1.6-0.1c0.2-0.3,0.3-0.6,0.2-1
		C380.1,135.2,380.1,132.2,380.1,127.4 M335.4,94.4c0-0.2-0.1-0.6-0.3-0.7H333c-1.4,0-3.7,0.1-4.8,0.1c-4.9,0-6.6-0.3-7.4-0.3h-1.1
		c-0.1,0.3-0.3,0.5-0.3,0.8c0,0.2,0.1,0.4,0.1,0.7c1.4,0.2,2.8,0.5,4.2,0.9c1,1,1.5,2.4,1.5,3.8c-0.3,1.9-0.7,3.7-1.5,5.5l-9.7,23.9
		l-11.9-30.2c0.1-1.4,0.8-2.6,2-3.4c1.3-0.3,2.6-0.4,3.9-0.5c0.1-0.3,0.2-0.5,0.2-0.8c0-0.2-0.1-0.6-0.3-0.7h-1.5
		c-1.8,0-4.7,0.2-7.9,0.2c-1.4,0-4.1-0.1-6.8-0.1h-2.1c-0.1,0.2-0.2,0.5-0.2,0.7c0,0.3,0,0.5,0.2,0.7c1.8,0.5,3.5,1.2,5.1,2.1
		c1.9,3.6,3.5,7.2,5,11l5,12.1c4.1,10,6.6,16.7,6.9,17.9c0.3,0.2,0,0.4,0.5,0.4s0.5-0.1,0.6-0.4l15.6-37.4c0.5-1.3,1.3-2.4,2.2-3.4
		c1.4-1.1,3.1-1.7,4.8-1.9C335.3,95,335.4,94.7,335.4,94.4 M282.6,136.5c0-0.3-0.1-0.6-0.2-0.8c-0.9-0.1-3.4-0.3-4.5-0.5
		c-1.1-1.3-1.8-2.9-2.1-4.6c-0.1-2.9-0.1-9.5-0.1-15.1v-15.3c-0.1-1.2,0.3-2.3,1.1-3.3c1.6-1,3.5-1.6,5.4-1.6
		c0.1-0.2,0.2-0.5,0.2-0.8s-0.1-0.5-0.3-0.7h-1.7c-2.5,0-6.2,0.3-8.2,0.3c-1.3,0-4.9-0.2-7.5-0.2h-1.3c-0.2,0.2-0.3,0.5-0.3,0.8
		s0.1,0.5,0.1,0.8c1.6,0,3.2,0.3,4.7,0.8c1.4,1.3,2.1,3.2,2,5.1c0.1,1.1,0.1,4.2,0.2,9.8c0.1,3,0.1,7.1,0.1,10.6
		c0,1.8-0.1,6.3-0.2,8.4c-0.1,1.2-0.3,2.5-0.8,3.6c-0.7,0.6-1.4,1.7-5.8,2c-0.1,0.3-0.2,0.6-0.2,0.9c0,0.5,0.1,0.5,0.1,0.8h1
		c2.4,0,6.2-0.3,9.3-0.3c0.9,0,4.9,0.2,6.9,0.2h2C282.5,137,282.6,136.8,282.6,136.5 M255.3,94.3c0-0.2-0.1-0.4-0.2-0.6h-1.4
		c-3,0-4.3,0.1-9.8,0.1c-1.9,0-4.6-0.1-5.3-0.1H237c-0.2,0.1-0.2,0.5-0.2,0.8s0.1,0.5,0.3,0.7c2.1,0.3,4.2,0.9,6.2,1.7
		c1.1,1.9,1.7,4,1.7,6.2c0.1,0.9,0.1,1.8,0.1,4.3v17.9c0,0.9,0,1.7-0.1,2.6c-1-1.1-2.8-3.4-5.1-6.2l-23-26.9
		c-0.3-0.3-0.6-0.6-0.9-0.8c-0.5,0-1.1-0.1-1.6-0.1c-3.9,0-7.2-0.2-8.3-0.2c-0.1,0.2-0.2,0.4-0.2,0.6c0,0.3,0.1,0.5,0.1,0.8
		c1.7,0.2,3.3,0.8,4.7,1.7c1.1,1.1,2.1,2.2,2.9,3.6c0.2,0.6,0.3,1.3,0.2,1.9c0,3.1-0.2,8.9-0.2,13.1v12.9c0,1.5-0.1,3.1-0.4,4.6
		c-1.8,1.6-4,2.7-6.3,3.1c-0.1,0.2-0.2,0.5-0.2,0.7s0.1,0.5,0.2,0.6h1.1c1.2,0,4-0.2,5.8-0.2c2.6,0,3.9,0.2,6.3,0.2h3.6
		c0.2-0.1,0.3-0.5,0.3-0.8c0-0.2-0.1-0.4-0.2-0.6c-2.8-0.3-5.4-1.7-7.2-3.7c-0.5-2.5-0.8-5-0.8-7.6c0-1.9-0.1-5.1-0.1-8.6
		c0-4.8,0.1-11.3,0.1-13.5c0.4,0.4,0.9,1.1,1.3,1.6l28.6,33.5c0.2,0.2,0.4,0.4,0.7,0.4s0.1,0,0.4-0.1c0.2-0.9,0.3-1.8,0.3-2.7
		c0-1.7-0.1-3.6-0.1-4.5v-25.6c0-7.5,3.6-9.7,7.7-9.8C255.2,94.9,255.3,94.6,255.3,94.3 M199.4,94.6c0-0.3-0.1-0.6-0.3-0.8h-1.7
		c-1.9,0-4.4,0.1-6.6,0.1c-2.4,0-5.1-0.1-6.9-0.1h-2.2c-0.2,0.2-0.2,0.5-0.2,0.8s0.1,0.5,0.2,0.8c0.2,0,4.6,0.1,5.4,1.1
		c1,1.3,1.8,2.9,2.3,4.5c0.3,2.2,0.5,4.4,0.5,6.6c0,5.1,0,8.6-0.1,10.4c0,2.7-0.4,5.4-1.1,8c-1.7,5.2-5.6,7.8-11.8,7.8
		c-2.4,0-4.9-0.5-7.1-1.5c-3.1-1.4-5.3-4.2-5.8-7.6l-0.3-18.1v-7.4c0-1.4,1.7-2.7,2.3-3.4c1.5-0.3,3.1-0.5,4.6-0.6
		c0.2-0.2,0.3-0.5,0.3-0.8s-0.2-0.6-0.4-0.8l-2.3,0.1c-2.2,0.1-5.2,0.1-7.1,0.1c-2.9,0-5.1-0.1-6.9-0.1h-2.5
		c-0.2,0.2-0.3,0.5-0.3,0.8s0.1,0.5,0.2,0.7c1.9,0.2,3.2,0.4,4,0.6c1,0.6,1.7,1.6,2.1,2.7c0.1,0.8,0.2,2.7,0.2,6.5v14.5
		c-0.1,2.7,0.1,5.4,0.6,8.1c0.7,3.1,2.6,5.7,5.2,7.4c3.3,2,7.2,3,11,2.9c3.6,0.1,7.2-0.8,10.4-2.5c3-1.7,5.2-4.6,6-8
		c0.6-2.3,1-4.8,1-7.2v-11.6c0-2.2,0.1-4.9,0.1-6c0-2.3,0.6-4.6,1.8-6.6c1.6-0.5,3.3-0.7,5-0.8C199.3,95.1,199.4,94.9,199.4,94.6"/>
</g>
<g id="Layer_2">
	<path class="st0" d="M123.1,21c-10.1,5.8-17.1,6.1-19.9,6.1c-12.1,0-20.8-6.8-23.4-8.9C69.4,9.3,64.2-0.1,64.2-0.1
		S59,9.3,48.5,18.2c-2.5,2.2-11.3,8.9-23.4,8.9c-2.8,0-9.8-0.4-19.9-6.1c0,0-2.3,13.7-2,25.5c0.1,2.7,0,17,3.5,32.1
		c0.4,2,5.2,23.5,15.4,40.8c1.5,2.5,15.3,29.8,42,43.9c26.7-14,40.5-41.4,42-43.9c10.3-17.2,15-38.8,15.4-40.8
		c3.5-15,3.4-29.4,3.5-32.1C125.3,34.7,123.1,21,123.1,21z M86.2,41c0-0.1,0.1-0.2,0.2-0.2h0.7h1.5c0.1,0,0.2-0.1,0.2-0.2v-3.1
		c0-0.1-0.1-0.2-0.2-0.2h-1.5h-0.7c-0.1,0-0.2-0.1-0.2-0.2v-1c0-0.1,0.1-0.2,0.2-0.2h2.4h0.9v-0.2h0.4v6.2h-0.9h-0.4h-2.4
		c-0.1,0-0.2-0.1-0.2-0.2V41z M86.2,54.1c0-0.1,0.1-0.2,0.2-0.2h0.7h1.5c0.1,0,0.2-0.1,0.2-0.2v-3.1c0-0.1-0.1-0.2-0.2-0.2h-1.5
		h-0.7c-0.1,0-0.2-0.1-0.2-0.2v-1c0-0.1,0.1-0.2,0.2-0.2h2.4h0.9h0.4v6.2h-0.9h-0.4h-2.4c-0.1,0-0.2-0.1-0.2-0.2V54.1z M64.6,31.1
		c1.1-0.8,2.7-1.8,6.2-1.8c2.3,0,3.6,0.4,4.8,0.8c1,0.3,1.8,0.5,3.1,0.5c1.8,0,3-0.4,3.6-0.8V31v0.1v25.4c-0.6,0.3-1.8,0.8-3.6,0.8
		c-1.2,0-2.1-0.3-3.1-0.5c-1.2-0.4-2.5-0.8-4.8-0.8c-3.5,0-5.3,1.1-6.2,1.8V31.1z M46.1,31.1L46.1,31.1v-1.3
		c0.6,0.3,1.8,0.8,3.6,0.8c1.2,0,2.1-0.3,3.1-0.5c1.2-0.4,2.6-0.8,4.8-0.8c3.5,0,5.3,1.1,6.3,1.9v26.7C62.8,57,61.2,56,57.6,56
		c-2.3,0-3.6,0.4-4.8,0.8c-1.1,0.3-1.8,0.5-3.2,0.5c-1.8,0-3-0.4-3.6-0.8V31.1z M43.4,31.1H45v26c0,0,1.6,1.3,4.6,1.3
		c3.1,0,3.9-1.3,7.9-1.3s5.3,1.3,6.1,2.1h0.5h0.5c0.9-0.7,2.2-2.1,6.1-2.1s4.9,1.3,7.9,1.3c3,0,4.6-1.3,4.6-1.3h-0.2v-26h1.7V60
		c0,0-16.5,0-17.1,0c-0.4,0-0.5,0.3-0.5,0.5c0,0.3,0,0.9,0,0.9h-3.2H61c0,0,0-0.6,0-0.9c0-0.3-0.1-0.5-0.5-0.5c-0.6,0-17.1,0-17.1,0
		V31.1z M38.4,36.1h0.4h0.9H42c0.1,0,0.2,0.1,0.2,0.3v1c0,0.1-0.1,0.2-0.2,0.2h-0.7h-1.5c-0.1,0-0.2,0.1-0.2,0.2v3.2
		c0,0.1,0.1,0.2,0.2,0.2h1.5H42c0.1,0,0.2,0.1,0.2,0.2v1c0,0.1-0.1,0.2-0.2,0.2h-2.4h-0.4h-0.9V36.1z M38.4,49.1h0.4h0.9H42
		c0.1,0,0.2,0.1,0.2,0.4v1c0,0.1-0.1,0.2-0.2,0.2h-0.7h-1.5c-0.1,0-0.2,0.1-0.2,0.2v3.1c0,0.1,0.1,0.2,0.2,0.2h1.5H42
		c0.1,0,0.2,0.1,0.2,0.2v1c0,0.1-0.1,0.2-0.2,0.2h-2.4h-0.4h-0.9V49.1z M92.3,138.1c-3.9,4.7-8,9-12.3,12.8c-5,4.4-10.3,8.2-15.8,11
		c-5.4-2.9-10.8-6.7-15.8-11c-4.3-3.8-8.4-8.1-12.3-12.8c-1.2-1.5-2.3-2.9-3.3-4.3l31.4-29.3l31.4,29.3
		C94.6,135.2,93.5,136.6,92.3,138.1z M120.5,78.3c0,0-0.1,0.2-0.1,0.3c-1.4,6.3-5.4,21.5-12.5,35.2L64.2,73l-43.7,40.8
		C13.5,100.1,9.5,84.9,8,78.5c-0.1-0.1-0.1-0.2-0.1-0.3c-0.7-3-1.3-6-1.8-8.9h116.1C121.8,72.2,121.2,75.2,120.5,78.3z"/>
	<g>
		<path class="st0" d="M52.5,33.1L52.5,33.1c-0.2,0.1-0.3,0.2-0.4,0.4c-0.1,0.1-0.2,0.4-0.4,0.7l-1.5,3.2h-0.1l-1.5-3.3
			c-0.2-0.4-0.3-0.6-0.4-0.7c-0.1-0.1-0.2-0.1-0.4-0.2v-0.1h2v0.1h-0.1c-0.2,0-0.4,0-0.4,0.1c-0.1,0-0.1,0.1-0.1,0.2
			c0,0,0,0.1,0,0.2c0,0.1,0.1,0.2,0.2,0.4l0.9,2.1l0.9-1.8c0.1-0.3,0.2-0.4,0.2-0.4s0-0.2,0-0.2c0-0.1,0-0.1-0.1-0.2
			c0-0.1-0.1-0.1-0.2-0.1c-0.1,0-0.2-0.1-0.4-0.1v-0.1h1.6V33.1z"/>
		<path class="st0" d="M54.3,33.4v1.8h0.1c0.3,0,0.4-0.1,0.6-0.3c0.1-0.2,0.2-0.4,0.3-0.8h0.1v2.2h-0.1c0-0.3-0.1-0.4-0.2-0.6
			c-0.1-0.2-0.2-0.3-0.3-0.4c-0.1-0.1-0.3-0.1-0.4-0.1v1.2c0,0.3,0,0.4,0,0.4c0,0.1,0.1,0.1,0.1,0.1c0.1,0,0.2,0.1,0.3,0.1H55
			c0.4,0,0.7-0.1,1-0.3c0.3-0.2,0.4-0.4,0.5-0.9h0.1l-0.2,1.3h-3.7v-0.1h0.2c0.1,0,0.3,0,0.3-0.1c0.1,0,0.1-0.1,0.1-0.2
			c0-0.1,0-0.2,0-0.4v-2.8c0-0.2,0-0.4,0-0.4c0-0.1-0.1-0.1-0.1-0.2c-0.1-0.1-0.2-0.1-0.4-0.1h-0.2V33h3.5v1.2h-0.1
			c-0.1-0.3-0.2-0.5-0.3-0.7c-0.1-0.2-0.3-0.3-0.4-0.3c-0.1,0-0.4-0.1-0.6-0.1h-0.4V33.4z"/>
		<path class="st0" d="M60.9,33.1v1.1h-0.1c-0.1-0.3-0.2-0.4-0.3-0.6c-0.1-0.1-0.2-0.2-0.4-0.3c-0.1,0-0.2-0.1-0.4-0.1h-0.4v3.2
			c0,0.2,0,0.4,0,0.4c0,0.1,0.1,0.1,0.2,0.2c0.1,0,0.2,0.1,0.3,0.1H60v0.1h-2.2v-0.1H58c0.1,0,0.3,0,0.3-0.1c0.1,0,0.1-0.1,0.1-0.2
			s0-0.2,0-0.4v-3.2h-0.3c-0.3,0-0.5,0.1-0.6,0.2c-0.2,0.2-0.3,0.4-0.4,0.7H57v-1.1H60.9z"/>
	</g>
	<g>
		<path class="st0" d="M68,33.1l2.1,2.6v-1.8c0-0.3,0-0.4-0.1-0.5c-0.1-0.1-0.3-0.2-0.5-0.2v-0.1h1.4v0.1c-0.2,0-0.3,0.1-0.4,0.1
			c-0.1,0-0.1,0.1-0.2,0.2c0,0.1-0.1,0.3-0.1,0.4v3.5h-0.1l-2.9-3.5v2.7c0,0.3,0.1,0.4,0.2,0.5c0.1,0.1,0.3,0.1,0.4,0.1h0.1v0.1
			h-1.5v-0.1c0.3,0,0.4-0.1,0.5-0.2c0.1-0.1,0.2-0.3,0.2-0.4v-3L67,33.5c-0.1-0.1-0.2-0.2-0.3-0.3c-0.1,0-0.2-0.1-0.3-0.1v-0.1H68z"
			/>
		<path class="st0" d="M73.5,33c0.7,0,1.2,0.2,1.7,0.6s0.6,1,0.6,1.6c0,0.5-0.2,1.1-0.4,1.4c-0.4,0.5-1,0.8-1.8,0.8
			s-1.3-0.3-1.8-0.8c-0.4-0.4-0.5-0.9-0.5-1.5c0-0.6,0.2-1.1,0.6-1.6C72.4,33.2,72.9,33,73.5,33z M73.6,33.3c-0.4,0-0.7,0.2-0.9,0.6
			c-0.2,0.4-0.3,0.8-0.3,1.4c0,0.7,0.1,1.2,0.4,1.6c0.2,0.3,0.4,0.4,0.7,0.4c0.2,0,0.4-0.1,0.5-0.2c0.2-0.2,0.4-0.4,0.4-0.6
			c0.1-0.3,0.2-0.7,0.2-1.1c0-0.5-0.1-1-0.2-1.2c-0.1-0.3-0.3-0.4-0.4-0.6C74,33.3,73.8,33.3,73.6,33.3z"/>
		<path class="st0" d="M80.6,33.1L80.6,33.1c-0.2,0.1-0.3,0.2-0.4,0.4c-0.1,0.1-0.2,0.4-0.4,0.7l-1.5,3.2h-0.1l-1.5-3.3
			c-0.2-0.4-0.3-0.6-0.4-0.7s-0.2-0.1-0.4-0.2v-0.1h2v0.1H78c-0.2,0-0.4,0-0.4,0.1c-0.1,0-0.1,0.1-0.1,0.2c0,0,0,0.1,0,0.2
			c0,0.1,0.1,0.2,0.2,0.4l0.9,2.1l0.9-1.8c0.1-0.3,0.2-0.4,0.2-0.4s0-0.2,0-0.2c0-0.1,0-0.1-0.1-0.2c0-0.1-0.1-0.1-0.2-0.1
			c-0.1,0-0.2-0.1-0.4-0.1v-0.1h1.6V33.1z"/>
	</g>
	<g>
		<path class="st0" d="M52.3,41.1v1.1h-0.1c-0.1-0.3-0.2-0.4-0.3-0.6c-0.1-0.1-0.2-0.2-0.4-0.3c-0.1,0-0.2-0.1-0.4-0.1h-0.4v3.2
			c0,0.2,0,0.4,0,0.4s0.1,0.1,0.2,0.2c0.1,0,0.2,0.1,0.3,0.1h0.2v0.1h-2.2v-0.1h0.2c0.1,0,0.3,0,0.3-0.1c0.1,0,0.1-0.1,0.1-0.2
			c0-0.1,0-0.2,0-0.4v-3.2h-0.3c-0.3,0-0.5,0.1-0.6,0.2c-0.2,0.2-0.3,0.4-0.4,0.7h-0.1v-1.1H52.3z"/>
		<path class="st0" d="M54.7,41.3V43h0.1c0.3,0,0.4-0.1,0.6-0.3c0.1-0.2,0.2-0.4,0.3-0.8h0.1v2.2h-0.1c0-0.3-0.1-0.4-0.2-0.6
			c-0.1-0.2-0.2-0.3-0.3-0.4c-0.1-0.1-0.3-0.1-0.4-0.1v1.2c0,0.3,0,0.4,0,0.4c0,0.1,0.1,0.1,0.1,0.1c0.1,0,0.2,0.1,0.3,0.1h0.3
			c0.4,0,0.7-0.1,1-0.3c0.3-0.2,0.4-0.4,0.5-0.9h0.1l-0.3,1.5H53v-0.1h0.2c0.1,0,0.3,0,0.3-0.1c0.1,0,0.1-0.1,0.1-0.2
			c0-0.1,0-0.2,0-0.4v-2.8c0-0.2,0-0.4,0-0.4c0-0.1-0.1-0.1-0.1-0.2c0-0.1-0.2-0.1-0.3-0.1H53v-0.1h3.5v1.2h-0.1
			c-0.1-0.3-0.2-0.5-0.3-0.7c-0.1-0.2-0.3-0.3-0.4-0.3c-0.1,0-0.4-0.1-0.6-0.1C55.1,41.3,54.7,41.3,54.7,41.3z"/>
		<path class="st0" d="M60.5,41v1.4h-0.1c-0.1-0.4-0.2-0.6-0.4-0.9c-0.3-0.2-0.5-0.4-0.8-0.4c-0.2,0-0.4,0.1-0.5,0.2
			c-0.1,0.1-0.2,0.3-0.2,0.4c0,0.1,0,0.2,0.1,0.3c0.1,0.1,0.2,0.2,0.3,0.3c0.1,0.1,0.4,0.2,0.7,0.4c0.5,0.3,0.8,0.4,1,0.7
			c0.2,0.2,0.3,0.4,0.3,0.7c0,0.4-0.2,0.7-0.4,0.9c-0.3,0.3-0.6,0.4-1.1,0.4c-0.2,0-0.3,0-0.4,0c-0.1,0-0.3-0.1-0.4-0.2
			c-0.1,0-0.2-0.1-0.3-0.1c-0.1,0-0.1,0-0.2,0.1c-0.1,0-0.1,0.1-0.2,0.2h-0.1v-1.4h0.1c0.1,0.4,0.3,0.8,0.5,1.1
			c0.3,0.3,0.5,0.4,0.9,0.4c0.3,0,0.4-0.1,0.5-0.2c0.2-0.1,0.2-0.3,0.2-0.4c0-0.1,0-0.2-0.1-0.3c-0.1-0.1-0.2-0.2-0.3-0.3
			c-0.1-0.1-0.3-0.2-0.6-0.4c-0.4-0.2-0.7-0.4-0.8-0.5c-0.2-0.2-0.3-0.3-0.4-0.4c-0.1-0.2-0.2-0.4-0.2-0.5c0-0.4,0.1-0.6,0.4-0.9
			s0.5-0.4,1-0.4c0.2,0,0.3,0,0.4,0.1c0.1,0,0.2,0.1,0.4,0.2c0.2,0.1,0.3,0.1,0.3,0.1c0.1,0,0.1,0,0.1-0.1c0,0,0.1-0.1,0.1-0.3
			C60.2,41,60.5,41,60.5,41z"/>
	</g>
	<g>
		<path class="st0" d="M70.4,41.1v1.1h-0.1c-0.1-0.3-0.2-0.4-0.3-0.6c-0.1-0.1-0.2-0.2-0.4-0.3c-0.1,0-0.2-0.1-0.4-0.1H69v3.2
			c0,0.2,0,0.4,0,0.4s0.1,0.1,0.2,0.2c0.1,0,0.2,0.1,0.3,0.1h0.2v0.1h-2.2v-0.1h0.2c0.1,0,0.3,0,0.3-0.1c0.1,0,0.1-0.1,0.1-0.2
			c0-0.1,0-0.2,0-0.4v-3.2h-0.3c-0.3,0-0.5,0.1-0.6,0.2c-0.2,0.2-0.3,0.4-0.4,0.7h-0.1v-1.1H70.4z"/>
		<path class="st0" d="M72.9,44.1h-1.5l-0.2,0.4c-0.1,0.2-0.1,0.3-0.1,0.4c0,0.1,0.1,0.2,0.2,0.3c0.1,0,0.2,0.1,0.4,0.1v0.1h-1.4
			v-0.1c0.2,0,0.3-0.1,0.4-0.2c0.1-0.1,0.2-0.4,0.4-0.6l1.5-3.4h0.1l1.5,3.5c0.2,0.4,0.3,0.5,0.4,0.6c0.1,0.1,0.2,0.1,0.3,0.1v0.1
			h-2v-0.1h0.1c0.2,0,0.3,0,0.4-0.1c0.1,0,0.1-0.1,0.1-0.2v-0.1c0,0,0-0.1-0.1-0.3L72.9,44.1z M72.8,43.9l-0.6-1.5l-0.6,1.5H72.8z"
			/>
		<path class="st0" d="M77.9,43.9l1.1-2.8h1.8v0.1h-0.2c-0.1,0-0.3,0-0.3,0.1c-0.1,0-0.1,0.1-0.1,0.2c0,0.1,0,0.2,0,0.4v2.8
			c0,0.2,0,0.4,0,0.4c0,0.1,0.1,0.1,0.2,0.2c0.1,0,0.2,0.1,0.3,0.1h0.2v0.1h-2.3v-0.1h0.2c0.1,0,0.3,0,0.3-0.1
			c0.1,0,0.1-0.1,0.1-0.2c0-0.1,0-0.2,0-0.4v-3.2l-1.7,3.9h-0.1l-1.7-3.9v3c0,0.2,0,0.4,0,0.4c0,0.1,0.1,0.2,0.2,0.3
			c0.1,0.1,0.3,0.1,0.4,0.1v0.1h-1.5v-0.1l0,0c0.1,0,0.2,0,0.3-0.1c0.1,0,0.2-0.1,0.2-0.1c0-0.1,0.1-0.1,0.1-0.3c0,0,0-0.1,0-0.4
			v-2.7c0-0.2,0-0.4,0-0.4c0-0.1-0.1-0.1-0.2-0.2c-0.1,0-0.2-0.1-0.3-0.1h-0.2v-0.1h1.8L77.9,43.9z"/>
	</g>
	<g>
		<path class="st0" d="M52.6,49.3v1.8h0.1c0.3,0,0.4-0.1,0.6-0.3c0.1-0.2,0.2-0.4,0.3-0.8h0.1v2.2h-0.1c0-0.3-0.1-0.4-0.2-0.6
			c-0.1-0.2-0.2-0.3-0.3-0.4c-0.1-0.1-0.3-0.1-0.4-0.1v1.2c0,0.3,0,0.4,0,0.4s0.1,0.1,0.1,0.1c0.1,0,0.2,0.1,0.3,0.1h0.3
			c0.4,0,0.7-0.1,1-0.3c0.3-0.2,0.4-0.4,0.5-0.9h0.1l-0.2,1.3h-3.7v-0.1h0.2c0.1,0,0.3,0,0.3-0.1c0.1,0,0.1-0.1,0.1-0.2s0-0.2,0-0.4
			v-2.8c0-0.2,0-0.4,0-0.4c0-0.1-0.1-0.1-0.1-0.2c-0.1-0.1-0.2-0.1-0.4-0.1H51V49h3.5v1.2h-0.1c-0.1-0.3-0.2-0.5-0.3-0.7
			c-0.1-0.2-0.3-0.3-0.4-0.3c-0.1,0-0.4-0.1-0.6-0.1h-0.4V49.3z"/>
		<path class="st0" d="M57.1,49.1l2.1,2.6v-1.8c0-0.3,0-0.4-0.1-0.5c-0.1-0.1-0.3-0.2-0.5-0.2v-0.1H60v0.1c-0.2,0-0.3,0.1-0.4,0.1
			c-0.1,0-0.1,0.1-0.2,0.2c0,0.1-0.1,0.3-0.1,0.4v3.5h-0.1l-2.9-3.5v2.7c0,0.3,0.1,0.4,0.2,0.5c0.1,0.1,0.3,0.1,0.4,0.1H57v0.1h-1.5
			v-0.1c0.3,0,0.4-0.1,0.5-0.2c0.1-0.1,0.2-0.3,0.2-0.4v-3l-0.1-0.1c-0.1-0.1-0.2-0.2-0.3-0.3c-0.1,0-0.2-0.1-0.3-0.1v-0.1H57.1z"/>
	</g>
	<g>
		<path class="st0" d="M70.4,49.1v1.1h-0.1c-0.1-0.3-0.2-0.4-0.3-0.6c-0.1-0.1-0.2-0.2-0.4-0.3c-0.1,0-0.2-0.1-0.4-0.1H69v3.2
			c0,0.2,0,0.4,0,0.4c0,0.1,0.1,0.1,0.2,0.2c0.1,0,0.2,0.1,0.3,0.1h0.2v0.1h-2.2v-0.1h0.2c0.1,0,0.3,0,0.3-0.1
			c0.1,0,0.1-0.1,0.1-0.2c0-0.1,0-0.2,0-0.4v-3.2h-0.3c-0.3,0-0.5,0.1-0.6,0.2c-0.2,0.2-0.3,0.4-0.4,0.7h-0.1v-1.1H70.4z"/>
		<path class="st0" d="M75.3,49.1L75.3,49.1c-0.2,0.1-0.3,0.2-0.4,0.4c-0.1,0.1-0.2,0.4-0.4,0.7L73,53.4h-0.1l-1.5-3.3
			c-0.2-0.4-0.3-0.6-0.4-0.7c-0.1-0.1-0.2-0.1-0.4-0.2v-0.1h2v0.1h-0.1c-0.2,0-0.4,0-0.4,0.1c-0.1,0-0.1,0.1-0.1,0.2
			c0,0,0,0.1,0,0.2c0,0.1,0.1,0.2,0.2,0.4l0.9,2.1l0.9-1.8c0.1-0.3,0.2-0.4,0.2-0.4c0-0.1,0-0.2,0-0.2c0-0.1,0-0.1-0.1-0.2
			c0-0.1-0.1-0.1-0.2-0.1c-0.1,0-0.2-0.1-0.4-0.1v-0.1h1.6V49.1z"/>
		<path class="st0" d="M78.4,52l1.1-2.8h1.8v0.1h-0.2c-0.1,0-0.3,0-0.3,0.1c-0.1,0-0.1,0.1-0.1,0.2c0,0.1,0,0.2,0,0.4v2.8
			c0,0.2,0,0.4,0,0.4s0.1,0.1,0.2,0.2c0.1,0,0.2,0.1,0.3,0.1h0.2v0.1h-2.2v-0.1h0.2c0.1,0,0.3,0,0.3-0.1c0.1,0,0.1-0.1,0.1-0.2
			s0-0.2,0-0.4v-3.2l-1.7,3.9H78l-1.7-3.9v3c0,0.2,0,0.4,0,0.4c0,0.1,0.1,0.2,0.2,0.3c0.1,0.1,0.3,0.1,0.4,0.1v0.1h-1.5v-0.1l0,0
			c0.1,0,0.2,0,0.3-0.1c0.1,0,0.2-0.1,0.2-0.1c0-0.1,0.1-0.1,0.1-0.3c0,0,0-0.1,0-0.4v-2.7c0-0.2,0-0.4,0-0.4c0-0.1-0.1-0.1-0.2-0.2
			c-0.1,0-0.2-0.1-0.3-0.1h-0.2V49h1.8L78.4,52z"/>
	</g>
</g>
</svg>
